<svg width="334" height="99" viewBox="0 0 334 99" fill="none" xmlns="http://www.w3.org/2000/svg">
<path d="M58.6172 20.6172V21.8438H58.3516C57.2266 21.8646 56.3307 22.1979 55.6641 22.8438C54.9974 23.4896 54.612 24.3984 54.5078 25.5703C55.1068 24.8828 55.9245 24.5391 56.9609 24.5391C57.9505 24.5391 58.7396 24.888 59.3281 25.5859C59.9219 26.2839 60.2188 27.1849 60.2188 28.2891C60.2188 29.4609 59.8984 30.3984 59.2578 31.1016C58.6224 31.8047 57.7682 32.1562 56.6953 32.1562C55.6068 32.1562 54.724 31.7396 54.0469 30.9062C53.3698 30.0677 53.0312 28.9896 53.0312 27.6719V27.1172C53.0312 25.0234 53.4766 23.4245 54.3672 22.3203C55.263 21.2109 56.5938 20.6432 58.3594 20.6172H58.6172ZM56.7188 25.7422C56.224 25.7422 55.7682 25.8906 55.3516 26.1875C54.9349 26.4844 54.6458 26.8568 54.4844 27.3047V27.8359C54.4844 28.7734 54.6953 29.5286 55.1172 30.1016C55.5391 30.6745 56.0651 30.9609 56.6953 30.9609C57.3464 30.9609 57.8568 30.7214 58.2266 30.2422C58.6016 29.763 58.7891 29.1354 58.7891 28.3594C58.7891 27.5781 58.599 26.9479 58.2188 26.4688C57.8438 25.9844 57.3438 25.7422 56.7188 25.7422ZM74.6719 30.5078C74.2865 31.0599 73.7474 31.474 73.0547 31.75C72.3672 32.0208 71.5651 32.1562 70.6484 32.1562C69.7214 32.1562 68.8984 31.9401 68.1797 31.5078C67.4609 31.0703 66.9036 30.4505 66.5078 29.6484C66.1172 28.8464 65.9167 27.9167 65.9062 26.8594V25.8672C65.9062 24.1536 66.3047 22.8255 67.1016 21.8828C67.9036 20.9401 69.0286 20.4688 70.4766 20.4688C71.6641 20.4688 72.6198 20.7734 73.3438 21.3828C74.0677 21.987 74.5104 22.8464 74.6719 23.9609H73.1719C72.8906 22.4557 71.9948 21.7031 70.4844 21.7031C69.4792 21.7031 68.7161 22.0573 68.1953 22.7656C67.6797 23.4688 67.4193 24.4896 67.4141 25.8281V26.7578C67.4141 28.0339 67.7057 29.0495 68.2891 29.8047C68.8724 30.5547 69.6615 30.9297 70.6562 30.9297C71.2188 30.9297 71.7109 30.8672 72.1328 30.7422C72.5547 30.6172 72.9036 30.4062 73.1797 30.1094V27.5547H70.5469V26.3359H74.6719V30.5078ZM77.1797 32V20.625H80.8984C82.1328 20.625 83.0599 20.8802 83.6797 21.3906C84.3047 21.901 84.6172 22.6562 84.6172 23.6562C84.6172 24.1875 84.4661 24.6589 84.1641 25.0703C83.862 25.4766 83.4505 25.7917 82.9297 26.0156C83.5443 26.1875 84.0286 26.5156 84.3828 27C84.7422 27.4792 84.9219 28.0521 84.9219 28.7188C84.9219 29.7396 84.5911 30.5417 83.9297 31.125C83.2682 31.7083 82.3333 32 81.125 32H77.1797ZM78.6797 26.6797V30.7734H81.1562C81.8542 30.7734 82.4036 30.5938 82.8047 30.2344C83.2109 29.8698 83.4141 29.3698 83.4141 28.7344C83.4141 27.3646 82.6693 26.6797 81.1797 26.6797H78.6797ZM78.6797 25.4766H80.9453C81.6016 25.4766 82.125 25.3125 82.5156 24.9844C82.9115 24.6562 83.1094 24.2109 83.1094 23.6484C83.1094 23.0234 82.9271 22.5703 82.5625 22.2891C82.1979 22.0026 81.6432 21.8594 80.8984 21.8594H78.6797V25.4766Z" fill="#1A1A1A"/>
<circle cx="106" cy="54" r="3" fill="black" fill-opacity="0.24"/>
<path d="M124.253 48.7578L120.131 58H118.805L122.913 49.0859H117.526V48.0469H124.253V48.7578ZM129.489 58V48.0469H132.299C133.165 48.0469 133.93 48.2383 134.596 48.6211C135.261 49.0039 135.774 49.5485 136.134 50.2549C136.498 50.9613 136.683 51.7725 136.688 52.6885V53.3242C136.688 54.263 136.505 55.0856 136.141 55.792C135.781 56.4984 135.263 57.0407 134.589 57.4189C133.919 57.7972 133.137 57.9909 132.244 58H129.489ZM130.802 49.127V56.9268H132.183C133.194 56.9268 133.98 56.6123 134.541 55.9834C135.106 55.3545 135.389 54.459 135.389 53.2969V52.7158C135.389 51.5856 135.122 50.7083 134.589 50.084C134.06 49.4551 133.308 49.1361 132.333 49.127H130.802ZM143.045 58C142.972 57.8542 142.913 57.5944 142.867 57.2207C142.279 57.8314 141.577 58.1367 140.762 58.1367C140.033 58.1367 139.433 57.9316 138.964 57.5215C138.499 57.1068 138.267 56.5827 138.267 55.9492C138.267 55.179 138.558 54.582 139.142 54.1582C139.729 53.7298 140.554 53.5156 141.616 53.5156H142.847V52.9346C142.847 52.4925 142.715 52.1416 142.45 51.8818C142.186 51.6175 141.796 51.4854 141.281 51.4854C140.83 51.4854 140.452 51.5993 140.146 51.8271C139.841 52.055 139.688 52.3307 139.688 52.6543H138.417C138.417 52.2852 138.547 51.9297 138.807 51.5879C139.071 51.2415 139.426 50.9681 139.873 50.7676C140.324 50.5671 140.819 50.4668 141.356 50.4668C142.209 50.4668 142.876 50.681 143.359 51.1094C143.842 51.5332 144.093 52.1188 144.111 52.8662V56.2705C144.111 56.9495 144.198 57.4896 144.371 57.8906V58H143.045ZM140.946 57.0361C141.343 57.0361 141.719 56.9336 142.074 56.7285C142.43 56.5234 142.687 56.2568 142.847 55.9287V54.4111H141.855C140.306 54.4111 139.531 54.8646 139.531 55.7715C139.531 56.168 139.663 56.4779 139.928 56.7012C140.192 56.9245 140.532 57.0361 140.946 57.0361ZM148.404 56.1475L150.127 50.6035H151.48L148.507 59.1416C148.047 60.3721 147.315 60.9873 146.312 60.9873L146.073 60.9668L145.602 60.8779V59.8525L145.943 59.8799C146.372 59.8799 146.704 59.7933 146.941 59.6201C147.183 59.4469 147.381 59.1302 147.536 58.6699L147.816 57.918L145.178 50.6035H146.559L148.404 56.1475ZM156.922 56.0381C156.922 55.6963 156.792 55.432 156.532 55.2451C156.277 55.0537 155.828 54.8896 155.186 54.7529C154.548 54.6162 154.039 54.4521 153.661 54.2607C153.287 54.0693 153.009 53.8415 152.827 53.5771C152.649 53.3128 152.561 52.9984 152.561 52.6338C152.561 52.0277 152.816 51.515 153.326 51.0957C153.841 50.6764 154.497 50.4668 155.295 50.4668C156.133 50.4668 156.812 50.6833 157.332 51.1162C157.856 51.5492 158.118 52.1029 158.118 52.7773H156.847C156.847 52.431 156.699 52.1325 156.402 51.8818C156.111 51.6312 155.742 51.5059 155.295 51.5059C154.835 51.5059 154.475 51.6061 154.215 51.8066C153.955 52.0072 153.825 52.2692 153.825 52.5928C153.825 52.8981 153.946 53.1283 154.188 53.2832C154.429 53.4382 154.864 53.5863 155.493 53.7275C156.127 53.8688 156.639 54.0374 157.031 54.2334C157.423 54.4294 157.713 54.6663 157.899 54.9443C158.091 55.2178 158.187 55.5527 158.187 55.9492C158.187 56.61 157.922 57.141 157.394 57.542C156.865 57.9385 156.179 58.1367 155.336 58.1367C154.743 58.1367 154.219 58.0319 153.764 57.8223C153.308 57.6126 152.95 57.321 152.69 56.9473C152.435 56.569 152.308 56.1611 152.308 55.7236H153.572C153.595 56.1475 153.764 56.4847 154.078 56.7354C154.397 56.9814 154.816 57.1045 155.336 57.1045C155.814 57.1045 156.197 57.0088 156.484 56.8174C156.776 56.6214 156.922 56.3617 156.922 56.0381Z" fill="#1A1A1A"/>
<path d="M56.9834 58H55.7119V49.5713L53.1621 50.5078V49.3594L56.7852 47.999H56.9834V58ZM66.0273 54.6572H67.4082V55.6895H66.0273V58H64.7559V55.6895H60.2236V54.9443L64.6807 48.0469H66.0273V54.6572ZM61.6592 54.6572H64.7559V49.7764L64.6055 50.0498L61.6592 54.6572ZM69.1309 53.0098L69.6367 48.0469H74.7363V49.2158H70.71L70.4092 51.9297C70.8968 51.6426 71.4505 51.499 72.0703 51.499C72.9772 51.499 73.6973 51.7998 74.2305 52.4014C74.7637 52.9984 75.0303 53.8073 75.0303 54.8281C75.0303 55.8535 74.7523 56.6624 74.1963 57.2549C73.6449 57.8428 72.8724 58.1367 71.8789 58.1367C70.9993 58.1367 70.2816 57.8929 69.7256 57.4053C69.1696 56.9176 68.8529 56.2432 68.7754 55.3818H69.9717C70.0492 55.9515 70.252 56.3822 70.5801 56.6738C70.9082 56.9609 71.3411 57.1045 71.8789 57.1045C72.4668 57.1045 72.9271 56.904 73.2598 56.5029C73.597 56.1019 73.7656 55.5482 73.7656 54.8418C73.7656 54.1764 73.5833 53.6432 73.2188 53.2422C72.8587 52.8366 72.3779 52.6338 71.7764 52.6338C71.2249 52.6338 70.792 52.7546 70.4775 52.9961L70.1426 53.2695L69.1309 53.0098ZM86.8154 49.127H83.6162V58H82.3105V49.127H79.1182V48.0469H86.8154V49.127ZM90.1582 54.5752L89.3652 55.4023V58H88.1006V47.5H89.3652V53.8506L90.042 53.0371L92.3457 50.6035H93.8838L91.0059 53.6934L94.2188 58H92.7354L90.1582 54.5752Z" fill="#007AD0"/>
<rect x="52" y="73" width="103" height="18" rx="9" fill="#FDF192"/>
<path d="M83.8438 81.7139H80.7627V84.2334H84.3418V85H79.8252V77.8906H84.293V78.6621H80.7627V80.9473H83.8438V81.7139ZM88.6289 85C88.5768 84.8958 88.5345 84.7103 88.502 84.4434C88.082 84.8796 87.5807 85.0977 86.998 85.0977C86.4772 85.0977 86.0492 84.9512 85.7139 84.6582C85.3818 84.362 85.2158 83.9876 85.2158 83.5352C85.2158 82.985 85.4242 82.5586 85.8408 82.2559C86.2607 81.9499 86.8499 81.7969 87.6084 81.7969H88.4873V81.3818C88.4873 81.0661 88.3929 80.8154 88.2041 80.6299C88.0153 80.4411 87.737 80.3467 87.3691 80.3467C87.0469 80.3467 86.7767 80.4281 86.5586 80.5908C86.3405 80.7536 86.2314 80.9505 86.2314 81.1816H85.3232C85.3232 80.918 85.416 80.6641 85.6016 80.4199C85.7904 80.1725 86.0443 79.9772 86.3633 79.834C86.6855 79.6908 87.0387 79.6191 87.4229 79.6191C88.0316 79.6191 88.5085 79.7721 88.8535 80.0781C89.1986 80.3809 89.3776 80.7992 89.3906 81.333V83.7646C89.3906 84.2497 89.4525 84.6354 89.5762 84.9219V85H88.6289ZM87.1299 84.3115C87.4131 84.3115 87.6816 84.2383 87.9355 84.0918C88.1895 83.9453 88.3734 83.7549 88.4873 83.5205V82.4365H87.7793C86.6725 82.4365 86.1191 82.7604 86.1191 83.4082C86.1191 83.6914 86.2135 83.9128 86.4023 84.0723C86.5911 84.2318 86.8337 84.3115 87.1299 84.3115ZM93.3604 80.5273C93.2236 80.5046 93.0755 80.4932 92.916 80.4932C92.3236 80.4932 91.9215 80.7454 91.71 81.25V85H90.8066V79.7168H91.6855L91.7002 80.3271C91.9964 79.8551 92.4163 79.6191 92.96 79.6191C93.1357 79.6191 93.2692 79.6419 93.3604 79.6875V80.5273ZM95.0498 79.7168L95.0791 80.3809C95.4827 79.873 96.0101 79.6191 96.6611 79.6191C97.7777 79.6191 98.3408 80.249 98.3506 81.5088V85H97.4473V81.5039C97.444 81.123 97.3561 80.8415 97.1836 80.6592C97.0143 80.4769 96.749 80.3857 96.3877 80.3857C96.0947 80.3857 95.8376 80.4639 95.6162 80.6201C95.3949 80.7764 95.2223 80.9814 95.0986 81.2354V85H94.1953V79.7168H95.0498ZM105.069 85H104.161V78.9795L102.34 79.6484V78.8281L104.928 77.8564H105.069V85ZM112.374 85H107.716V84.3506L110.177 81.6162C110.541 81.2028 110.792 80.8675 110.929 80.6104C111.069 80.3499 111.139 80.0814 111.139 79.8047C111.139 79.4336 111.026 79.1292 110.802 78.8916C110.577 78.654 110.278 78.5352 109.903 78.5352C109.454 78.5352 109.104 78.6637 108.854 78.9209C108.606 79.1748 108.482 79.5296 108.482 79.9854H107.579C107.579 79.3311 107.789 78.8021 108.209 78.3984C108.632 77.9948 109.197 77.793 109.903 77.793C110.564 77.793 111.087 77.9671 111.471 78.3154C111.855 78.6605 112.047 79.1211 112.047 79.6973C112.047 80.3971 111.601 81.2305 110.709 82.1973L108.805 84.2627H112.374V85ZM117.921 78.3984L114.977 85H114.029L116.964 78.6328H113.116V77.8906H117.921V78.3984ZM122.599 82.2168V85H121.661V77.8906H124.283C125.061 77.8906 125.67 78.0892 126.109 78.4863C126.552 78.8835 126.773 79.4092 126.773 80.0635C126.773 80.7536 126.557 81.2858 126.124 81.6602C125.694 82.0312 125.077 82.2168 124.273 82.2168H122.599ZM122.599 81.4502H124.283C124.785 81.4502 125.169 81.333 125.436 81.0986C125.702 80.861 125.836 80.5192 125.836 80.0732C125.836 79.6501 125.702 79.3115 125.436 79.0576C125.169 78.8037 124.802 78.6719 124.337 78.6621H122.599V81.4502ZM127.521 82.3096C127.521 81.792 127.621 81.3265 127.823 80.9131C128.028 80.4997 128.312 80.1807 128.673 79.9561C129.037 79.7314 129.452 79.6191 129.918 79.6191C130.637 79.6191 131.218 79.8682 131.661 80.3662C132.107 80.8643 132.33 81.5267 132.33 82.3535V82.417C132.33 82.9313 132.231 83.3936 132.032 83.8037C131.837 84.2106 131.555 84.528 131.188 84.7559C130.823 84.9837 130.403 85.0977 129.928 85.0977C129.212 85.0977 128.631 84.8486 128.185 84.3506C127.742 83.8525 127.521 83.1934 127.521 82.373V82.3096ZM128.429 82.417C128.429 83.0029 128.564 83.4733 128.834 83.8281C129.107 84.1829 129.472 84.3604 129.928 84.3604C130.387 84.3604 130.751 84.1813 131.021 83.8232C131.292 83.4619 131.427 82.9574 131.427 82.3096C131.427 81.7301 131.288 81.2614 131.012 80.9033C130.738 80.542 130.374 80.3613 129.918 80.3613C129.472 80.3613 129.112 80.5387 128.839 80.8936C128.565 81.2484 128.429 81.7562 128.429 82.417ZM134.444 85H133.541V79.7168H134.444V85ZM133.468 78.3154C133.468 78.1689 133.512 78.0452 133.6 77.9443C133.691 77.8434 133.824 77.793 134 77.793C134.176 77.793 134.309 77.8434 134.4 77.9443C134.492 78.0452 134.537 78.1689 134.537 78.3154C134.537 78.4619 134.492 78.584 134.4 78.6816C134.309 78.7793 134.176 78.8281 134 78.8281C133.824 78.8281 133.691 78.7793 133.6 78.6816C133.512 78.584 133.468 78.4619 133.468 78.3154ZM136.749 79.7168L136.778 80.3809C137.182 79.873 137.709 79.6191 138.36 79.6191C139.477 79.6191 140.04 80.249 140.05 81.5088V85H139.146V81.5039C139.143 81.123 139.055 80.8415 138.883 80.6592C138.714 80.4769 138.448 80.3857 138.087 80.3857C137.794 80.3857 137.537 80.4639 137.315 80.6201C137.094 80.7764 136.922 80.9814 136.798 81.2354V85H135.895V79.7168H136.749ZM142.638 78.4375V79.7168H143.624V80.415H142.638V83.6914C142.638 83.903 142.682 84.0625 142.77 84.1699C142.857 84.2741 143.007 84.3262 143.219 84.3262C143.323 84.3262 143.466 84.3066 143.648 84.2676V85C143.411 85.0651 143.18 85.0977 142.955 85.0977C142.551 85.0977 142.247 84.9756 142.042 84.7314C141.837 84.4873 141.734 84.1406 141.734 83.6914V80.415H140.772V79.7168H141.734V78.4375H142.638ZM147.76 83.5986C147.76 83.3545 147.667 83.1657 147.481 83.0322C147.299 82.8955 146.979 82.7783 146.52 82.6807C146.064 82.583 145.701 82.4658 145.431 82.3291C145.164 82.1924 144.965 82.0296 144.835 81.8408C144.708 81.652 144.645 81.4274 144.645 81.167C144.645 80.734 144.827 80.3678 145.191 80.0684C145.559 79.7689 146.028 79.6191 146.598 79.6191C147.197 79.6191 147.682 79.7738 148.053 80.083C148.427 80.3923 148.614 80.7878 148.614 81.2695H147.706C147.706 81.0221 147.6 80.8089 147.389 80.6299C147.18 80.4508 146.917 80.3613 146.598 80.3613C146.269 80.3613 146.012 80.4329 145.826 80.5762C145.641 80.7194 145.548 80.9066 145.548 81.1377C145.548 81.3558 145.634 81.5202 145.807 81.6309C145.979 81.7415 146.29 81.8473 146.739 81.9482C147.192 82.0492 147.558 82.1696 147.838 82.3096C148.118 82.4495 148.325 82.6188 148.458 82.8174C148.595 83.0127 148.663 83.252 148.663 83.5352C148.663 84.0072 148.474 84.3864 148.097 84.6729C147.719 84.9561 147.229 85.0977 146.627 85.0977C146.204 85.0977 145.829 85.0228 145.504 84.873C145.178 84.7233 144.923 84.515 144.737 84.248C144.555 83.9779 144.464 83.6865 144.464 83.374H145.367C145.383 83.6768 145.504 83.9176 145.729 84.0967C145.956 84.2725 146.256 84.3604 146.627 84.3604C146.969 84.3604 147.242 84.292 147.447 84.1553C147.656 84.0153 147.76 83.8298 147.76 83.5986Z" fill="#1A1A1A"/>
<path d="M70.1186 78.5399L69.8686 77.6024C69.6811 76.8524 68.931 76.2899 67.7435 76.1024C66.7435 75.9149 65.4311 75.9774 64.2436 76.3524C61.8061 76.9774 59.6186 78.6649 60.0561 80.2899L60.7436 82.9149C61.0561 83.9774 62.3685 84.6024 64.306 84.5399C64.806 85.9774 67.1811 86.7274 69.2436 86.7274C71.7436 86.7274 74.306 85.7274 74.306 83.9774V81.2899C74.3685 79.6024 72.1811 78.7274 70.1186 78.5399ZM61.3061 79.9149C61.2436 79.6024 61.4936 79.1649 62.0561 78.7274C62.6811 78.2274 63.6186 77.7899 64.5561 77.5399C65.2436 77.3524 65.9311 77.2899 66.5561 77.2899C66.8061 77.2899 67.1186 77.2899 67.3061 77.3524C67.9936 77.4774 68.4936 77.7274 68.5561 77.9774C68.6186 78.2899 68.3686 78.7274 67.8061 79.1649C67.1811 79.6649 66.2436 80.1024 65.3061 80.3524C64.3061 80.6024 63.3686 80.7274 62.4936 80.6024C61.8686 80.4149 61.3686 80.1649 61.3061 79.9149ZM63.2436 83.1649C62.5561 83.0399 62.0561 82.7899 61.9936 82.5399L61.7436 81.7274C62.8061 82.0399 64.2436 81.9774 65.6811 81.6024C67.0561 81.2274 68.3686 80.5399 69.1186 79.7274L69.3686 80.5399C69.4936 81.1024 68.3061 82.3524 66.0561 82.9774C65.0561 83.1649 64.0561 83.2899 63.2436 83.1649ZM73.1186 83.9149C73.1186 84.4774 71.6185 85.3524 69.306 85.3524C67.556 85.3524 66.1811 84.8524 65.6811 84.2899C65.9311 84.2274 66.1186 84.1649 66.3686 84.1649C66.7436 84.0399 67.0561 83.9149 67.4936 83.7899C68.1186 83.9149 68.7435 83.9774 69.306 83.9774C70.7435 83.9774 72.1811 83.6649 73.1186 83.1024V83.9149ZM69.3686 82.6649C70.3686 81.8524 70.806 80.9774 70.556 80.1649L70.4936 79.7899C72.0561 80.0399 73.1186 80.6649 73.1186 81.1649C73.1186 81.7899 71.6186 82.6649 69.3686 82.6649Z" fill="black" fill-opacity="0.56"/>
<rect x="172" y="73" width="103" height="18" rx="9" fill="#FDF192"/>
<path d="M191.271 81.1865H193.254V82.041H191.271V84.2871H190.363V82.041H188.381V81.1865H190.363V79.1113H191.271V81.1865ZM200.29 77.8857V78.6523H200.124C199.421 78.6654 198.861 78.8737 198.444 79.2773C198.028 79.681 197.787 80.249 197.722 80.9814C198.096 80.5518 198.607 80.3369 199.255 80.3369C199.873 80.3369 200.367 80.555 200.734 80.9912C201.105 81.4274 201.291 81.9906 201.291 82.6807C201.291 83.4131 201.091 83.999 200.69 84.4385C200.293 84.8779 199.759 85.0977 199.089 85.0977C198.409 85.0977 197.857 84.8372 197.434 84.3164C197.01 83.7923 196.799 83.1185 196.799 82.2949V81.9482C196.799 80.6396 197.077 79.6403 197.634 78.9502C198.194 78.2568 199.025 77.902 200.129 77.8857H200.29ZM199.104 81.0889C198.794 81.0889 198.509 81.1816 198.249 81.3672C197.989 81.5527 197.808 81.7855 197.707 82.0654V82.3975C197.707 82.9834 197.839 83.4554 198.103 83.8135C198.366 84.1715 198.695 84.3506 199.089 84.3506C199.496 84.3506 199.815 84.2008 200.046 83.9014C200.28 83.6019 200.397 83.2096 200.397 82.7246C200.397 82.2363 200.279 81.8424 200.041 81.543C199.807 81.2402 199.494 81.0889 199.104 81.0889ZM205.329 85H204.421V78.9795L202.6 79.6484V78.8281L205.188 77.8564H205.329V85ZM208.391 81.4355L208.752 77.8906H212.395V78.7256H209.519L209.304 80.6641C209.652 80.459 210.048 80.3564 210.49 80.3564C211.138 80.3564 211.652 80.5713 212.033 81.001C212.414 81.4274 212.604 82.0052 212.604 82.7344C212.604 83.4668 212.406 84.0446 212.009 84.4678C211.615 84.8877 211.063 85.0977 210.354 85.0977C209.725 85.0977 209.213 84.9235 208.815 84.5752C208.418 84.2269 208.192 83.7451 208.137 83.1299H208.991C209.047 83.5368 209.191 83.8444 209.426 84.0527C209.66 84.2578 209.969 84.3604 210.354 84.3604C210.773 84.3604 211.102 84.2171 211.34 83.9307C211.581 83.6442 211.701 83.2487 211.701 82.7441C211.701 82.2689 211.571 81.888 211.311 81.6016C211.053 81.3118 210.71 81.167 210.28 81.167C209.886 81.167 209.577 81.2533 209.353 81.4258L209.113 81.6211L208.391 81.4355ZM217.517 77.8906L219.841 83.6914L222.165 77.8906H223.381V85H222.443V82.2314L222.531 79.2432L220.197 85H219.479L217.15 79.2578L217.243 82.2314V85H216.306V77.8906H217.517ZM225.036 85V77.8906H227.36C228.132 77.8906 228.711 78.0501 229.099 78.3691C229.489 78.6882 229.685 79.1602 229.685 79.7852C229.685 80.1172 229.59 80.4118 229.401 80.6689C229.213 80.9229 228.955 81.1198 228.63 81.2598C229.014 81.3672 229.317 81.5723 229.538 81.875C229.763 82.1745 229.875 82.5326 229.875 82.9492C229.875 83.5872 229.668 84.0885 229.255 84.4531C228.841 84.8177 228.257 85 227.502 85H225.036ZM225.974 81.6748V84.2334H227.521C227.958 84.2334 228.301 84.1211 228.552 83.8965C228.806 83.6686 228.933 83.3561 228.933 82.959C228.933 82.1029 228.467 81.6748 227.536 81.6748H225.974ZM225.974 80.9229H227.39C227.8 80.9229 228.127 80.8203 228.371 80.6152C228.618 80.4102 228.742 80.1318 228.742 79.7803C228.742 79.3896 228.628 79.1064 228.4 78.9307C228.173 78.7516 227.826 78.6621 227.36 78.6621H225.974V80.9229ZM233.747 85V77.8906H236.071C236.843 77.8906 237.422 78.0501 237.81 78.3691C238.2 78.6882 238.396 79.1602 238.396 79.7852C238.396 80.1172 238.301 80.4118 238.112 80.6689C237.924 80.9229 237.666 81.1198 237.341 81.2598C237.725 81.3672 238.028 81.5723 238.249 81.875C238.474 82.1745 238.586 82.5326 238.586 82.9492C238.586 83.5872 238.379 84.0885 237.966 84.4531C237.552 84.8177 236.968 85 236.213 85H233.747ZM234.685 81.6748V84.2334H236.232C236.669 84.2334 237.012 84.1211 237.263 83.8965C237.517 83.6686 237.644 83.3561 237.644 82.959C237.644 82.1029 237.178 81.6748 236.247 81.6748H234.685ZM234.685 80.9229H236.101C236.511 80.9229 236.838 80.8203 237.082 80.6152C237.329 80.4102 237.453 80.1318 237.453 79.7803C237.453 79.3896 237.339 79.1064 237.111 78.9307C236.883 78.7516 236.537 78.6621 236.071 78.6621H234.685V80.9229ZM239.597 82.3096C239.597 81.792 239.698 81.3265 239.899 80.9131C240.104 80.4997 240.388 80.1807 240.749 79.9561C241.114 79.7314 241.529 79.6191 241.994 79.6191C242.714 79.6191 243.295 79.8682 243.737 80.3662C244.183 80.8643 244.406 81.5267 244.406 82.3535V82.417C244.406 82.9313 244.307 83.3936 244.108 83.8037C243.913 84.2106 243.632 84.528 243.264 84.7559C242.899 84.9837 242.479 85.0977 242.004 85.0977C241.288 85.0977 240.707 84.8486 240.261 84.3506C239.818 83.8525 239.597 83.1934 239.597 82.373V82.3096ZM240.505 82.417C240.505 83.0029 240.64 83.4733 240.91 83.8281C241.184 84.1829 241.548 84.3604 242.004 84.3604C242.463 84.3604 242.827 84.1813 243.098 83.8232C243.368 83.4619 243.503 82.9574 243.503 82.3096C243.503 81.7301 243.365 81.2614 243.088 80.9033C242.814 80.542 242.45 80.3613 241.994 80.3613C241.548 80.3613 241.188 80.5387 240.915 80.8936C240.642 81.2484 240.505 81.7562 240.505 82.417ZM246.394 79.7168L246.423 80.3809C246.826 79.873 247.354 79.6191 248.005 79.6191C249.121 79.6191 249.685 80.249 249.694 81.5088V85H248.791V81.5039C248.788 81.123 248.7 80.8415 248.527 80.6592C248.358 80.4769 248.093 80.3857 247.731 80.3857C247.438 80.3857 247.181 80.4639 246.96 80.6201C246.739 80.7764 246.566 80.9814 246.442 81.2354V85H245.539V79.7168H246.394ZM254.318 84.4775C253.967 84.891 253.451 85.0977 252.771 85.0977C252.207 85.0977 251.778 84.9349 251.481 84.6094C251.188 84.2806 251.04 83.7956 251.037 83.1543V79.7168H251.94V83.1299C251.94 83.9307 252.266 84.3311 252.917 84.3311C253.607 84.3311 254.066 84.0739 254.294 83.5596V79.7168H255.197V85H254.338L254.318 84.4775ZM259.65 83.5986C259.65 83.3545 259.558 83.1657 259.372 83.0322C259.19 82.8955 258.869 82.7783 258.41 82.6807C257.954 82.583 257.591 82.4658 257.321 82.3291C257.054 82.1924 256.856 82.0296 256.726 81.8408C256.599 81.652 256.535 81.4274 256.535 81.167C256.535 80.734 256.717 80.3678 257.082 80.0684C257.45 79.7689 257.919 79.6191 258.488 79.6191C259.087 79.6191 259.572 79.7738 259.943 80.083C260.318 80.3923 260.505 80.7878 260.505 81.2695H259.597C259.597 81.0221 259.491 80.8089 259.279 80.6299C259.071 80.4508 258.807 80.3613 258.488 80.3613C258.16 80.3613 257.902 80.4329 257.717 80.5762C257.531 80.7194 257.438 80.9066 257.438 81.1377C257.438 81.3558 257.525 81.5202 257.697 81.6309C257.87 81.7415 258.181 81.8473 258.63 81.9482C259.082 82.0492 259.449 82.1696 259.729 82.3096C260.008 82.4495 260.215 82.6188 260.349 82.8174C260.485 83.0127 260.554 83.252 260.554 83.5352C260.554 84.0072 260.365 84.3864 259.987 84.6729C259.61 84.9561 259.12 85.0977 258.518 85.0977C258.094 85.0977 257.72 85.0228 257.395 84.873C257.069 84.7233 256.813 84.515 256.628 84.248C256.446 83.9779 256.354 83.6865 256.354 83.374H257.258C257.274 83.6768 257.395 83.9176 257.619 84.0967C257.847 84.2725 258.146 84.3604 258.518 84.3604C258.859 84.3604 259.133 84.292 259.338 84.1553C259.546 84.0153 259.65 83.8298 259.65 83.5986Z" fill="#1A1A1A"/>
<rect x="242" y="33" width="65" height="25" rx="3" fill="#007AD0"/>
<path d="M264.155 50V40.0469H267.409C268.489 40.0469 269.3 40.2702 269.843 40.7168C270.39 41.1634 270.663 41.8242 270.663 42.6992C270.663 43.1641 270.531 43.5765 270.267 43.9365C270.002 44.292 269.642 44.5677 269.187 44.7637C269.724 44.9141 270.148 45.2012 270.458 45.625C270.772 46.0443 270.93 46.5456 270.93 47.1289C270.93 48.0221 270.64 48.724 270.062 49.2344C269.483 49.7448 268.665 50 267.607 50H264.155ZM265.468 45.3447V48.9268H267.635C268.245 48.9268 268.726 48.7695 269.077 48.4551C269.433 48.1361 269.61 47.6986 269.61 47.1426C269.61 45.944 268.959 45.3447 267.655 45.3447H265.468ZM265.468 44.292H267.45C268.024 44.292 268.482 44.1484 268.824 43.8613C269.171 43.5742 269.344 43.1846 269.344 42.6924C269.344 42.1455 269.184 41.749 268.865 41.5029C268.546 41.2523 268.061 41.127 267.409 41.127H265.468V44.292ZM277.246 49.2686C276.754 49.8473 276.032 50.1367 275.079 50.1367C274.291 50.1367 273.689 49.9089 273.274 49.4531C272.864 48.9928 272.657 48.3138 272.652 47.416V42.6035H273.917V47.3818C273.917 48.5029 274.373 49.0635 275.284 49.0635C276.25 49.0635 276.893 48.7035 277.212 47.9834V42.6035H278.477V50H277.273L277.246 49.2686ZM282.824 48.1475L284.547 42.6035H285.9L282.927 51.1416C282.466 52.3721 281.735 52.9873 280.732 52.9873L280.493 52.9668L280.021 52.8779V51.8525L280.363 51.8799C280.792 51.8799 281.124 51.7933 281.361 51.6201C281.603 51.4469 281.801 51.1302 281.956 50.6699L282.236 49.918L279.598 42.6035H280.979L282.824 48.1475Z" fill="white"/>
<path fill-rule="evenodd" clip-rule="evenodd" d="M35.75 29.6667C35.5 30.6667 35.0833 31.6667 34.5 32.5833C35.5833 31.8333 36.4998 30.8333 37.0832 29.6667H35.75ZM23.25 29.6667H24.5832C24.8332 30.6667 25.2498 31.6667 25.8332 32.5833C24.8332 31.9167 23.9166 30.9167 23.25 29.6667ZM24.6666 22.6667C24.9166 21.6667 25.3333 20.6667 25.9166 19.75C24.8333 20.5 23.9165 21.5 23.3332 22.6667H24.6666ZM37.0832 22.6667H35.75C35.5 21.6667 35.0833 20.6667 34.5 19.75C35.5833 20.4167 36.4998 21.4167 37.0832 22.6667ZM37.6667 24.0833H36.0832C36.3332 25.5 36.3332 26.9167 36.0832 28.3333H37.6667C38.0833 26.9167 38.0833 25.4167 37.6667 24.0833ZM30.9166 24.0833H34.5832C34.6665 24.75 34.75 25.5 34.75 26.1667C34.75 26.9167 34.6665 27.5833 34.5832 28.25H30.9166V24.0833ZM30.9166 29.6667V33.8333C32.3333 33.4167 33.5833 31.8333 34.2499 29.6667H30.9166ZM29.5 29.6667V33.8333C28.0833 33.4167 26.8333 31.8333 26.1666 29.6667H29.5ZM29.5 22.6667V18.5C28.0833 18.9167 26.8333 20.5 26.1666 22.5833H29.5V22.6667ZM34.2499 22.6667H30.9166V18.5C32.3333 18.9167 33.5833 20.5 34.2499 22.6667ZM25.75 24.0833C25.6666 24.75 25.5833 25.5 25.5833 26.1667C25.5833 26.9167 25.6666 27.5833 25.75 28.25H29.4165V24H25.75V24.0833ZM22.4166 26.1667C22.4166 25.4167 22.4999 24.75 22.7499 24.0833H24.3333C24.0833 25.5 24.0833 26.9167 24.3333 28.3333H22.7499C22.4999 27.5833 22.4166 26.9167 22.4166 26.1667ZM30.1667 17C25.0833 17 21 21.0833 21 26.1667C21 31.25 25.0833 35.3333 30.1667 35.3333C35.25 35.3333 39.3333 31.25 39.3333 26.1667C39.3333 23.75 38.3332 21.4167 36.6665 19.6667C34.9165 18 32.5833 17 30.1667 17Z" fill="#5770CB"/>
<g filter="url(#filter0_d)">
<rect x="3" y="2" width="328" height="93" rx="3" fill="white"/>
<rect x="3.5" y="2.5" width="327" height="92" rx="2.5" stroke="black" stroke-opacity="0.12"/>
</g>
<path d="M58.6953 32H57.2422V22.3672L54.3281 23.4375V22.125L58.4688 20.5703H58.6953V32ZM70.0625 27.1484C70.0625 28.8411 69.7734 30.099 69.1953 30.9219C68.6172 31.7448 67.7135 32.1562 66.4844 32.1562C65.2708 32.1562 64.3724 31.7552 63.7891 30.9531C63.2057 30.1458 62.9036 28.9427 62.8828 27.3438V25.4141C62.8828 23.7422 63.1719 22.5 63.75 21.6875C64.3281 20.875 65.2344 20.4688 66.4688 20.4688C67.6927 20.4688 68.5938 20.862 69.1719 21.6484C69.75 22.4297 70.0469 23.638 70.0625 25.2734V27.1484ZM68.6172 25.1719C68.6172 23.9479 68.4453 23.0573 68.1016 22.5C67.7578 21.9375 67.2135 21.6562 66.4688 21.6562C65.7292 21.6562 65.1901 21.9349 64.8516 22.4922C64.513 23.0495 64.3385 23.9062 64.3281 25.0625V27.375C64.3281 28.6042 64.5052 29.513 64.8594 30.1016C65.2188 30.6849 65.7604 30.9766 66.4844 30.9766C67.1979 30.9766 67.7266 30.7005 68.0703 30.1484C68.4193 29.5964 68.6016 28.7266 68.6172 27.5391V25.1719ZM84.6562 30.5078C84.2708 31.0599 83.7318 31.474 83.0391 31.75C82.3516 32.0208 81.5495 32.1562 80.6328 32.1562C79.7057 32.1562 78.8828 31.9401 78.1641 31.5078C77.4453 31.0703 76.888 30.4505 76.4922 29.6484C76.1016 28.8464 75.901 27.9167 75.8906 26.8594V25.8672C75.8906 24.1536 76.2891 22.8255 77.0859 21.8828C77.888 20.9401 79.013 20.4688 80.4609 20.4688C81.6484 20.4688 82.6042 20.7734 83.3281 21.3828C84.0521 21.987 84.4948 22.8464 84.6562 23.9609H83.1562C82.875 22.4557 81.9792 21.7031 80.4688 21.7031C79.4635 21.7031 78.7005 22.0573 78.1797 22.7656C77.6641 23.4688 77.4036 24.4896 77.3984 25.8281V26.7578C77.3984 28.0339 77.6901 29.0495 78.2734 29.8047C78.8568 30.5547 79.6458 30.9297 80.6406 30.9297C81.2031 30.9297 81.6953 30.8672 82.1172 30.7422C82.5391 30.6172 82.888 30.4062 83.1641 30.1094V27.5547H80.5312V26.3359H84.6562V30.5078ZM87.1641 32V20.625H90.8828C92.1172 20.625 93.0443 20.8802 93.6641 21.3906C94.2891 21.901 94.6016 22.6562 94.6016 23.6562C94.6016 24.1875 94.4505 24.6589 94.1484 25.0703C93.8464 25.4766 93.4349 25.7917 92.9141 26.0156C93.5286 26.1875 94.013 26.5156 94.3672 27C94.7266 27.4792 94.9062 28.0521 94.9062 28.7188C94.9062 29.7396 94.5755 30.5417 93.9141 31.125C93.2526 31.7083 92.3177 32 91.1094 32H87.1641ZM88.6641 26.6797V30.7734H91.1406C91.8385 30.7734 92.388 30.5938 92.7891 30.2344C93.1953 29.8698 93.3984 29.3698 93.3984 28.7344C93.3984 27.3646 92.6536 26.6797 91.1641 26.6797H88.6641ZM88.6641 25.4766H90.9297C91.5859 25.4766 92.1094 25.3125 92.5 24.9844C92.8958 24.6562 93.0938 24.2109 93.0938 23.6484C93.0938 23.0234 92.9115 22.5703 92.5469 22.2891C92.1823 22.0026 91.6276 21.8594 90.8828 21.8594H88.6641V25.4766Z" fill="#1A1A1A"/>
<rect x="243" y="21" width="65" height="25" rx="3" fill="#007AD0"/>
<rect x="42" y="65" width="103" height="18" rx="9" fill="#FDF192"/>
<path d="M73.8438 73.7139H70.7627V76.2334H74.3418V77H69.8252V69.8906H74.293V70.6621H70.7627V72.9473H73.8438V73.7139ZM78.6289 77C78.5768 76.8958 78.5345 76.7103 78.502 76.4434C78.082 76.8796 77.5807 77.0977 76.998 77.0977C76.4772 77.0977 76.0492 76.9512 75.7139 76.6582C75.3818 76.362 75.2158 75.9876 75.2158 75.5352C75.2158 74.985 75.4242 74.5586 75.8408 74.2559C76.2607 73.9499 76.8499 73.7969 77.6084 73.7969H78.4873V73.3818C78.4873 73.0661 78.3929 72.8154 78.2041 72.6299C78.0153 72.4411 77.737 72.3467 77.3691 72.3467C77.0469 72.3467 76.7767 72.4281 76.5586 72.5908C76.3405 72.7536 76.2314 72.9505 76.2314 73.1816H75.3232C75.3232 72.918 75.416 72.6641 75.6016 72.4199C75.7904 72.1725 76.0443 71.9772 76.3633 71.834C76.6855 71.6908 77.0387 71.6191 77.4229 71.6191C78.0316 71.6191 78.5085 71.7721 78.8535 72.0781C79.1986 72.3809 79.3776 72.7992 79.3906 73.333V75.7646C79.3906 76.2497 79.4525 76.6354 79.5762 76.9219V77H78.6289ZM77.1299 76.3115C77.4131 76.3115 77.6816 76.2383 77.9355 76.0918C78.1895 75.9453 78.3734 75.7549 78.4873 75.5205V74.4365H77.7793C76.6725 74.4365 76.1191 74.7604 76.1191 75.4082C76.1191 75.6914 76.2135 75.9128 76.4023 76.0723C76.5911 76.2318 76.8337 76.3115 77.1299 76.3115ZM83.3604 72.5273C83.2236 72.5046 83.0755 72.4932 82.916 72.4932C82.3236 72.4932 81.9215 72.7454 81.71 73.25V77H80.8066V71.7168H81.6855L81.7002 72.3271C81.9964 71.8551 82.4163 71.6191 82.96 71.6191C83.1357 71.6191 83.2692 71.6419 83.3604 71.6875V72.5273ZM85.0498 71.7168L85.0791 72.3809C85.4827 71.873 86.0101 71.6191 86.6611 71.6191C87.7777 71.6191 88.3408 72.249 88.3506 73.5088V77H87.4473V73.5039C87.444 73.123 87.3561 72.8415 87.1836 72.6592C87.0143 72.4769 86.749 72.3857 86.3877 72.3857C86.0947 72.3857 85.8376 72.4639 85.6162 72.6201C85.3949 72.7764 85.2223 72.9814 85.0986 73.2354V77H84.1953V71.7168H85.0498ZM95.0693 77H94.1611V70.9795L92.3398 71.6484V70.8281L94.9277 69.8564H95.0693V77ZM102.306 70.3984L99.3613 77H98.4141L101.349 70.6328H97.501V69.8906H102.306V70.3984ZM107.789 73.9678C107.789 75.0257 107.608 75.8118 107.247 76.3262C106.886 76.8405 106.321 77.0977 105.553 77.0977C104.794 77.0977 104.233 76.847 103.868 76.3457C103.504 75.8411 103.315 75.0892 103.302 74.0898V72.8838C103.302 71.8389 103.482 71.0625 103.844 70.5547C104.205 70.0469 104.771 69.793 105.543 69.793C106.308 69.793 106.871 70.0387 107.232 70.5303C107.594 71.0186 107.779 71.7738 107.789 72.7959V73.9678ZM106.886 72.7324C106.886 71.9674 106.778 71.4108 106.563 71.0625C106.349 70.7109 106.008 70.5352 105.543 70.5352C105.081 70.5352 104.744 70.7093 104.532 71.0576C104.321 71.4059 104.212 71.9414 104.205 72.6641V74.1094C104.205 74.8776 104.316 75.4456 104.537 75.8135C104.762 76.1781 105.1 76.3604 105.553 76.3604C105.999 76.3604 106.329 76.1878 106.544 75.8428C106.762 75.4977 106.876 74.9541 106.886 74.2119V72.7324ZM112.599 74.2168V77H111.661V69.8906H114.283C115.061 69.8906 115.67 70.0892 116.109 70.4863C116.552 70.8835 116.773 71.4092 116.773 72.0635C116.773 72.7536 116.557 73.2858 116.124 73.6602C115.694 74.0312 115.077 74.2168 114.273 74.2168H112.599ZM112.599 73.4502H114.283C114.785 73.4502 115.169 73.333 115.436 73.0986C115.702 72.861 115.836 72.5192 115.836 72.0732C115.836 71.6501 115.702 71.3115 115.436 71.0576C115.169 70.8037 114.802 70.6719 114.337 70.6621H112.599V73.4502ZM117.521 74.3096C117.521 73.792 117.621 73.3265 117.823 72.9131C118.028 72.4997 118.312 72.1807 118.673 71.9561C119.037 71.7314 119.452 71.6191 119.918 71.6191C120.637 71.6191 121.218 71.8682 121.661 72.3662C122.107 72.8643 122.33 73.5267 122.33 74.3535V74.417C122.33 74.9313 122.231 75.3936 122.032 75.8037C121.837 76.2106 121.555 76.528 121.188 76.7559C120.823 76.9837 120.403 77.0977 119.928 77.0977C119.212 77.0977 118.631 76.8486 118.185 76.3506C117.742 75.8525 117.521 75.1934 117.521 74.373V74.3096ZM118.429 74.417C118.429 75.0029 118.564 75.4733 118.834 75.8281C119.107 76.1829 119.472 76.3604 119.928 76.3604C120.387 76.3604 120.751 76.1813 121.021 75.8232C121.292 75.4619 121.427 74.9574 121.427 74.3096C121.427 73.7301 121.288 73.2614 121.012 72.9033C120.738 72.542 120.374 72.3613 119.918 72.3613C119.472 72.3613 119.112 72.5387 118.839 72.8936C118.565 73.2484 118.429 73.7562 118.429 74.417ZM124.444 77H123.541V71.7168H124.444V77ZM123.468 70.3154C123.468 70.1689 123.512 70.0452 123.6 69.9443C123.691 69.8434 123.824 69.793 124 69.793C124.176 69.793 124.309 69.8434 124.4 69.9443C124.492 70.0452 124.537 70.1689 124.537 70.3154C124.537 70.4619 124.492 70.584 124.4 70.6816C124.309 70.7793 124.176 70.8281 124 70.8281C123.824 70.8281 123.691 70.7793 123.6 70.6816C123.512 70.584 123.468 70.4619 123.468 70.3154ZM126.749 71.7168L126.778 72.3809C127.182 71.873 127.709 71.6191 128.36 71.6191C129.477 71.6191 130.04 72.249 130.05 73.5088V77H129.146V73.5039C129.143 73.123 129.055 72.8415 128.883 72.6592C128.714 72.4769 128.448 72.3857 128.087 72.3857C127.794 72.3857 127.537 72.4639 127.315 72.6201C127.094 72.7764 126.922 72.9814 126.798 73.2354V77H125.895V71.7168H126.749ZM132.638 70.4375V71.7168H133.624V72.415H132.638V75.6914C132.638 75.903 132.682 76.0625 132.77 76.1699C132.857 76.2741 133.007 76.3262 133.219 76.3262C133.323 76.3262 133.466 76.3066 133.648 76.2676V77C133.411 77.0651 133.18 77.0977 132.955 77.0977C132.551 77.0977 132.247 76.9756 132.042 76.7314C131.837 76.4873 131.734 76.1406 131.734 75.6914V72.415H130.772V71.7168H131.734V70.4375H132.638ZM137.76 75.5986C137.76 75.3545 137.667 75.1657 137.481 75.0322C137.299 74.8955 136.979 74.7783 136.52 74.6807C136.064 74.583 135.701 74.4658 135.431 74.3291C135.164 74.1924 134.965 74.0296 134.835 73.8408C134.708 73.652 134.645 73.4274 134.645 73.167C134.645 72.734 134.827 72.3678 135.191 72.0684C135.559 71.7689 136.028 71.6191 136.598 71.6191C137.197 71.6191 137.682 71.7738 138.053 72.083C138.427 72.3923 138.614 72.7878 138.614 73.2695H137.706C137.706 73.0221 137.6 72.8089 137.389 72.6299C137.18 72.4508 136.917 72.3613 136.598 72.3613C136.269 72.3613 136.012 72.4329 135.826 72.5762C135.641 72.7194 135.548 72.9066 135.548 73.1377C135.548 73.3558 135.634 73.5202 135.807 73.6309C135.979 73.7415 136.29 73.8473 136.739 73.9482C137.192 74.0492 137.558 74.1696 137.838 74.3096C138.118 74.4495 138.325 74.6188 138.458 74.8174C138.595 75.0127 138.663 75.252 138.663 75.5352C138.663 76.0072 138.474 76.3864 138.097 76.6729C137.719 76.9561 137.229 77.0977 136.627 77.0977C136.204 77.0977 135.829 77.0228 135.504 76.873C135.178 76.7233 134.923 76.515 134.737 76.248C134.555 75.9779 134.464 75.6865 134.464 75.374H135.367C135.383 75.6768 135.504 75.9176 135.729 76.0967C135.956 76.2725 136.256 76.3604 136.627 76.3604C136.969 76.3604 137.242 76.292 137.447 76.1553C137.656 76.0153 137.76 75.8298 137.76 75.5986Z" fill="#1A1A1A"/>
<path d="M60.1186 70.5399L59.8686 69.6024C59.6811 68.8524 58.931 68.2899 57.7435 68.1024C56.7435 67.9149 55.4311 67.9774 54.2436 68.3524C51.8061 68.9774 49.6186 70.6649 50.0561 72.2899L50.7436 74.9149C51.0561 75.9774 52.3685 76.6024 54.306 76.5399C54.806 77.9774 57.1811 78.7274 59.2436 78.7274C61.7436 78.7274 64.306 77.7274 64.306 75.9774V73.2899C64.3685 71.6024 62.1811 70.7274 60.1186 70.5399ZM51.3061 71.9149C51.2436 71.6024 51.4936 71.1649 52.0561 70.7274C52.6811 70.2274 53.6186 69.7899 54.5561 69.5399C55.2436 69.3524 55.9311 69.2899 56.5561 69.2899C56.8061 69.2899 57.1186 69.2899 57.3061 69.3524C57.9936 69.4774 58.4936 69.7274 58.5561 69.9774C58.6186 70.2899 58.3686 70.7274 57.8061 71.1649C57.1811 71.6649 56.2436 72.1024 55.3061 72.3524C54.3061 72.6024 53.3686 72.7274 52.4936 72.6024C51.8686 72.4149 51.3686 72.1649 51.3061 71.9149ZM53.2436 75.1649C52.5561 75.0399 52.0561 74.7899 51.9936 74.5399L51.7436 73.7274C52.8061 74.0399 54.2436 73.9774 55.6811 73.6024C57.0561 73.2274 58.3686 72.5399 59.1186 71.7274L59.3686 72.5399C59.4936 73.1024 58.3061 74.3524 56.0561 74.9774C55.0561 75.1649 54.0561 75.2899 53.2436 75.1649ZM63.1186 75.9149C63.1186 76.4774 61.6185 77.3524 59.306 77.3524C57.556 77.3524 56.1811 76.8524 55.6811 76.2899C55.9311 76.2274 56.1186 76.1649 56.3686 76.1649C56.7436 76.0399 57.0561 75.9149 57.4936 75.7899C58.1186 75.9149 58.7435 75.9774 59.306 75.9774C60.7435 75.9774 62.1811 75.6649 63.1186 75.1024V75.9149ZM59.3686 74.6649C60.3686 73.8524 60.806 72.9774 60.556 72.1649L60.4936 71.7899C62.0561 72.0399 63.1186 72.6649 63.1186 73.1649C63.1186 73.7899 61.6186 74.6649 59.3686 74.6649Z" fill="black" fill-opacity="0.56"/>
<rect x="155" y="64" width="93" height="18" rx="9" fill="#FDF192"/>
<g filter="url(#filter1_d)">
<path d="M3 6C3 4.34315 4.34315 3 6 3H7V95H6C4.34315 95 3 93.6569 3 92V6Z" fill="#5770CB"/>
</g>
<circle cx="106" cy="49" r="3" fill="black" fill-opacity="0.24"/>
<path d="M124.253 43.7578L120.131 53H118.805L122.913 44.0859H117.526V43.0469H124.253V43.7578ZM129.489 53V43.0469H132.299C133.165 43.0469 133.93 43.2383 134.596 43.6211C135.261 44.0039 135.774 44.5485 136.134 45.2549C136.498 45.9613 136.683 46.7725 136.688 47.6885V48.3242C136.688 49.263 136.505 50.0856 136.141 50.792C135.781 51.4984 135.263 52.0407 134.589 52.4189C133.919 52.7972 133.137 52.9909 132.244 53H129.489ZM130.802 44.127V51.9268H132.183C133.194 51.9268 133.98 51.6123 134.541 50.9834C135.106 50.3545 135.389 49.459 135.389 48.2969V47.7158C135.389 46.5856 135.122 45.7083 134.589 45.084C134.06 44.4551 133.308 44.1361 132.333 44.127H130.802ZM143.045 53C142.972 52.8542 142.913 52.5944 142.867 52.2207C142.279 52.8314 141.577 53.1367 140.762 53.1367C140.033 53.1367 139.433 52.9316 138.964 52.5215C138.499 52.1068 138.267 51.5827 138.267 50.9492C138.267 50.179 138.558 49.582 139.142 49.1582C139.729 48.7298 140.554 48.5156 141.616 48.5156H142.847V47.9346C142.847 47.4925 142.715 47.1416 142.45 46.8818C142.186 46.6175 141.796 46.4854 141.281 46.4854C140.83 46.4854 140.452 46.5993 140.146 46.8271C139.841 47.055 139.688 47.3307 139.688 47.6543H138.417C138.417 47.2852 138.547 46.9297 138.807 46.5879C139.071 46.2415 139.426 45.9681 139.873 45.7676C140.324 45.5671 140.819 45.4668 141.356 45.4668C142.209 45.4668 142.876 45.681 143.359 46.1094C143.842 46.5332 144.093 47.1188 144.111 47.8662V51.2705C144.111 51.9495 144.198 52.4896 144.371 52.8906V53H143.045ZM140.946 52.0361C141.343 52.0361 141.719 51.9336 142.074 51.7285C142.43 51.5234 142.687 51.2568 142.847 50.9287V49.4111H141.855C140.306 49.4111 139.531 49.8646 139.531 50.7715C139.531 51.168 139.663 51.4779 139.928 51.7012C140.192 51.9245 140.532 52.0361 140.946 52.0361ZM148.404 51.1475L150.127 45.6035H151.48L148.507 54.1416C148.047 55.3721 147.315 55.9873 146.312 55.9873L146.073 55.9668L145.602 55.8779V54.8525L145.943 54.8799C146.372 54.8799 146.704 54.7933 146.941 54.6201C147.183 54.4469 147.381 54.1302 147.536 53.6699L147.816 52.918L145.178 45.6035H146.559L148.404 51.1475ZM156.922 51.0381C156.922 50.6963 156.792 50.432 156.532 50.2451C156.277 50.0537 155.828 49.8896 155.186 49.7529C154.548 49.6162 154.039 49.4521 153.661 49.2607C153.287 49.0693 153.009 48.8415 152.827 48.5771C152.649 48.3128 152.561 47.9984 152.561 47.6338C152.561 47.0277 152.816 46.515 153.326 46.0957C153.841 45.6764 154.497 45.4668 155.295 45.4668C156.133 45.4668 156.812 45.6833 157.332 46.1162C157.856 46.5492 158.118 47.1029 158.118 47.7773H156.847C156.847 47.431 156.699 47.1325 156.402 46.8818C156.111 46.6312 155.742 46.5059 155.295 46.5059C154.835 46.5059 154.475 46.6061 154.215 46.8066C153.955 47.0072 153.825 47.2692 153.825 47.5928C153.825 47.8981 153.946 48.1283 154.188 48.2832C154.429 48.4382 154.864 48.5863 155.493 48.7275C156.127 48.8688 156.639 49.0374 157.031 49.2334C157.423 49.4294 157.713 49.6663 157.899 49.9443C158.091 50.2178 158.187 50.5527 158.187 50.9492C158.187 51.61 157.922 52.141 157.394 52.542C156.865 52.9385 156.179 53.1367 155.336 53.1367C154.743 53.1367 154.219 53.0319 153.764 52.8223C153.308 52.6126 152.95 52.321 152.69 51.9473C152.435 51.569 152.308 51.1611 152.308 50.7236H153.572C153.595 51.1475 153.764 51.4847 154.078 51.7354C154.397 51.9814 154.816 52.1045 155.336 52.1045C155.814 52.1045 156.197 52.0088 156.484 51.8174C156.776 51.6214 156.922 51.3617 156.922 51.0381Z" fill="#1A1A1A"/>
<path d="M56.9834 53H55.7119V44.5713L53.1621 45.5078V44.3594L56.7852 42.999H56.9834V53ZM65.5352 48.625C65.2708 48.9395 64.9541 49.1924 64.585 49.3838C64.2204 49.5752 63.8193 49.6709 63.3818 49.6709C62.8076 49.6709 62.3063 49.5296 61.8779 49.2471C61.4541 48.9645 61.126 48.568 60.8936 48.0576C60.6611 47.5426 60.5449 46.9753 60.5449 46.3555C60.5449 45.6901 60.6702 45.0908 60.9209 44.5576C61.1761 44.0244 61.5361 43.6165 62.001 43.334C62.4658 43.0514 63.0081 42.9102 63.6279 42.9102C64.6123 42.9102 65.387 43.2793 65.9521 44.0176C66.5218 44.7513 66.8066 45.7539 66.8066 47.0254V47.3945C66.8066 49.3314 66.4238 50.7464 65.6582 51.6396C64.8926 52.5283 63.7373 52.984 62.1924 53.0068H61.9463V51.9404H62.2129C63.2565 51.9222 64.0586 51.651 64.6191 51.127C65.1797 50.5983 65.485 49.7643 65.5352 48.625ZM63.5869 48.625C64.0107 48.625 64.4004 48.4951 64.7559 48.2354C65.1159 47.9756 65.3779 47.6543 65.542 47.2715V46.7656C65.542 45.9362 65.362 45.2617 65.002 44.7422C64.6419 44.2227 64.1862 43.9629 63.6348 43.9629C63.0788 43.9629 62.6322 44.1771 62.2949 44.6055C61.9577 45.0293 61.7891 45.5898 61.7891 46.2871C61.7891 46.9661 61.9508 47.5267 62.2744 47.9688C62.6025 48.4062 63.04 48.625 63.5869 48.625ZM74.5859 45.6445C74.5859 46.1413 74.4538 46.5833 74.1895 46.9707C73.9297 47.3581 73.5765 47.6611 73.1299 47.8799C73.6494 48.1032 74.0596 48.429 74.3604 48.8574C74.6657 49.2858 74.8184 49.7712 74.8184 50.3135C74.8184 51.1748 74.5267 51.8607 73.9434 52.3711C73.3646 52.8815 72.6012 53.1367 71.6533 53.1367C70.6963 53.1367 69.9284 52.8815 69.3496 52.3711C68.7754 51.8561 68.4883 51.1702 68.4883 50.3135C68.4883 49.7757 68.6341 49.2904 68.9258 48.8574C69.222 48.4245 69.6299 48.0964 70.1494 47.873C69.7074 47.6543 69.3587 47.3512 69.1035 46.9639C68.8483 46.5765 68.7207 46.1367 68.7207 45.6445C68.7207 44.806 68.9896 44.1406 69.5273 43.6484C70.0651 43.1562 70.7738 42.9102 71.6533 42.9102C72.5283 42.9102 73.2347 43.1562 73.7725 43.6484C74.3148 44.1406 74.5859 44.806 74.5859 45.6445ZM73.5537 50.2861C73.5537 49.7301 73.376 49.2767 73.0205 48.9258C72.6696 48.5749 72.2093 48.3994 71.6396 48.3994C71.07 48.3994 70.612 48.5726 70.2656 48.9189C69.9238 49.2653 69.7529 49.721 69.7529 50.2861C69.7529 50.8512 69.9193 51.2956 70.252 51.6191C70.5892 51.9427 71.0563 52.1045 71.6533 52.1045C72.2458 52.1045 72.7106 51.9427 73.0479 51.6191C73.3851 51.291 73.5537 50.8467 73.5537 50.2861ZM71.6533 43.9492C71.1566 43.9492 70.7533 44.1042 70.4434 44.4141C70.138 44.7194 69.9854 45.1364 69.9854 45.665C69.9854 46.1709 70.1357 46.5811 70.4365 46.8955C70.7419 47.2054 71.1475 47.3604 71.6533 47.3604C72.1592 47.3604 72.5625 47.2054 72.8633 46.8955C73.1686 46.5811 73.3213 46.1709 73.3213 45.665C73.3213 45.1592 73.1641 44.7467 72.8496 44.4277C72.5352 44.1087 72.1364 43.9492 71.6533 43.9492ZM86.8154 44.127H83.6162V53H82.3105V44.127H79.1182V43.0469H86.8154V44.127ZM90.1582 49.5752L89.3652 50.4023V53H88.1006V42.5H89.3652V48.8506L90.042 48.0371L92.3457 45.6035H93.8838L91.0059 48.6934L94.2188 53H92.7354L90.1582 49.5752Z" fill="#007AD0"/>
<path d="M167.271 73.1865H169.254V74.041H167.271V76.2871H166.363V74.041H164.381V73.1865H166.363V71.1113H167.271V73.1865ZM175.714 77H174.806V70.9795L172.984 71.6484V70.8281L175.572 69.8564H175.714V77ZM186.324 76.0674C186.083 76.4124 185.746 76.6712 185.313 76.8438C184.884 77.013 184.382 77.0977 183.81 77.0977C183.23 77.0977 182.716 76.9626 182.267 76.6924C181.817 76.4189 181.469 76.0316 181.222 75.5303C180.978 75.029 180.852 74.4479 180.846 73.7871V73.167C180.846 72.096 181.095 71.266 181.593 70.6768C182.094 70.0876 182.797 69.793 183.702 69.793C184.444 69.793 185.042 69.9834 185.494 70.3643C185.947 70.7419 186.223 71.279 186.324 71.9756H185.387C185.211 71.0348 184.651 70.5645 183.707 70.5645C183.079 70.5645 182.602 70.7858 182.276 71.2285C181.954 71.668 181.791 72.306 181.788 73.1426V73.7236C181.788 74.5212 181.97 75.1559 182.335 75.6279C182.7 76.0967 183.193 76.3311 183.814 76.3311C184.166 76.3311 184.474 76.292 184.737 76.2139C185.001 76.1357 185.219 76.0039 185.392 75.8184V74.2217H183.746V73.46H186.324V76.0674ZM187.892 77V69.8906H190.216C190.987 69.8906 191.567 70.0501 191.954 70.3691C192.345 70.6882 192.54 71.1602 192.54 71.7852C192.54 72.1172 192.446 72.4118 192.257 72.6689C192.068 72.9229 191.811 73.1198 191.485 73.2598C191.869 73.3672 192.172 73.5723 192.394 73.875C192.618 74.1745 192.73 74.5326 192.73 74.9492C192.73 75.5872 192.524 76.0885 192.11 76.4531C191.697 76.8177 191.113 77 190.357 77H187.892ZM188.829 73.6748V76.2334H190.377C190.813 76.2334 191.157 76.1211 191.407 75.8965C191.661 75.6686 191.788 75.3561 191.788 74.959C191.788 74.1029 191.323 73.6748 190.392 73.6748H188.829ZM188.829 72.9229H190.245C190.655 72.9229 190.982 72.8203 191.227 72.6152C191.474 72.4102 191.598 72.1318 191.598 71.7803C191.598 71.3896 191.484 71.1064 191.256 70.9307C191.028 70.7516 190.681 70.6621 190.216 70.6621H188.829V72.9229ZM196.603 77V69.8906H198.927C199.698 69.8906 200.278 70.0501 200.665 70.3691C201.056 70.6882 201.251 71.1602 201.251 71.7852C201.251 72.1172 201.157 72.4118 200.968 72.6689C200.779 72.9229 200.522 73.1198 200.196 73.2598C200.58 73.3672 200.883 73.5723 201.104 73.875C201.329 74.1745 201.441 74.5326 201.441 74.9492C201.441 75.5872 201.235 76.0885 200.821 76.4531C200.408 76.8177 199.824 77 199.068 77H196.603ZM197.54 73.6748V76.2334H199.088C199.524 76.2334 199.868 76.1211 200.118 75.8965C200.372 75.6686 200.499 75.3561 200.499 74.959C200.499 74.1029 200.034 73.6748 199.103 73.6748H197.54ZM197.54 72.9229H198.956C199.366 72.9229 199.693 72.8203 199.938 72.6152C200.185 72.4102 200.309 72.1318 200.309 71.7803C200.309 71.3896 200.195 71.1064 199.967 70.9307C199.739 70.7516 199.392 70.6621 198.927 70.6621H197.54V72.9229ZM202.452 74.3096C202.452 73.792 202.553 73.3265 202.755 72.9131C202.96 72.4997 203.243 72.1807 203.604 71.9561C203.969 71.7314 204.384 71.6191 204.85 71.6191C205.569 71.6191 206.15 71.8682 206.593 72.3662C207.039 72.8643 207.262 73.5267 207.262 74.3535V74.417C207.262 74.9313 207.162 75.3936 206.964 75.8037C206.769 76.2106 206.487 76.528 206.119 76.7559C205.755 76.9837 205.335 77.0977 204.859 77.0977C204.143 77.0977 203.562 76.8486 203.116 76.3506C202.674 75.8525 202.452 75.1934 202.452 74.373V74.3096ZM203.36 74.417C203.36 75.0029 203.495 75.4733 203.766 75.8281C204.039 76.1829 204.404 76.3604 204.859 76.3604C205.318 76.3604 205.683 76.1813 205.953 75.8232C206.223 75.4619 206.358 74.9574 206.358 74.3096C206.358 73.7301 206.22 73.2614 205.943 72.9033C205.67 72.542 205.305 72.3613 204.85 72.3613C204.404 72.3613 204.044 72.5387 203.771 72.8936C203.497 73.2484 203.36 73.7562 203.36 74.417ZM209.249 71.7168L209.278 72.3809C209.682 71.873 210.209 71.6191 210.86 71.6191C211.977 71.6191 212.54 72.249 212.55 73.5088V77H211.646V73.5039C211.643 73.123 211.555 72.8415 211.383 72.6592C211.214 72.4769 210.948 72.3857 210.587 72.3857C210.294 72.3857 210.037 72.4639 209.815 72.6201C209.594 72.7764 209.422 72.9814 209.298 73.2354V77H208.395V71.7168H209.249ZM217.174 76.4775C216.822 76.891 216.306 77.0977 215.626 77.0977C215.063 77.0977 214.633 76.9349 214.337 76.6094C214.044 76.2806 213.896 75.7956 213.893 75.1543V71.7168H214.796V75.1299C214.796 75.9307 215.121 76.3311 215.772 76.3311C216.463 76.3311 216.922 76.0739 217.149 75.5596V71.7168H218.053V77H217.193L217.174 76.4775ZM222.506 75.5986C222.506 75.3545 222.413 75.1657 222.228 75.0322C222.045 74.8955 221.725 74.7783 221.266 74.6807C220.81 74.583 220.447 74.4658 220.177 74.3291C219.91 74.1924 219.711 74.0296 219.581 73.8408C219.454 73.652 219.391 73.4274 219.391 73.167C219.391 72.734 219.573 72.3678 219.938 72.0684C220.305 71.7689 220.774 71.6191 221.344 71.6191C221.943 71.6191 222.428 71.7738 222.799 72.083C223.173 72.3923 223.36 72.7878 223.36 73.2695H222.452C222.452 73.0221 222.346 72.8089 222.135 72.6299C221.926 72.4508 221.663 72.3613 221.344 72.3613C221.015 72.3613 220.758 72.4329 220.572 72.5762C220.387 72.7194 220.294 72.9066 220.294 73.1377C220.294 73.3558 220.38 73.5202 220.553 73.6309C220.725 73.7415 221.036 73.8473 221.485 73.9482C221.938 74.0492 222.304 74.1696 222.584 74.3096C222.864 74.4495 223.071 74.6188 223.204 74.8174C223.341 75.0127 223.409 75.252 223.409 75.5352C223.409 76.0072 223.22 76.3864 222.843 76.6729C222.465 76.9561 221.975 77.0977 221.373 77.0977C220.95 77.0977 220.576 77.0228 220.25 76.873C219.924 76.7233 219.669 76.515 219.483 76.248C219.301 75.9779 219.21 75.6865 219.21 75.374H220.113C220.13 75.6768 220.25 75.9176 220.475 76.0967C220.702 76.2725 221.002 76.3604 221.373 76.3604C221.715 76.3604 221.988 76.292 222.193 76.1553C222.402 76.0153 222.506 75.8298 222.506 75.5986Z" fill="#1A1A1A"/>
<path d="M265.155 38V28.0469H268.409C269.489 28.0469 270.3 28.2702 270.843 28.7168C271.39 29.1634 271.663 29.8242 271.663 30.6992C271.663 31.1641 271.531 31.5765 271.267 31.9365C271.002 32.292 270.642 32.5677 270.187 32.7637C270.724 32.9141 271.148 33.2012 271.458 33.625C271.772 34.0443 271.93 34.5456 271.93 35.1289C271.93 36.0221 271.64 36.724 271.062 37.2344C270.483 37.7448 269.665 38 268.607 38H265.155ZM266.468 33.3447V36.9268H268.635C269.245 36.9268 269.726 36.7695 270.077 36.4551C270.433 36.1361 270.61 35.6986 270.61 35.1426C270.61 33.944 269.959 33.3447 268.655 33.3447H266.468ZM266.468 32.292H268.45C269.024 32.292 269.482 32.1484 269.824 31.8613C270.171 31.5742 270.344 31.1846 270.344 30.6924C270.344 30.1455 270.184 29.749 269.865 29.5029C269.546 29.2523 269.061 29.127 268.409 29.127H266.468V32.292ZM278.246 37.2686C277.754 37.8473 277.032 38.1367 276.079 38.1367C275.291 38.1367 274.689 37.9089 274.274 37.4531C273.864 36.9928 273.657 36.3138 273.652 35.416V30.6035H274.917V35.3818C274.917 36.5029 275.373 37.0635 276.284 37.0635C277.25 37.0635 277.893 36.7035 278.212 35.9834V30.6035H279.477V38H278.273L278.246 37.2686ZM283.824 36.1475L285.547 30.6035H286.9L283.927 39.1416C283.466 40.3721 282.735 40.9873 281.732 40.9873L281.493 40.9668L281.021 40.8779V39.8525L281.363 39.8799C281.792 39.8799 282.124 39.7933 282.361 39.6201C282.603 39.4469 282.801 39.1302 282.956 38.6699L283.236 37.918L280.598 30.6035H281.979L283.824 36.1475Z" fill="white"/>
<path fill-rule="evenodd" clip-rule="evenodd" d="M35.75 30.6667C35.5 31.6667 35.0833 32.6667 34.5 33.5833C35.5833 32.8333 36.4998 31.8333 37.0832 30.6667H35.75ZM23.25 30.6667H24.5832C24.8332 31.6667 25.2498 32.6667 25.8332 33.5833C24.8332 32.9167 23.9166 31.9167 23.25 30.6667ZM24.6666 23.6667C24.9166 22.6667 25.3333 21.6667 25.9166 20.75C24.8333 21.5 23.9165 22.5 23.3332 23.6667H24.6666ZM37.0832 23.6667H35.75C35.5 22.6667 35.0833 21.6667 34.5 20.75C35.5833 21.4167 36.4998 22.4167 37.0832 23.6667ZM37.6667 25.0833H36.0832C36.3332 26.5 36.3332 27.9167 36.0832 29.3333H37.6667C38.0833 27.9167 38.0833 26.4167 37.6667 25.0833ZM30.9166 25.0833H34.5832C34.6665 25.75 34.75 26.5 34.75 27.1667C34.75 27.9167 34.6665 28.5833 34.5832 29.25H30.9166V25.0833ZM30.9166 30.6667V34.8333C32.3333 34.4167 33.5833 32.8333 34.2499 30.6667H30.9166ZM29.5 30.6667V34.8333C28.0833 34.4167 26.8333 32.8333 26.1666 30.6667H29.5ZM29.5 23.6667V19.5C28.0833 19.9167 26.8333 21.5 26.1666 23.5833H29.5V23.6667ZM34.2499 23.6667H30.9166V19.5C32.3333 19.9167 33.5833 21.5 34.2499 23.6667ZM25.75 25.0833C25.6666 25.75 25.5833 26.5 25.5833 27.1667C25.5833 27.9167 25.6666 28.5833 25.75 29.25H29.4165V25H25.75V25.0833ZM22.4166 27.1667C22.4166 26.4167 22.4999 25.75 22.7499 25.0833H24.3333C24.0833 26.5 24.0833 27.9167 24.3333 29.3333H22.7499C22.4999 28.5833 22.4166 27.9167 22.4166 27.1667ZM30.1667 18C25.0833 18 21 22.0833 21 27.1667C21 32.25 25.0833 36.3333 30.1667 36.3333C35.25 36.3333 39.3333 32.25 39.3333 27.1667C39.3333 24.75 38.3332 22.4167 36.6665 20.6667C34.9165 19 32.5833 18 30.1667 18Z" fill="#5770CB"/>
<defs>
<filter id="filter0_d" x="0" y="0" width="334" height="99" filterUnits="userSpaceOnUse" color-interpolation-filters="sRGB">
<feFlood flood-opacity="0" result="BackgroundImageFix"/>
<feColorMatrix in="SourceAlpha" type="matrix" values="0 0 0 0 0 0 0 0 0 0 0 0 0 0 0 0 0 0 127 0"/>
<feOffset dy="1"/>
<feGaussianBlur stdDeviation="1.5"/>
<feColorMatrix type="matrix" values="0 0 0 0 0 0 0 0 0 0 0 0 0 0 0 0 0 0 0.08 0"/>
<feBlend mode="normal" in2="BackgroundImageFix" result="effect1_dropShadow"/>
<feBlend mode="normal" in="SourceGraphic" in2="effect1_dropShadow" result="shape"/>
</filter>
<filter id="filter1_d" x="0" y="1" width="10" height="98" filterUnits="userSpaceOnUse" color-interpolation-filters="sRGB">
<feFlood flood-opacity="0" result="BackgroundImageFix"/>
<feColorMatrix in="SourceAlpha" type="matrix" values="0 0 0 0 0 0 0 0 0 0 0 0 0 0 0 0 0 0 127 0"/>
<feOffset dy="1"/>
<feGaussianBlur stdDeviation="1.5"/>
<feColorMatrix type="matrix" values="0 0 0 0 0 0 0 0 0 0 0 0 0 0 0 0 0 0 0.08 0"/>
<feBlend mode="normal" in2="BackgroundImageFix" result="effect1_dropShadow"/>
<feBlend mode="normal" in="SourceGraphic" in2="effect1_dropShadow" result="shape"/>
</filter>
</defs>
</svg>
