<svg width="335" height="99" viewBox="0 0 335 99" fill="none" xmlns="http://www.w3.org/2000/svg">
<path d="M59.6172 20.6172V21.8438H59.3516C58.2266 21.8646 57.3307 22.1979 56.6641 22.8438C55.9974 23.4896 55.612 24.3984 55.5078 25.5703C56.1068 24.8828 56.9245 24.5391 57.9609 24.5391C58.9505 24.5391 59.7396 24.888 60.3281 25.5859C60.9219 26.2839 61.2188 27.1849 61.2188 28.2891C61.2188 29.4609 60.8984 30.3984 60.2578 31.1016C59.6224 31.8047 58.7682 32.1562 57.6953 32.1562C56.6068 32.1562 55.724 31.7396 55.0469 30.9062C54.3698 30.0677 54.0312 28.9896 54.0312 27.6719V27.1172C54.0312 25.0234 54.4766 23.4245 55.3672 22.3203C56.263 21.2109 57.5938 20.6432 59.3594 20.6172H59.6172ZM57.7188 25.7422C57.224 25.7422 56.7682 25.8906 56.3516 26.1875C55.9349 26.4844 55.6458 26.8568 55.4844 27.3047V27.8359C55.4844 28.7734 55.6953 29.5286 56.1172 30.1016C56.5391 30.6745 57.0651 30.9609 57.6953 30.9609C58.3464 30.9609 58.8568 30.7214 59.2266 30.2422C59.6016 29.763 59.7891 29.1354 59.7891 28.3594C59.7891 27.5781 59.599 26.9479 59.2188 26.4688C58.8438 25.9844 58.3438 25.7422 57.7188 25.7422ZM75.6719 30.5078C75.2865 31.0599 74.7474 31.474 74.0547 31.75C73.3672 32.0208 72.5651 32.1562 71.6484 32.1562C70.7214 32.1562 69.8984 31.9401 69.1797 31.5078C68.4609 31.0703 67.9036 30.4505 67.5078 29.6484C67.1172 28.8464 66.9167 27.9167 66.9062 26.8594V25.8672C66.9062 24.1536 67.3047 22.8255 68.1016 21.8828C68.9036 20.9401 70.0286 20.4688 71.4766 20.4688C72.6641 20.4688 73.6198 20.7734 74.3438 21.3828C75.0677 21.987 75.5104 22.8464 75.6719 23.9609H74.1719C73.8906 22.4557 72.9948 21.7031 71.4844 21.7031C70.4792 21.7031 69.7161 22.0573 69.1953 22.7656C68.6797 23.4688 68.4193 24.4896 68.4141 25.8281V26.7578C68.4141 28.0339 68.7057 29.0495 69.2891 29.8047C69.8724 30.5547 70.6615 30.9297 71.6562 30.9297C72.2188 30.9297 72.7109 30.8672 73.1328 30.7422C73.5547 30.6172 73.9036 30.4062 74.1797 30.1094V27.5547H71.5469V26.3359H75.6719V30.5078ZM78.1797 32V20.625H81.8984C83.1328 20.625 84.0599 20.8802 84.6797 21.3906C85.3047 21.901 85.6172 22.6562 85.6172 23.6562C85.6172 24.1875 85.4661 24.6589 85.1641 25.0703C84.862 25.4766 84.4505 25.7917 83.9297 26.0156C84.5443 26.1875 85.0286 26.5156 85.3828 27C85.7422 27.4792 85.9219 28.0521 85.9219 28.7188C85.9219 29.7396 85.5911 30.5417 84.9297 31.125C84.2682 31.7083 83.3333 32 82.125 32H78.1797ZM79.6797 26.6797V30.7734H82.1562C82.8542 30.7734 83.4036 30.5938 83.8047 30.2344C84.2109 29.8698 84.4141 29.3698 84.4141 28.7344C84.4141 27.3646 83.6693 26.6797 82.1797 26.6797H79.6797ZM79.6797 25.4766H81.9453C82.6016 25.4766 83.125 25.3125 83.5156 24.9844C83.9115 24.6562 84.1094 24.2109 84.1094 23.6484C84.1094 23.0234 83.9271 22.5703 83.5625 22.2891C83.1979 22.0026 82.6432 21.8594 81.8984 21.8594H79.6797V25.4766Z" fill="#1A1A1A"/>
<circle cx="107" cy="54" r="3" fill="black" fill-opacity="0.24"/>
<path d="M125.253 48.7578L121.131 58H119.805L123.913 49.0859H118.526V48.0469H125.253V48.7578ZM130.489 58V48.0469H133.299C134.165 48.0469 134.93 48.2383 135.596 48.6211C136.261 49.0039 136.774 49.5485 137.134 50.2549C137.498 50.9613 137.683 51.7725 137.688 52.6885V53.3242C137.688 54.263 137.505 55.0856 137.141 55.792C136.781 56.4984 136.263 57.0407 135.589 57.4189C134.919 57.7972 134.137 57.9909 133.244 58H130.489ZM131.802 49.127V56.9268H133.183C134.194 56.9268 134.98 56.6123 135.541 55.9834C136.106 55.3545 136.389 54.459 136.389 53.2969V52.7158C136.389 51.5856 136.122 50.7083 135.589 50.084C135.06 49.4551 134.308 49.1361 133.333 49.127H131.802ZM144.045 58C143.972 57.8542 143.913 57.5944 143.867 57.2207C143.279 57.8314 142.577 58.1367 141.762 58.1367C141.033 58.1367 140.433 57.9316 139.964 57.5215C139.499 57.1068 139.267 56.5827 139.267 55.9492C139.267 55.179 139.558 54.582 140.142 54.1582C140.729 53.7298 141.554 53.5156 142.616 53.5156H143.847V52.9346C143.847 52.4925 143.715 52.1416 143.45 51.8818C143.186 51.6175 142.796 51.4854 142.281 51.4854C141.83 51.4854 141.452 51.5993 141.146 51.8271C140.841 52.055 140.688 52.3307 140.688 52.6543H139.417C139.417 52.2852 139.547 51.9297 139.807 51.5879C140.071 51.2415 140.426 50.9681 140.873 50.7676C141.324 50.5671 141.819 50.4668 142.356 50.4668C143.209 50.4668 143.876 50.681 144.359 51.1094C144.842 51.5332 145.093 52.1188 145.111 52.8662V56.2705C145.111 56.9495 145.198 57.4896 145.371 57.8906V58H144.045ZM141.946 57.0361C142.343 57.0361 142.719 56.9336 143.074 56.7285C143.43 56.5234 143.687 56.2568 143.847 55.9287V54.4111H142.855C141.306 54.4111 140.531 54.8646 140.531 55.7715C140.531 56.168 140.663 56.4779 140.928 56.7012C141.192 56.9245 141.532 57.0361 141.946 57.0361ZM149.404 56.1475L151.127 50.6035H152.48L149.507 59.1416C149.047 60.3721 148.315 60.9873 147.312 60.9873L147.073 60.9668L146.602 60.8779V59.8525L146.943 59.8799C147.372 59.8799 147.704 59.7933 147.941 59.6201C148.183 59.4469 148.381 59.1302 148.536 58.6699L148.816 57.918L146.178 50.6035H147.559L149.404 56.1475ZM157.922 56.0381C157.922 55.6963 157.792 55.432 157.532 55.2451C157.277 55.0537 156.828 54.8896 156.186 54.7529C155.548 54.6162 155.039 54.4521 154.661 54.2607C154.287 54.0693 154.009 53.8415 153.827 53.5771C153.649 53.3128 153.561 52.9984 153.561 52.6338C153.561 52.0277 153.816 51.515 154.326 51.0957C154.841 50.6764 155.497 50.4668 156.295 50.4668C157.133 50.4668 157.812 50.6833 158.332 51.1162C158.856 51.5492 159.118 52.1029 159.118 52.7773H157.847C157.847 52.431 157.699 52.1325 157.402 51.8818C157.111 51.6312 156.742 51.5059 156.295 51.5059C155.835 51.5059 155.475 51.6061 155.215 51.8066C154.955 52.0072 154.825 52.2692 154.825 52.5928C154.825 52.8981 154.946 53.1283 155.188 53.2832C155.429 53.4382 155.864 53.5863 156.493 53.7275C157.127 53.8688 157.639 54.0374 158.031 54.2334C158.423 54.4294 158.713 54.6663 158.899 54.9443C159.091 55.2178 159.187 55.5527 159.187 55.9492C159.187 56.61 158.922 57.141 158.394 57.542C157.865 57.9385 157.179 58.1367 156.336 58.1367C155.743 58.1367 155.219 58.0319 154.764 57.8223C154.308 57.6126 153.95 57.321 153.69 56.9473C153.435 56.569 153.308 56.1611 153.308 55.7236H154.572C154.595 56.1475 154.764 56.4847 155.078 56.7354C155.397 56.9814 155.816 57.1045 156.336 57.1045C156.814 57.1045 157.197 57.0088 157.484 56.8174C157.776 56.6214 157.922 56.3617 157.922 56.0381Z" fill="#1A1A1A"/>
<path d="M57.9834 58H56.7119V49.5713L54.1621 50.5078V49.3594L57.7852 47.999H57.9834V58ZM67.0273 54.6572H68.4082V55.6895H67.0273V58H65.7559V55.6895H61.2236V54.9443L65.6807 48.0469H67.0273V54.6572ZM62.6592 54.6572H65.7559V49.7764L65.6055 50.0498L62.6592 54.6572ZM70.1309 53.0098L70.6367 48.0469H75.7363V49.2158H71.71L71.4092 51.9297C71.8968 51.6426 72.4505 51.499 73.0703 51.499C73.9772 51.499 74.6973 51.7998 75.2305 52.4014C75.7637 52.9984 76.0303 53.8073 76.0303 54.8281C76.0303 55.8535 75.7523 56.6624 75.1963 57.2549C74.6449 57.8428 73.8724 58.1367 72.8789 58.1367C71.9993 58.1367 71.2816 57.8929 70.7256 57.4053C70.1696 56.9176 69.8529 56.2432 69.7754 55.3818H70.9717C71.0492 55.9515 71.252 56.3822 71.5801 56.6738C71.9082 56.9609 72.3411 57.1045 72.8789 57.1045C73.4668 57.1045 73.9271 56.904 74.2598 56.5029C74.597 56.1019 74.7656 55.5482 74.7656 54.8418C74.7656 54.1764 74.5833 53.6432 74.2188 53.2422C73.8587 52.8366 73.3779 52.6338 72.7764 52.6338C72.2249 52.6338 71.792 52.7546 71.4775 52.9961L71.1426 53.2695L70.1309 53.0098ZM87.8154 49.127H84.6162V58H83.3105V49.127H80.1182V48.0469H87.8154V49.127ZM91.1582 54.5752L90.3652 55.4023V58H89.1006V47.5H90.3652V53.8506L91.042 53.0371L93.3457 50.6035H94.8838L92.0059 53.6934L95.2188 58H93.7354L91.1582 54.5752Z" fill="#007AD0"/>
<rect x="53" y="73" width="103" height="18" rx="9" fill="#FDF192"/>
<path d="M84.8438 81.7139H81.7627V84.2334H85.3418V85H80.8252V77.8906H85.293V78.6621H81.7627V80.9473H84.8438V81.7139ZM89.6289 85C89.5768 84.8958 89.5345 84.7103 89.502 84.4434C89.082 84.8796 88.5807 85.0977 87.998 85.0977C87.4772 85.0977 87.0492 84.9512 86.7139 84.6582C86.3818 84.362 86.2158 83.9876 86.2158 83.5352C86.2158 82.985 86.4242 82.5586 86.8408 82.2559C87.2607 81.9499 87.8499 81.7969 88.6084 81.7969H89.4873V81.3818C89.4873 81.0661 89.3929 80.8154 89.2041 80.6299C89.0153 80.4411 88.737 80.3467 88.3691 80.3467C88.0469 80.3467 87.7767 80.4281 87.5586 80.5908C87.3405 80.7536 87.2314 80.9505 87.2314 81.1816H86.3232C86.3232 80.918 86.416 80.6641 86.6016 80.4199C86.7904 80.1725 87.0443 79.9772 87.3633 79.834C87.6855 79.6908 88.0387 79.6191 88.4229 79.6191C89.0316 79.6191 89.5085 79.7721 89.8535 80.0781C90.1986 80.3809 90.3776 80.7992 90.3906 81.333V83.7646C90.3906 84.2497 90.4525 84.6354 90.5762 84.9219V85H89.6289ZM88.1299 84.3115C88.4131 84.3115 88.6816 84.2383 88.9355 84.0918C89.1895 83.9453 89.3734 83.7549 89.4873 83.5205V82.4365H88.7793C87.6725 82.4365 87.1191 82.7604 87.1191 83.4082C87.1191 83.6914 87.2135 83.9128 87.4023 84.0723C87.5911 84.2318 87.8337 84.3115 88.1299 84.3115ZM94.3604 80.5273C94.2236 80.5046 94.0755 80.4932 93.916 80.4932C93.3236 80.4932 92.9215 80.7454 92.71 81.25V85H91.8066V79.7168H92.6855L92.7002 80.3271C92.9964 79.8551 93.4163 79.6191 93.96 79.6191C94.1357 79.6191 94.2692 79.6419 94.3604 79.6875V80.5273ZM96.0498 79.7168L96.0791 80.3809C96.4827 79.873 97.0101 79.6191 97.6611 79.6191C98.7777 79.6191 99.3408 80.249 99.3506 81.5088V85H98.4473V81.5039C98.444 81.123 98.3561 80.8415 98.1836 80.6592C98.0143 80.4769 97.749 80.3857 97.3877 80.3857C97.0947 80.3857 96.8376 80.4639 96.6162 80.6201C96.3949 80.7764 96.2223 80.9814 96.0986 81.2354V85H95.1953V79.7168H96.0498ZM106.069 85H105.161V78.9795L103.34 79.6484V78.8281L105.928 77.8564H106.069V85ZM113.374 85H108.716V84.3506L111.177 81.6162C111.541 81.2028 111.792 80.8675 111.929 80.6104C112.069 80.3499 112.139 80.0814 112.139 79.8047C112.139 79.4336 112.026 79.1292 111.802 78.8916C111.577 78.654 111.278 78.5352 110.903 78.5352C110.454 78.5352 110.104 78.6637 109.854 78.9209C109.606 79.1748 109.482 79.5296 109.482 79.9854H108.579C108.579 79.3311 108.789 78.8021 109.209 78.3984C109.632 77.9948 110.197 77.793 110.903 77.793C111.564 77.793 112.087 77.9671 112.471 78.3154C112.855 78.6605 113.047 79.1211 113.047 79.6973C113.047 80.3971 112.601 81.2305 111.709 82.1973L109.805 84.2627H113.374V85ZM118.921 78.3984L115.977 85H115.029L117.964 78.6328H114.116V77.8906H118.921V78.3984ZM123.599 82.2168V85H122.661V77.8906H125.283C126.061 77.8906 126.67 78.0892 127.109 78.4863C127.552 78.8835 127.773 79.4092 127.773 80.0635C127.773 80.7536 127.557 81.2858 127.124 81.6602C126.694 82.0312 126.077 82.2168 125.273 82.2168H123.599ZM123.599 81.4502H125.283C125.785 81.4502 126.169 81.333 126.436 81.0986C126.702 80.861 126.836 80.5192 126.836 80.0732C126.836 79.6501 126.702 79.3115 126.436 79.0576C126.169 78.8037 125.802 78.6719 125.337 78.6621H123.599V81.4502ZM128.521 82.3096C128.521 81.792 128.621 81.3265 128.823 80.9131C129.028 80.4997 129.312 80.1807 129.673 79.9561C130.037 79.7314 130.452 79.6191 130.918 79.6191C131.637 79.6191 132.218 79.8682 132.661 80.3662C133.107 80.8643 133.33 81.5267 133.33 82.3535V82.417C133.33 82.9313 133.231 83.3936 133.032 83.8037C132.837 84.2106 132.555 84.528 132.188 84.7559C131.823 84.9837 131.403 85.0977 130.928 85.0977C130.212 85.0977 129.631 84.8486 129.185 84.3506C128.742 83.8525 128.521 83.1934 128.521 82.373V82.3096ZM129.429 82.417C129.429 83.0029 129.564 83.4733 129.834 83.8281C130.107 84.1829 130.472 84.3604 130.928 84.3604C131.387 84.3604 131.751 84.1813 132.021 83.8232C132.292 83.4619 132.427 82.9574 132.427 82.3096C132.427 81.7301 132.288 81.2614 132.012 80.9033C131.738 80.542 131.374 80.3613 130.918 80.3613C130.472 80.3613 130.112 80.5387 129.839 80.8936C129.565 81.2484 129.429 81.7562 129.429 82.417ZM135.444 85H134.541V79.7168H135.444V85ZM134.468 78.3154C134.468 78.1689 134.512 78.0452 134.6 77.9443C134.691 77.8434 134.824 77.793 135 77.793C135.176 77.793 135.309 77.8434 135.4 77.9443C135.492 78.0452 135.537 78.1689 135.537 78.3154C135.537 78.4619 135.492 78.584 135.4 78.6816C135.309 78.7793 135.176 78.8281 135 78.8281C134.824 78.8281 134.691 78.7793 134.6 78.6816C134.512 78.584 134.468 78.4619 134.468 78.3154ZM137.749 79.7168L137.778 80.3809C138.182 79.873 138.709 79.6191 139.36 79.6191C140.477 79.6191 141.04 80.249 141.05 81.5088V85H140.146V81.5039C140.143 81.123 140.055 80.8415 139.883 80.6592C139.714 80.4769 139.448 80.3857 139.087 80.3857C138.794 80.3857 138.537 80.4639 138.315 80.6201C138.094 80.7764 137.922 80.9814 137.798 81.2354V85H136.895V79.7168H137.749ZM143.638 78.4375V79.7168H144.624V80.415H143.638V83.6914C143.638 83.903 143.682 84.0625 143.77 84.1699C143.857 84.2741 144.007 84.3262 144.219 84.3262C144.323 84.3262 144.466 84.3066 144.648 84.2676V85C144.411 85.0651 144.18 85.0977 143.955 85.0977C143.551 85.0977 143.247 84.9756 143.042 84.7314C142.837 84.4873 142.734 84.1406 142.734 83.6914V80.415H141.772V79.7168H142.734V78.4375H143.638ZM148.76 83.5986C148.76 83.3545 148.667 83.1657 148.481 83.0322C148.299 82.8955 147.979 82.7783 147.52 82.6807C147.064 82.583 146.701 82.4658 146.431 82.3291C146.164 82.1924 145.965 82.0296 145.835 81.8408C145.708 81.652 145.645 81.4274 145.645 81.167C145.645 80.734 145.827 80.3678 146.191 80.0684C146.559 79.7689 147.028 79.6191 147.598 79.6191C148.197 79.6191 148.682 79.7738 149.053 80.083C149.427 80.3923 149.614 80.7878 149.614 81.2695H148.706C148.706 81.0221 148.6 80.8089 148.389 80.6299C148.18 80.4508 147.917 80.3613 147.598 80.3613C147.269 80.3613 147.012 80.4329 146.826 80.5762C146.641 80.7194 146.548 80.9066 146.548 81.1377C146.548 81.3558 146.634 81.5202 146.807 81.6309C146.979 81.7415 147.29 81.8473 147.739 81.9482C148.192 82.0492 148.558 82.1696 148.838 82.3096C149.118 82.4495 149.325 82.6188 149.458 82.8174C149.595 83.0127 149.663 83.252 149.663 83.5352C149.663 84.0072 149.474 84.3864 149.097 84.6729C148.719 84.9561 148.229 85.0977 147.627 85.0977C147.204 85.0977 146.829 85.0228 146.504 84.873C146.178 84.7233 145.923 84.515 145.737 84.248C145.555 83.9779 145.464 83.6865 145.464 83.374H146.367C146.383 83.6768 146.504 83.9176 146.729 84.0967C146.956 84.2725 147.256 84.3604 147.627 84.3604C147.969 84.3604 148.242 84.292 148.447 84.1553C148.656 84.0153 148.76 83.8298 148.76 83.5986Z" fill="#1A1A1A"/>
<path d="M71.1186 78.5399L70.8686 77.6024C70.6811 76.8524 69.931 76.2899 68.7435 76.1024C67.7435 75.9149 66.4311 75.9774 65.2436 76.3524C62.8061 76.9774 60.6186 78.6649 61.0561 80.2899L61.7436 82.9149C62.0561 83.9774 63.3685 84.6024 65.306 84.5399C65.806 85.9774 68.1811 86.7274 70.2436 86.7274C72.7436 86.7274 75.306 85.7274 75.306 83.9774V81.2899C75.3685 79.6024 73.1811 78.7274 71.1186 78.5399ZM62.3061 79.9149C62.2436 79.6024 62.4936 79.1649 63.0561 78.7274C63.6811 78.2274 64.6186 77.7899 65.5561 77.5399C66.2436 77.3524 66.9311 77.2899 67.5561 77.2899C67.8061 77.2899 68.1186 77.2899 68.3061 77.3524C68.9936 77.4774 69.4936 77.7274 69.5561 77.9774C69.6186 78.2899 69.3686 78.7274 68.8061 79.1649C68.1811 79.6649 67.2436 80.1024 66.3061 80.3524C65.3061 80.6024 64.3686 80.7274 63.4936 80.6024C62.8686 80.4149 62.3686 80.1649 62.3061 79.9149ZM64.2436 83.1649C63.5561 83.0399 63.0561 82.7899 62.9936 82.5399L62.7436 81.7274C63.8061 82.0399 65.2436 81.9774 66.6811 81.6024C68.0561 81.2274 69.3686 80.5399 70.1186 79.7274L70.3686 80.5399C70.4936 81.1024 69.3061 82.3524 67.0561 82.9774C66.0561 83.1649 65.0561 83.2899 64.2436 83.1649ZM74.1186 83.9149C74.1186 84.4774 72.6185 85.3524 70.306 85.3524C68.556 85.3524 67.1811 84.8524 66.6811 84.2899C66.9311 84.2274 67.1186 84.1649 67.3686 84.1649C67.7436 84.0399 68.0561 83.9149 68.4936 83.7899C69.1186 83.9149 69.7435 83.9774 70.306 83.9774C71.7435 83.9774 73.1811 83.6649 74.1186 83.1024V83.9149ZM70.3686 82.6649C71.3686 81.8524 71.806 80.9774 71.556 80.1649L71.4936 79.7899C73.0561 80.0399 74.1186 80.6649 74.1186 81.1649C74.1186 81.7899 72.6186 82.6649 70.3686 82.6649Z" fill="black" fill-opacity="0.56"/>
<rect x="173" y="73" width="103" height="18" rx="9" fill="#FDF192"/>
<path d="M192.271 81.1865H194.254V82.041H192.271V84.2871H191.363V82.041H189.381V81.1865H191.363V79.1113H192.271V81.1865ZM201.29 77.8857V78.6523H201.124C200.421 78.6654 199.861 78.8737 199.444 79.2773C199.028 79.681 198.787 80.249 198.722 80.9814C199.096 80.5518 199.607 80.3369 200.255 80.3369C200.873 80.3369 201.367 80.555 201.734 80.9912C202.105 81.4274 202.291 81.9906 202.291 82.6807C202.291 83.4131 202.091 83.999 201.69 84.4385C201.293 84.8779 200.759 85.0977 200.089 85.0977C199.409 85.0977 198.857 84.8372 198.434 84.3164C198.01 83.7923 197.799 83.1185 197.799 82.2949V81.9482C197.799 80.6396 198.077 79.6403 198.634 78.9502C199.194 78.2568 200.025 77.902 201.129 77.8857H201.29ZM200.104 81.0889C199.794 81.0889 199.509 81.1816 199.249 81.3672C198.989 81.5527 198.808 81.7855 198.707 82.0654V82.3975C198.707 82.9834 198.839 83.4554 199.103 83.8135C199.366 84.1715 199.695 84.3506 200.089 84.3506C200.496 84.3506 200.815 84.2008 201.046 83.9014C201.28 83.6019 201.397 83.2096 201.397 82.7246C201.397 82.2363 201.279 81.8424 201.041 81.543C200.807 81.2402 200.494 81.0889 200.104 81.0889ZM206.329 85H205.421V78.9795L203.6 79.6484V78.8281L206.188 77.8564H206.329V85ZM209.391 81.4355L209.752 77.8906H213.395V78.7256H210.519L210.304 80.6641C210.652 80.459 211.048 80.3564 211.49 80.3564C212.138 80.3564 212.652 80.5713 213.033 81.001C213.414 81.4274 213.604 82.0052 213.604 82.7344C213.604 83.4668 213.406 84.0446 213.009 84.4678C212.615 84.8877 212.063 85.0977 211.354 85.0977C210.725 85.0977 210.213 84.9235 209.815 84.5752C209.418 84.2269 209.192 83.7451 209.137 83.1299H209.991C210.047 83.5368 210.191 83.8444 210.426 84.0527C210.66 84.2578 210.969 84.3604 211.354 84.3604C211.773 84.3604 212.102 84.2171 212.34 83.9307C212.581 83.6442 212.701 83.2487 212.701 82.7441C212.701 82.2689 212.571 81.888 212.311 81.6016C212.053 81.3118 211.71 81.167 211.28 81.167C210.886 81.167 210.577 81.2533 210.353 81.4258L210.113 81.6211L209.391 81.4355ZM218.517 77.8906L220.841 83.6914L223.165 77.8906H224.381V85H223.443V82.2314L223.531 79.2432L221.197 85H220.479L218.15 79.2578L218.243 82.2314V85H217.306V77.8906H218.517ZM226.036 85V77.8906H228.36C229.132 77.8906 229.711 78.0501 230.099 78.3691C230.489 78.6882 230.685 79.1602 230.685 79.7852C230.685 80.1172 230.59 80.4118 230.401 80.6689C230.213 80.9229 229.955 81.1198 229.63 81.2598C230.014 81.3672 230.317 81.5723 230.538 81.875C230.763 82.1745 230.875 82.5326 230.875 82.9492C230.875 83.5872 230.668 84.0885 230.255 84.4531C229.841 84.8177 229.257 85 228.502 85H226.036ZM226.974 81.6748V84.2334H228.521C228.958 84.2334 229.301 84.1211 229.552 83.8965C229.806 83.6686 229.933 83.3561 229.933 82.959C229.933 82.1029 229.467 81.6748 228.536 81.6748H226.974ZM226.974 80.9229H228.39C228.8 80.9229 229.127 80.8203 229.371 80.6152C229.618 80.4102 229.742 80.1318 229.742 79.7803C229.742 79.3896 229.628 79.1064 229.4 78.9307C229.173 78.7516 228.826 78.6621 228.36 78.6621H226.974V80.9229ZM234.747 85V77.8906H237.071C237.843 77.8906 238.422 78.0501 238.81 78.3691C239.2 78.6882 239.396 79.1602 239.396 79.7852C239.396 80.1172 239.301 80.4118 239.112 80.6689C238.924 80.9229 238.666 81.1198 238.341 81.2598C238.725 81.3672 239.028 81.5723 239.249 81.875C239.474 82.1745 239.586 82.5326 239.586 82.9492C239.586 83.5872 239.379 84.0885 238.966 84.4531C238.552 84.8177 237.968 85 237.213 85H234.747ZM235.685 81.6748V84.2334H237.232C237.669 84.2334 238.012 84.1211 238.263 83.8965C238.517 83.6686 238.644 83.3561 238.644 82.959C238.644 82.1029 238.178 81.6748 237.247 81.6748H235.685ZM235.685 80.9229H237.101C237.511 80.9229 237.838 80.8203 238.082 80.6152C238.329 80.4102 238.453 80.1318 238.453 79.7803C238.453 79.3896 238.339 79.1064 238.111 78.9307C237.883 78.7516 237.537 78.6621 237.071 78.6621H235.685V80.9229ZM240.597 82.3096C240.597 81.792 240.698 81.3265 240.899 80.9131C241.104 80.4997 241.388 80.1807 241.749 79.9561C242.114 79.7314 242.529 79.6191 242.994 79.6191C243.714 79.6191 244.295 79.8682 244.737 80.3662C245.183 80.8643 245.406 81.5267 245.406 82.3535V82.417C245.406 82.9313 245.307 83.3936 245.108 83.8037C244.913 84.2106 244.632 84.528 244.264 84.7559C243.899 84.9837 243.479 85.0977 243.004 85.0977C242.288 85.0977 241.707 84.8486 241.261 84.3506C240.818 83.8525 240.597 83.1934 240.597 82.373V82.3096ZM241.505 82.417C241.505 83.0029 241.64 83.4733 241.91 83.8281C242.184 84.1829 242.548 84.3604 243.004 84.3604C243.463 84.3604 243.827 84.1813 244.098 83.8232C244.368 83.4619 244.503 82.9574 244.503 82.3096C244.503 81.7301 244.365 81.2614 244.088 80.9033C243.814 80.542 243.45 80.3613 242.994 80.3613C242.548 80.3613 242.188 80.5387 241.915 80.8936C241.642 81.2484 241.505 81.7562 241.505 82.417ZM247.394 79.7168L247.423 80.3809C247.826 79.873 248.354 79.6191 249.005 79.6191C250.121 79.6191 250.685 80.249 250.694 81.5088V85H249.791V81.5039C249.788 81.123 249.7 80.8415 249.527 80.6592C249.358 80.4769 249.093 80.3857 248.731 80.3857C248.438 80.3857 248.181 80.4639 247.96 80.6201C247.739 80.7764 247.566 80.9814 247.442 81.2354V85H246.539V79.7168H247.394ZM255.318 84.4775C254.967 84.891 254.451 85.0977 253.771 85.0977C253.207 85.0977 252.778 84.9349 252.481 84.6094C252.188 84.2806 252.04 83.7956 252.037 83.1543V79.7168H252.94V83.1299C252.94 83.9307 253.266 84.3311 253.917 84.3311C254.607 84.3311 255.066 84.0739 255.294 83.5596V79.7168H256.197V85H255.338L255.318 84.4775ZM260.65 83.5986C260.65 83.3545 260.558 83.1657 260.372 83.0322C260.19 82.8955 259.869 82.7783 259.41 82.6807C258.954 82.583 258.591 82.4658 258.321 82.3291C258.054 82.1924 257.856 82.0296 257.726 81.8408C257.599 81.652 257.535 81.4274 257.535 81.167C257.535 80.734 257.717 80.3678 258.082 80.0684C258.45 79.7689 258.919 79.6191 259.488 79.6191C260.087 79.6191 260.572 79.7738 260.943 80.083C261.318 80.3923 261.505 80.7878 261.505 81.2695H260.597C260.597 81.0221 260.491 80.8089 260.279 80.6299C260.071 80.4508 259.807 80.3613 259.488 80.3613C259.16 80.3613 258.902 80.4329 258.717 80.5762C258.531 80.7194 258.438 80.9066 258.438 81.1377C258.438 81.3558 258.525 81.5202 258.697 81.6309C258.87 81.7415 259.181 81.8473 259.63 81.9482C260.082 82.0492 260.449 82.1696 260.729 82.3096C261.008 82.4495 261.215 82.6188 261.349 82.8174C261.485 83.0127 261.554 83.252 261.554 83.5352C261.554 84.0072 261.365 84.3864 260.987 84.6729C260.61 84.9561 260.12 85.0977 259.518 85.0977C259.094 85.0977 258.72 85.0228 258.395 84.873C258.069 84.7233 257.813 84.515 257.628 84.248C257.446 83.9779 257.354 83.6865 257.354 83.374H258.258C258.274 83.6768 258.395 83.9176 258.619 84.0967C258.847 84.2725 259.146 84.3604 259.518 84.3604C259.859 84.3604 260.133 84.292 260.338 84.1553C260.546 84.0153 260.65 83.8298 260.65 83.5986Z" fill="#1A1A1A"/>
<rect x="243" y="33" width="65" height="25" rx="3" fill="#007AD0"/>
<path d="M265.155 50V40.0469H268.409C269.489 40.0469 270.3 40.2702 270.843 40.7168C271.39 41.1634 271.663 41.8242 271.663 42.6992C271.663 43.1641 271.531 43.5765 271.267 43.9365C271.002 44.292 270.642 44.5677 270.187 44.7637C270.724 44.9141 271.148 45.2012 271.458 45.625C271.772 46.0443 271.93 46.5456 271.93 47.1289C271.93 48.0221 271.64 48.724 271.062 49.2344C270.483 49.7448 269.665 50 268.607 50H265.155ZM266.468 45.3447V48.9268H268.635C269.245 48.9268 269.726 48.7695 270.077 48.4551C270.433 48.1361 270.61 47.6986 270.61 47.1426C270.61 45.944 269.959 45.3447 268.655 45.3447H266.468ZM266.468 44.292H268.45C269.024 44.292 269.482 44.1484 269.824 43.8613C270.171 43.5742 270.344 43.1846 270.344 42.6924C270.344 42.1455 270.184 41.749 269.865 41.5029C269.546 41.2523 269.061 41.127 268.409 41.127H266.468V44.292ZM278.246 49.2686C277.754 49.8473 277.032 50.1367 276.079 50.1367C275.291 50.1367 274.689 49.9089 274.274 49.4531C273.864 48.9928 273.657 48.3138 273.652 47.416V42.6035H274.917V47.3818C274.917 48.5029 275.373 49.0635 276.284 49.0635C277.25 49.0635 277.893 48.7035 278.212 47.9834V42.6035H279.477V50H278.273L278.246 49.2686ZM283.824 48.1475L285.547 42.6035H286.9L283.927 51.1416C283.466 52.3721 282.735 52.9873 281.732 52.9873L281.493 52.9668L281.021 52.8779V51.8525L281.363 51.8799C281.792 51.8799 282.124 51.7933 282.361 51.6201C282.603 51.4469 282.801 51.1302 282.956 50.6699L283.236 49.918L280.598 42.6035H281.979L283.824 48.1475Z" fill="white"/>
<path fill-rule="evenodd" clip-rule="evenodd" d="M36.75 29.6667C36.5 30.6667 36.0833 31.6667 35.5 32.5833C36.5833 31.8333 37.4998 30.8333 38.0832 29.6667H36.75ZM24.25 29.6667H25.5832C25.8332 30.6667 26.2498 31.6667 26.8332 32.5833C25.8332 31.9167 24.9166 30.9167 24.25 29.6667ZM25.6666 22.6667C25.9166 21.6667 26.3333 20.6667 26.9166 19.75C25.8333 20.5 24.9165 21.5 24.3332 22.6667H25.6666ZM38.0832 22.6667H36.75C36.5 21.6667 36.0833 20.6667 35.5 19.75C36.5833 20.4167 37.4998 21.4167 38.0832 22.6667ZM38.6667 24.0833H37.0832C37.3332 25.5 37.3332 26.9167 37.0832 28.3333H38.6667C39.0833 26.9167 39.0833 25.4167 38.6667 24.0833ZM31.9166 24.0833H35.5832C35.6665 24.75 35.75 25.5 35.75 26.1667C35.75 26.9167 35.6665 27.5833 35.5832 28.25H31.9166V24.0833ZM31.9166 29.6667V33.8333C33.3333 33.4167 34.5833 31.8333 35.2499 29.6667H31.9166ZM30.5 29.6667V33.8333C29.0833 33.4167 27.8333 31.8333 27.1666 29.6667H30.5ZM30.5 22.6667V18.5C29.0833 18.9167 27.8333 20.5 27.1666 22.5833H30.5V22.6667ZM35.2499 22.6667H31.9166V18.5C33.3333 18.9167 34.5833 20.5 35.2499 22.6667ZM26.75 24.0833C26.6666 24.75 26.5833 25.5 26.5833 26.1667C26.5833 26.9167 26.6666 27.5833 26.75 28.25H30.4165V24H26.75V24.0833ZM23.4166 26.1667C23.4166 25.4167 23.4999 24.75 23.7499 24.0833H25.3333C25.0833 25.5 25.0833 26.9167 25.3333 28.3333H23.7499C23.4999 27.5833 23.4166 26.9167 23.4166 26.1667ZM31.1667 17C26.0833 17 22 21.0833 22 26.1667C22 31.25 26.0833 35.3333 31.1667 35.3333C36.25 35.3333 40.3333 31.25 40.3333 26.1667C40.3333 23.75 39.3332 21.4167 37.6665 19.6667C35.9165 18 33.5833 17 31.1667 17Z" fill="#5770CB"/>
<g filter="url(#filter0_d)">
<rect x="4" y="2" width="328" height="93" rx="3" fill="white"/>
<rect x="4.5" y="2.5" width="327" height="92" rx="2.5" stroke="black" stroke-opacity="0.12"/>
</g>
<path d="M59.6953 32H58.2422V22.3672L55.3281 23.4375V22.125L59.4688 20.5703H59.6953V32ZM76.6719 30.5078C76.2865 31.0599 75.7474 31.474 75.0547 31.75C74.3672 32.0208 73.5651 32.1562 72.6484 32.1562C71.7214 32.1562 70.8984 31.9401 70.1797 31.5078C69.4609 31.0703 68.9036 30.4505 68.5078 29.6484C68.1172 28.8464 67.9167 27.9167 67.9062 26.8594V25.8672C67.9062 24.1536 68.3047 22.8255 69.1016 21.8828C69.9036 20.9401 71.0286 20.4688 72.4766 20.4688C73.6641 20.4688 74.6198 20.7734 75.3438 21.3828C76.0677 21.987 76.5104 22.8464 76.6719 23.9609H75.1719C74.8906 22.4557 73.9948 21.7031 72.4844 21.7031C71.4792 21.7031 70.7161 22.0573 70.1953 22.7656C69.6797 23.4688 69.4193 24.4896 69.4141 25.8281V26.7578C69.4141 28.0339 69.7057 29.0495 70.2891 29.8047C70.8724 30.5547 71.6615 30.9297 72.6562 30.9297C73.2188 30.9297 73.7109 30.8672 74.1328 30.7422C74.5547 30.6172 74.9036 30.4062 75.1797 30.1094V27.5547H72.5469V26.3359H76.6719V30.5078ZM79.1797 32V20.625H82.8984C84.1328 20.625 85.0599 20.8802 85.6797 21.3906C86.3047 21.901 86.6172 22.6562 86.6172 23.6562C86.6172 24.1875 86.4661 24.6589 86.1641 25.0703C85.862 25.4766 85.4505 25.7917 84.9297 26.0156C85.5443 26.1875 86.0286 26.5156 86.3828 27C86.7422 27.4792 86.9219 28.0521 86.9219 28.7188C86.9219 29.7396 86.5911 30.5417 85.9297 31.125C85.2682 31.7083 84.3333 32 83.125 32H79.1797ZM80.6797 26.6797V30.7734H83.1562C83.8542 30.7734 84.4036 30.5938 84.8047 30.2344C85.2109 29.8698 85.4141 29.3698 85.4141 28.7344C85.4141 27.3646 84.6693 26.6797 83.1797 26.6797H80.6797ZM80.6797 25.4766H82.9453C83.6016 25.4766 84.125 25.3125 84.5156 24.9844C84.9115 24.6562 85.1094 24.2109 85.1094 23.6484C85.1094 23.0234 84.9271 22.5703 84.5625 22.2891C84.1979 22.0026 83.6432 21.8594 82.8984 21.8594H80.6797V25.4766Z" fill="#1A1A1A"/>
<rect x="244" y="21" width="65" height="25" rx="3" fill="#007AD0"/>
<rect x="43" y="65" width="103" height="18" rx="9" fill="#FDF192"/>
<path d="M74.8438 73.7139H71.7627V76.2334H75.3418V77H70.8252V69.8906H75.293V70.6621H71.7627V72.9473H74.8438V73.7139ZM79.6289 77C79.5768 76.8958 79.5345 76.7103 79.502 76.4434C79.082 76.8796 78.5807 77.0977 77.998 77.0977C77.4772 77.0977 77.0492 76.9512 76.7139 76.6582C76.3818 76.362 76.2158 75.9876 76.2158 75.5352C76.2158 74.985 76.4242 74.5586 76.8408 74.2559C77.2607 73.9499 77.8499 73.7969 78.6084 73.7969H79.4873V73.3818C79.4873 73.0661 79.3929 72.8154 79.2041 72.6299C79.0153 72.4411 78.737 72.3467 78.3691 72.3467C78.0469 72.3467 77.7767 72.4281 77.5586 72.5908C77.3405 72.7536 77.2314 72.9505 77.2314 73.1816H76.3232C76.3232 72.918 76.416 72.6641 76.6016 72.4199C76.7904 72.1725 77.0443 71.9772 77.3633 71.834C77.6855 71.6908 78.0387 71.6191 78.4229 71.6191C79.0316 71.6191 79.5085 71.7721 79.8535 72.0781C80.1986 72.3809 80.3776 72.7992 80.3906 73.333V75.7646C80.3906 76.2497 80.4525 76.6354 80.5762 76.9219V77H79.6289ZM78.1299 76.3115C78.4131 76.3115 78.6816 76.2383 78.9355 76.0918C79.1895 75.9453 79.3734 75.7549 79.4873 75.5205V74.4365H78.7793C77.6725 74.4365 77.1191 74.7604 77.1191 75.4082C77.1191 75.6914 77.2135 75.9128 77.4023 76.0723C77.5911 76.2318 77.8337 76.3115 78.1299 76.3115ZM84.3604 72.5273C84.2236 72.5046 84.0755 72.4932 83.916 72.4932C83.3236 72.4932 82.9215 72.7454 82.71 73.25V77H81.8066V71.7168H82.6855L82.7002 72.3271C82.9964 71.8551 83.4163 71.6191 83.96 71.6191C84.1357 71.6191 84.2692 71.6419 84.3604 71.6875V72.5273ZM86.0498 71.7168L86.0791 72.3809C86.4827 71.873 87.0101 71.6191 87.6611 71.6191C88.7777 71.6191 89.3408 72.249 89.3506 73.5088V77H88.4473V73.5039C88.444 73.123 88.3561 72.8415 88.1836 72.6592C88.0143 72.4769 87.749 72.3857 87.3877 72.3857C87.0947 72.3857 86.8376 72.4639 86.6162 72.6201C86.3949 72.7764 86.2223 72.9814 86.0986 73.2354V77H85.1953V71.7168H86.0498ZM97.6904 70.3984L94.7461 77H93.7988L96.7334 70.6328H92.8857V69.8906H97.6904V70.3984ZM102.261 69.8857V70.6523H102.095C101.392 70.6654 100.832 70.8737 100.415 71.2773C99.9984 71.681 99.7575 72.249 99.6924 72.9814C100.067 72.5518 100.578 72.3369 101.226 72.3369C101.844 72.3369 102.337 72.555 102.705 72.9912C103.076 73.4274 103.262 73.9906 103.262 74.6807C103.262 75.4131 103.062 75.999 102.661 76.4385C102.264 76.8779 101.73 77.0977 101.06 77.0977C100.379 77.0977 99.8275 76.8372 99.4043 76.3164C98.9811 75.7923 98.7695 75.1185 98.7695 74.2949V73.9482C98.7695 72.6396 99.0479 71.6403 99.6045 70.9502C100.164 70.2568 100.996 69.902 102.1 69.8857H102.261ZM101.074 73.0889C100.765 73.0889 100.48 73.1816 100.22 73.3672C99.9593 73.5527 99.7786 73.7855 99.6777 74.0654V74.3975C99.6777 74.9834 99.8096 75.4554 100.073 75.8135C100.337 76.1715 100.666 76.3506 101.06 76.3506C101.466 76.3506 101.785 76.2008 102.017 75.9014C102.251 75.6019 102.368 75.2096 102.368 74.7246C102.368 74.2363 102.249 73.8424 102.012 73.543C101.777 73.2402 101.465 73.0889 101.074 73.0889ZM107.983 74.2168V77H107.046V69.8906H109.668C110.446 69.8906 111.055 70.0892 111.494 70.4863C111.937 70.8835 112.158 71.4092 112.158 72.0635C112.158 72.7536 111.942 73.2858 111.509 73.6602C111.079 74.0312 110.462 74.2168 109.658 74.2168H107.983ZM107.983 73.4502H109.668C110.169 73.4502 110.553 73.333 110.82 73.0986C111.087 72.861 111.221 72.5192 111.221 72.0732C111.221 71.6501 111.087 71.3115 110.82 71.0576C110.553 70.8037 110.187 70.6719 109.722 70.6621H107.983V73.4502ZM112.905 74.3096C112.905 73.792 113.006 73.3265 113.208 72.9131C113.413 72.4997 113.696 72.1807 114.058 71.9561C114.422 71.7314 114.837 71.6191 115.303 71.6191C116.022 71.6191 116.603 71.8682 117.046 72.3662C117.492 72.8643 117.715 73.5267 117.715 74.3535V74.417C117.715 74.9313 117.616 75.3936 117.417 75.8037C117.222 76.2106 116.94 76.528 116.572 76.7559C116.208 76.9837 115.788 77.0977 115.312 77.0977C114.596 77.0977 114.015 76.8486 113.569 76.3506C113.127 75.8525 112.905 75.1934 112.905 74.373V74.3096ZM113.813 74.417C113.813 75.0029 113.949 75.4733 114.219 75.8281C114.492 76.1829 114.857 76.3604 115.312 76.3604C115.771 76.3604 116.136 76.1813 116.406 75.8232C116.676 75.4619 116.812 74.9574 116.812 74.3096C116.812 73.7301 116.673 73.2614 116.396 72.9033C116.123 72.542 115.758 72.3613 115.303 72.3613C114.857 72.3613 114.497 72.5387 114.224 72.8936C113.95 73.2484 113.813 73.7562 113.813 74.417ZM119.829 77H118.926V71.7168H119.829V77ZM118.853 70.3154C118.853 70.1689 118.896 70.0452 118.984 69.9443C119.076 69.8434 119.209 69.793 119.385 69.793C119.561 69.793 119.694 69.8434 119.785 69.9443C119.876 70.0452 119.922 70.1689 119.922 70.3154C119.922 70.4619 119.876 70.584 119.785 70.6816C119.694 70.7793 119.561 70.8281 119.385 70.8281C119.209 70.8281 119.076 70.7793 118.984 70.6816C118.896 70.584 118.853 70.4619 118.853 70.3154ZM122.134 71.7168L122.163 72.3809C122.567 71.873 123.094 71.6191 123.745 71.6191C124.862 71.6191 125.425 72.249 125.435 73.5088V77H124.531V73.5039C124.528 73.123 124.44 72.8415 124.268 72.6592C124.098 72.4769 123.833 72.3857 123.472 72.3857C123.179 72.3857 122.922 72.4639 122.7 72.6201C122.479 72.7764 122.306 72.9814 122.183 73.2354V77H121.279V71.7168H122.134ZM128.022 70.4375V71.7168H129.009V72.415H128.022V75.6914C128.022 75.903 128.066 76.0625 128.154 76.1699C128.242 76.2741 128.392 76.3262 128.604 76.3262C128.708 76.3262 128.851 76.3066 129.033 76.2676V77C128.796 77.0651 128.564 77.0977 128.34 77.0977C127.936 77.0977 127.632 76.9756 127.427 76.7314C127.222 76.4873 127.119 76.1406 127.119 75.6914V72.415H126.157V71.7168H127.119V70.4375H128.022ZM133.145 75.5986C133.145 75.3545 133.052 75.1657 132.866 75.0322C132.684 74.8955 132.363 74.7783 131.904 74.6807C131.449 74.583 131.086 74.4658 130.815 74.3291C130.549 74.1924 130.35 74.0296 130.22 73.8408C130.093 73.652 130.029 73.4274 130.029 73.167C130.029 72.734 130.212 72.3678 130.576 72.0684C130.944 71.7689 131.413 71.6191 131.982 71.6191C132.581 71.6191 133.066 71.7738 133.438 72.083C133.812 72.3923 133.999 72.7878 133.999 73.2695H133.091C133.091 73.0221 132.985 72.8089 132.773 72.6299C132.565 72.4508 132.301 72.3613 131.982 72.3613C131.654 72.3613 131.396 72.4329 131.211 72.5762C131.025 72.7194 130.933 72.9066 130.933 73.1377C130.933 73.3558 131.019 73.5202 131.191 73.6309C131.364 73.7415 131.675 73.8473 132.124 73.9482C132.576 74.0492 132.943 74.1696 133.223 74.3096C133.503 74.4495 133.709 74.6188 133.843 74.8174C133.979 75.0127 134.048 75.252 134.048 75.5352C134.048 76.0072 133.859 76.3864 133.481 76.6729C133.104 76.9561 132.614 77.0977 132.012 77.0977C131.589 77.0977 131.214 77.0228 130.889 76.873C130.563 76.7233 130.308 76.515 130.122 76.248C129.94 75.9779 129.849 75.6865 129.849 75.374H130.752C130.768 75.6768 130.889 75.9176 131.113 76.0967C131.341 76.2725 131.641 76.3604 132.012 76.3604C132.354 76.3604 132.627 76.292 132.832 76.1553C133.04 76.0153 133.145 75.8298 133.145 75.5986Z" fill="#1A1A1A"/>
<path d="M61.1186 70.5399L60.8686 69.6024C60.6811 68.8524 59.931 68.2899 58.7435 68.1024C57.7435 67.9149 56.4311 67.9774 55.2436 68.3524C52.8061 68.9774 50.6186 70.6649 51.0561 72.2899L51.7436 74.9149C52.0561 75.9774 53.3685 76.6024 55.306 76.5399C55.806 77.9774 58.1811 78.7274 60.2436 78.7274C62.7436 78.7274 65.306 77.7274 65.306 75.9774V73.2899C65.3685 71.6024 63.1811 70.7274 61.1186 70.5399ZM52.3061 71.9149C52.2436 71.6024 52.4936 71.1649 53.0561 70.7274C53.6811 70.2274 54.6186 69.7899 55.5561 69.5399C56.2436 69.3524 56.9311 69.2899 57.5561 69.2899C57.8061 69.2899 58.1186 69.2899 58.3061 69.3524C58.9936 69.4774 59.4936 69.7274 59.5561 69.9774C59.6186 70.2899 59.3686 70.7274 58.8061 71.1649C58.1811 71.6649 57.2436 72.1024 56.3061 72.3524C55.3061 72.6024 54.3686 72.7274 53.4936 72.6024C52.8686 72.4149 52.3686 72.1649 52.3061 71.9149ZM54.2436 75.1649C53.5561 75.0399 53.0561 74.7899 52.9936 74.5399L52.7436 73.7274C53.8061 74.0399 55.2436 73.9774 56.6811 73.6024C58.0561 73.2274 59.3686 72.5399 60.1186 71.7274L60.3686 72.5399C60.4936 73.1024 59.3061 74.3524 57.0561 74.9774C56.0561 75.1649 55.0561 75.2899 54.2436 75.1649ZM64.1186 75.9149C64.1186 76.4774 62.6185 77.3524 60.306 77.3524C58.556 77.3524 57.1811 76.8524 56.6811 76.2899C56.9311 76.2274 57.1186 76.1649 57.3686 76.1649C57.7436 76.0399 58.0561 75.9149 58.4936 75.7899C59.1186 75.9149 59.7435 75.9774 60.306 75.9774C61.7435 75.9774 63.1811 75.6649 64.1186 75.1024V75.9149ZM60.3686 74.6649C61.3686 73.8524 61.806 72.9774 61.556 72.1649L61.4936 71.7899C63.0561 72.0399 64.1186 72.6649 64.1186 73.1649C64.1186 73.7899 62.6186 74.6649 60.3686 74.6649Z" fill="black" fill-opacity="0.56"/>
<rect x="156" y="65" width="93" height="18" rx="9" fill="#FDF192"/>
<circle cx="107" cy="49" r="3" fill="black" fill-opacity="0.24"/>
<path d="M125.253 43.7578L121.131 53H119.805L123.913 44.0859H118.526V43.0469H125.253V43.7578ZM130.489 53V43.0469H133.299C134.165 43.0469 134.93 43.2383 135.596 43.6211C136.261 44.0039 136.774 44.5485 137.134 45.2549C137.498 45.9613 137.683 46.7725 137.688 47.6885V48.3242C137.688 49.263 137.505 50.0856 137.141 50.792C136.781 51.4984 136.263 52.0407 135.589 52.4189C134.919 52.7972 134.137 52.9909 133.244 53H130.489ZM131.802 44.127V51.9268H133.183C134.194 51.9268 134.98 51.6123 135.541 50.9834C136.106 50.3545 136.389 49.459 136.389 48.2969V47.7158C136.389 46.5856 136.122 45.7083 135.589 45.084C135.06 44.4551 134.308 44.1361 133.333 44.127H131.802ZM144.045 53C143.972 52.8542 143.913 52.5944 143.867 52.2207C143.279 52.8314 142.577 53.1367 141.762 53.1367C141.033 53.1367 140.433 52.9316 139.964 52.5215C139.499 52.1068 139.267 51.5827 139.267 50.9492C139.267 50.179 139.558 49.582 140.142 49.1582C140.729 48.7298 141.554 48.5156 142.616 48.5156H143.847V47.9346C143.847 47.4925 143.715 47.1416 143.45 46.8818C143.186 46.6175 142.796 46.4854 142.281 46.4854C141.83 46.4854 141.452 46.5993 141.146 46.8271C140.841 47.055 140.688 47.3307 140.688 47.6543H139.417C139.417 47.2852 139.547 46.9297 139.807 46.5879C140.071 46.2415 140.426 45.9681 140.873 45.7676C141.324 45.5671 141.819 45.4668 142.356 45.4668C143.209 45.4668 143.876 45.681 144.359 46.1094C144.842 46.5332 145.093 47.1188 145.111 47.8662V51.2705C145.111 51.9495 145.198 52.4896 145.371 52.8906V53H144.045ZM141.946 52.0361C142.343 52.0361 142.719 51.9336 143.074 51.7285C143.43 51.5234 143.687 51.2568 143.847 50.9287V49.4111H142.855C141.306 49.4111 140.531 49.8646 140.531 50.7715C140.531 51.168 140.663 51.4779 140.928 51.7012C141.192 51.9245 141.532 52.0361 141.946 52.0361ZM149.404 51.1475L151.127 45.6035H152.48L149.507 54.1416C149.047 55.3721 148.315 55.9873 147.312 55.9873L147.073 55.9668L146.602 55.8779V54.8525L146.943 54.8799C147.372 54.8799 147.704 54.7933 147.941 54.6201C148.183 54.4469 148.381 54.1302 148.536 53.6699L148.816 52.918L146.178 45.6035H147.559L149.404 51.1475ZM157.922 51.0381C157.922 50.6963 157.792 50.432 157.532 50.2451C157.277 50.0537 156.828 49.8896 156.186 49.7529C155.548 49.6162 155.039 49.4521 154.661 49.2607C154.287 49.0693 154.009 48.8415 153.827 48.5771C153.649 48.3128 153.561 47.9984 153.561 47.6338C153.561 47.0277 153.816 46.515 154.326 46.0957C154.841 45.6764 155.497 45.4668 156.295 45.4668C157.133 45.4668 157.812 45.6833 158.332 46.1162C158.856 46.5492 159.118 47.1029 159.118 47.7773H157.847C157.847 47.431 157.699 47.1325 157.402 46.8818C157.111 46.6312 156.742 46.5059 156.295 46.5059C155.835 46.5059 155.475 46.6061 155.215 46.8066C154.955 47.0072 154.825 47.2692 154.825 47.5928C154.825 47.8981 154.946 48.1283 155.188 48.2832C155.429 48.4382 155.864 48.5863 156.493 48.7275C157.127 48.8688 157.639 49.0374 158.031 49.2334C158.423 49.4294 158.713 49.6663 158.899 49.9443C159.091 50.2178 159.187 50.5527 159.187 50.9492C159.187 51.61 158.922 52.141 158.394 52.542C157.865 52.9385 157.179 53.1367 156.336 53.1367C155.743 53.1367 155.219 53.0319 154.764 52.8223C154.308 52.6126 153.95 52.321 153.69 51.9473C153.435 51.569 153.308 51.1611 153.308 50.7236H154.572C154.595 51.1475 154.764 51.4847 155.078 51.7354C155.397 51.9814 155.816 52.1045 156.336 52.1045C156.814 52.1045 157.197 52.0088 157.484 51.8174C157.776 51.6214 157.922 51.3617 157.922 51.0381Z" fill="#1A1A1A"/>
<path d="M59.8633 45.6445C59.8633 46.1413 59.7311 46.5833 59.4668 46.9707C59.207 47.3581 58.8538 47.6611 58.4072 47.8799C58.9268 48.1032 59.3369 48.429 59.6377 48.8574C59.943 49.2858 60.0957 49.7712 60.0957 50.3135C60.0957 51.1748 59.804 51.8607 59.2207 52.3711C58.6419 52.8815 57.8786 53.1367 56.9307 53.1367C55.9736 53.1367 55.2057 52.8815 54.627 52.3711C54.0527 51.8561 53.7656 51.1702 53.7656 50.3135C53.7656 49.7757 53.9115 49.2904 54.2031 48.8574C54.4993 48.4245 54.9072 48.0964 55.4268 47.873C54.9847 47.6543 54.6361 47.3512 54.3809 46.9639C54.1257 46.5765 53.998 46.1367 53.998 45.6445C53.998 44.806 54.2669 44.1406 54.8047 43.6484C55.3424 43.1562 56.0511 42.9102 56.9307 42.9102C57.8057 42.9102 58.512 43.1562 59.0498 43.6484C59.5921 44.1406 59.8633 44.806 59.8633 45.6445ZM58.8311 50.2861C58.8311 49.7301 58.6533 49.2767 58.2979 48.9258C57.9469 48.5749 57.4867 48.3994 56.917 48.3994C56.3473 48.3994 55.8893 48.5726 55.543 48.9189C55.2012 49.2653 55.0303 49.721 55.0303 50.2861C55.0303 50.8512 55.1966 51.2956 55.5293 51.6191C55.8665 51.9427 56.3337 52.1045 56.9307 52.1045C57.5231 52.1045 57.988 51.9427 58.3252 51.6191C58.6624 51.291 58.8311 50.8467 58.8311 50.2861ZM56.9307 43.9492C56.4339 43.9492 56.0306 44.1042 55.7207 44.4141C55.4154 44.7194 55.2627 45.1364 55.2627 45.665C55.2627 46.1709 55.4131 46.5811 55.7139 46.8955C56.0192 47.2054 56.4248 47.3604 56.9307 47.3604C57.4365 47.3604 57.8398 47.2054 58.1406 46.8955C58.446 46.5811 58.5986 46.1709 58.5986 45.665C58.5986 45.1592 58.4414 44.7467 58.127 44.4277C57.8125 44.1087 57.4137 43.9492 56.9307 43.9492ZM66.5352 48.625C66.2708 48.9395 65.9541 49.1924 65.585 49.3838C65.2204 49.5752 64.8193 49.6709 64.3818 49.6709C63.8076 49.6709 63.3063 49.5296 62.8779 49.2471C62.4541 48.9645 62.126 48.568 61.8936 48.0576C61.6611 47.5426 61.5449 46.9753 61.5449 46.3555C61.5449 45.6901 61.6702 45.0908 61.9209 44.5576C62.1761 44.0244 62.5361 43.6165 63.001 43.334C63.4658 43.0514 64.0081 42.9102 64.6279 42.9102C65.6123 42.9102 66.387 43.2793 66.9521 44.0176C67.5218 44.7513 67.8066 45.7539 67.8066 47.0254V47.3945C67.8066 49.3314 67.4238 50.7464 66.6582 51.6396C65.8926 52.5283 64.7373 52.984 63.1924 53.0068H62.9463V51.9404H63.2129C64.2565 51.9222 65.0586 51.651 65.6191 51.127C66.1797 50.5983 66.485 49.7643 66.5352 48.625ZM64.5869 48.625C65.0107 48.625 65.4004 48.4951 65.7559 48.2354C66.1159 47.9756 66.3779 47.6543 66.542 47.2715V46.7656C66.542 45.9362 66.362 45.2617 66.002 44.7422C65.6419 44.2227 65.1862 43.9629 64.6348 43.9629C64.0788 43.9629 63.6322 44.1771 63.2949 44.6055C62.9577 45.0293 62.7891 45.5898 62.7891 46.2871C62.7891 46.9661 62.9508 47.5267 63.2744 47.9688C63.6025 48.4062 64.04 48.625 64.5869 48.625ZM79.9541 44.127H76.7549V53H75.4492V44.127H72.2568V43.0469H79.9541V44.127ZM83.2969 49.5752L82.5039 50.4023V53H81.2393V42.5H82.5039V48.8506L83.1807 48.0371L85.4844 45.6035H87.0225L84.1445 48.6934L87.3574 53H85.874L83.2969 49.5752Z" fill="#007AD0"/>
<path d="M168.271 73.1865H170.254V74.041H168.271V76.2871H167.363V74.041H165.381V73.1865H167.363V71.1113H168.271V73.1865ZM176.714 77H175.806V70.9795L173.984 71.6484V70.8281L176.572 69.8564H176.714V77ZM183.818 73.9678C183.818 75.0257 183.638 75.8118 183.276 76.3262C182.915 76.8405 182.35 77.0977 181.582 77.0977C180.824 77.0977 180.262 76.847 179.897 76.3457C179.533 75.8411 179.344 75.0892 179.331 74.0898V72.8838C179.331 71.8389 179.512 71.0625 179.873 70.5547C180.234 70.0469 180.801 69.793 181.572 69.793C182.337 69.793 182.9 70.0387 183.262 70.5303C183.623 71.0186 183.809 71.7738 183.818 72.7959V73.9678ZM182.915 72.7324C182.915 71.9674 182.808 71.4108 182.593 71.0625C182.378 70.7109 182.038 70.5352 181.572 70.5352C181.11 70.5352 180.773 70.7093 180.562 71.0576C180.35 71.4059 180.241 71.9414 180.234 72.6641V74.1094C180.234 74.8776 180.345 75.4456 180.566 75.8135C180.791 76.1781 181.13 76.3604 181.582 76.3604C182.028 76.3604 182.358 76.1878 182.573 75.8428C182.791 75.4977 182.905 74.9541 182.915 74.2119V72.7324ZM186.289 73.0059H186.968C187.394 72.9993 187.729 72.887 187.974 72.6689C188.218 72.4508 188.34 72.1562 188.34 71.7852C188.34 70.9518 187.925 70.5352 187.095 70.5352C186.704 70.5352 186.392 70.6475 186.157 70.8721C185.926 71.0934 185.811 71.388 185.811 71.7559H184.907C184.907 71.1927 185.112 70.7256 185.522 70.3545C185.936 69.9801 186.46 69.793 187.095 69.793C187.765 69.793 188.291 69.9704 188.672 70.3252C189.053 70.68 189.243 71.1732 189.243 71.8047C189.243 72.1139 189.142 72.4134 188.94 72.7031C188.742 72.9928 188.47 73.2093 188.125 73.3525C188.516 73.4762 188.817 73.6813 189.028 73.9678C189.243 74.2542 189.351 74.6042 189.351 75.0176C189.351 75.6556 189.142 76.1618 188.726 76.5361C188.309 76.9105 187.767 77.0977 187.1 77.0977C186.432 77.0977 185.889 76.917 185.469 76.5557C185.052 76.1943 184.844 75.7174 184.844 75.125H185.752C185.752 75.4993 185.874 75.7988 186.118 76.0234C186.362 76.248 186.689 76.3604 187.1 76.3604C187.536 76.3604 187.869 76.2464 188.101 76.0186C188.332 75.7907 188.447 75.4635 188.447 75.0371C188.447 74.6237 188.32 74.3063 188.066 74.085C187.812 73.8636 187.446 73.7497 186.968 73.7432H186.289V73.0059ZM194.517 69.8906L196.841 75.6914L199.165 69.8906H200.381V77H199.443V74.2314L199.531 71.2432L197.197 77H196.479L194.15 71.2578L194.243 74.2314V77H193.306V69.8906H194.517ZM202.036 77V69.8906H204.36C205.132 69.8906 205.711 70.0501 206.099 70.3691C206.489 70.6882 206.685 71.1602 206.685 71.7852C206.685 72.1172 206.59 72.4118 206.401 72.6689C206.213 72.9229 205.955 73.1198 205.63 73.2598C206.014 73.3672 206.317 73.5723 206.538 73.875C206.763 74.1745 206.875 74.5326 206.875 74.9492C206.875 75.5872 206.668 76.0885 206.255 76.4531C205.841 76.8177 205.257 77 204.502 77H202.036ZM202.974 73.6748V76.2334H204.521C204.958 76.2334 205.301 76.1211 205.552 75.8965C205.806 75.6686 205.933 75.3561 205.933 74.959C205.933 74.1029 205.467 73.6748 204.536 73.6748H202.974ZM202.974 72.9229H204.39C204.8 72.9229 205.127 72.8203 205.371 72.6152C205.618 72.4102 205.742 72.1318 205.742 71.7803C205.742 71.3896 205.628 71.1064 205.4 70.9307C205.173 70.7516 204.826 70.6621 204.36 70.6621H202.974V72.9229ZM210.747 77V69.8906H213.071C213.843 69.8906 214.422 70.0501 214.81 70.3691C215.2 70.6882 215.396 71.1602 215.396 71.7852C215.396 72.1172 215.301 72.4118 215.112 72.6689C214.924 72.9229 214.666 73.1198 214.341 73.2598C214.725 73.3672 215.028 73.5723 215.249 73.875C215.474 74.1745 215.586 74.5326 215.586 74.9492C215.586 75.5872 215.379 76.0885 214.966 76.4531C214.552 76.8177 213.968 77 213.213 77H210.747ZM211.685 73.6748V76.2334H213.232C213.669 76.2334 214.012 76.1211 214.263 75.8965C214.517 75.6686 214.644 75.3561 214.644 74.959C214.644 74.1029 214.178 73.6748 213.247 73.6748H211.685ZM211.685 72.9229H213.101C213.511 72.9229 213.838 72.8203 214.082 72.6152C214.329 72.4102 214.453 72.1318 214.453 71.7803C214.453 71.3896 214.339 71.1064 214.111 70.9307C213.883 70.7516 213.537 70.6621 213.071 70.6621H211.685V72.9229ZM216.597 74.3096C216.597 73.792 216.698 73.3265 216.899 72.9131C217.104 72.4997 217.388 72.1807 217.749 71.9561C218.114 71.7314 218.529 71.6191 218.994 71.6191C219.714 71.6191 220.295 71.8682 220.737 72.3662C221.183 72.8643 221.406 73.5267 221.406 74.3535V74.417C221.406 74.9313 221.307 75.3936 221.108 75.8037C220.913 76.2106 220.632 76.528 220.264 76.7559C219.899 76.9837 219.479 77.0977 219.004 77.0977C218.288 77.0977 217.707 76.8486 217.261 76.3506C216.818 75.8525 216.597 75.1934 216.597 74.373V74.3096ZM217.505 74.417C217.505 75.0029 217.64 75.4733 217.91 75.8281C218.184 76.1829 218.548 76.3604 219.004 76.3604C219.463 76.3604 219.827 76.1813 220.098 75.8232C220.368 75.4619 220.503 74.9574 220.503 74.3096C220.503 73.7301 220.365 73.2614 220.088 72.9033C219.814 72.542 219.45 72.3613 218.994 72.3613C218.548 72.3613 218.188 72.5387 217.915 72.8936C217.642 73.2484 217.505 73.7562 217.505 74.417ZM223.394 71.7168L223.423 72.3809C223.826 71.873 224.354 71.6191 225.005 71.6191C226.121 71.6191 226.685 72.249 226.694 73.5088V77H225.791V73.5039C225.788 73.123 225.7 72.8415 225.527 72.6592C225.358 72.4769 225.093 72.3857 224.731 72.3857C224.438 72.3857 224.181 72.4639 223.96 72.6201C223.739 72.7764 223.566 72.9814 223.442 73.2354V77H222.539V71.7168H223.394ZM231.318 76.4775C230.967 76.891 230.451 77.0977 229.771 77.0977C229.207 77.0977 228.778 76.9349 228.481 76.6094C228.188 76.2806 228.04 75.7956 228.037 75.1543V71.7168H228.94V75.1299C228.94 75.9307 229.266 76.3311 229.917 76.3311C230.607 76.3311 231.066 76.0739 231.294 75.5596V71.7168H232.197V77H231.338L231.318 76.4775ZM236.65 75.5986C236.65 75.3545 236.558 75.1657 236.372 75.0322C236.19 74.8955 235.869 74.7783 235.41 74.6807C234.954 74.583 234.591 74.4658 234.321 74.3291C234.054 74.1924 233.856 74.0296 233.726 73.8408C233.599 73.652 233.535 73.4274 233.535 73.167C233.535 72.734 233.717 72.3678 234.082 72.0684C234.45 71.7689 234.919 71.6191 235.488 71.6191C236.087 71.6191 236.572 71.7738 236.943 72.083C237.318 72.3923 237.505 72.7878 237.505 73.2695H236.597C236.597 73.0221 236.491 72.8089 236.279 72.6299C236.071 72.4508 235.807 72.3613 235.488 72.3613C235.16 72.3613 234.902 72.4329 234.717 72.5762C234.531 72.7194 234.438 72.9066 234.438 73.1377C234.438 73.3558 234.525 73.5202 234.697 73.6309C234.87 73.7415 235.181 73.8473 235.63 73.9482C236.082 74.0492 236.449 74.1696 236.729 74.3096C237.008 74.4495 237.215 74.6188 237.349 74.8174C237.485 75.0127 237.554 75.252 237.554 75.5352C237.554 76.0072 237.365 76.3864 236.987 76.6729C236.61 76.9561 236.12 77.0977 235.518 77.0977C235.094 77.0977 234.72 77.0228 234.395 76.873C234.069 76.7233 233.813 76.515 233.628 76.248C233.446 75.9779 233.354 75.6865 233.354 75.374H234.258C234.274 75.6768 234.395 75.9176 234.619 76.0967C234.847 76.2725 235.146 76.3604 235.518 76.3604C235.859 76.3604 236.133 76.292 236.338 76.1553C236.546 76.0153 236.65 75.8298 236.65 75.5986Z" fill="#1A1A1A"/>
<path d="M266.155 38V28.0469H269.409C270.489 28.0469 271.3 28.2702 271.843 28.7168C272.39 29.1634 272.663 29.8242 272.663 30.6992C272.663 31.1641 272.531 31.5765 272.267 31.9365C272.002 32.292 271.642 32.5677 271.187 32.7637C271.724 32.9141 272.148 33.2012 272.458 33.625C272.772 34.0443 272.93 34.5456 272.93 35.1289C272.93 36.0221 272.64 36.724 272.062 37.2344C271.483 37.7448 270.665 38 269.607 38H266.155ZM267.468 33.3447V36.9268H269.635C270.245 36.9268 270.726 36.7695 271.077 36.4551C271.433 36.1361 271.61 35.6986 271.61 35.1426C271.61 33.944 270.959 33.3447 269.655 33.3447H267.468ZM267.468 32.292H269.45C270.024 32.292 270.482 32.1484 270.824 31.8613C271.171 31.5742 271.344 31.1846 271.344 30.6924C271.344 30.1455 271.184 29.749 270.865 29.5029C270.546 29.2523 270.061 29.127 269.409 29.127H267.468V32.292ZM279.246 37.2686C278.754 37.8473 278.032 38.1367 277.079 38.1367C276.291 38.1367 275.689 37.9089 275.274 37.4531C274.864 36.9928 274.657 36.3138 274.652 35.416V30.6035H275.917V35.3818C275.917 36.5029 276.373 37.0635 277.284 37.0635C278.25 37.0635 278.893 36.7035 279.212 35.9834V30.6035H280.477V38H279.273L279.246 37.2686ZM284.824 36.1475L286.547 30.6035H287.9L284.927 39.1416C284.466 40.3721 283.735 40.9873 282.732 40.9873L282.493 40.9668L282.021 40.8779V39.8525L282.363 39.8799C282.792 39.8799 283.124 39.7933 283.361 39.6201C283.603 39.4469 283.801 39.1302 283.956 38.6699L284.236 37.918L281.598 30.6035H282.979L284.824 36.1475Z" fill="white"/>
<g filter="url(#filter1_d)">
<path d="M3 6C3 4.34315 4.34315 3 6 3H7V95H6C4.34315 95 3 93.6569 3 92V6Z" fill="#19AAF8"/>
</g>
<path fill-rule="evenodd" clip-rule="evenodd" d="M35.75 29.6667C35.5 30.6667 35.0833 31.6667 34.5 32.5833C35.5833 31.8333 36.4998 30.8333 37.0832 29.6667H35.75ZM23.25 29.6667H24.5832C24.8332 30.6667 25.2498 31.6667 25.8332 32.5833C24.8332 31.9167 23.9166 30.9167 23.25 29.6667ZM24.6666 22.6667C24.9166 21.6667 25.3333 20.6667 25.9166 19.75C24.8333 20.5 23.9165 21.5 23.3332 22.6667H24.6666ZM37.0832 22.6667H35.75C35.5 21.6667 35.0833 20.6667 34.5 19.75C35.5833 20.4167 36.4998 21.4167 37.0832 22.6667ZM37.6667 24.0833H36.0832C36.3332 25.5 36.3332 26.9167 36.0832 28.3333H37.6667C38.0833 26.9167 38.0833 25.4167 37.6667 24.0833ZM30.9166 24.0833H34.5832C34.6665 24.75 34.75 25.5 34.75 26.1667C34.75 26.9167 34.6665 27.5833 34.5832 28.25H30.9166V24.0833ZM30.9166 29.6667V33.8333C32.3333 33.4167 33.5833 31.8333 34.2499 29.6667H30.9166ZM29.5 29.6667V33.8333C28.0833 33.4167 26.8333 31.8333 26.1666 29.6667H29.5ZM29.5 22.6667V18.5C28.0833 18.9167 26.8333 20.5 26.1666 22.5833H29.5V22.6667ZM34.2499 22.6667H30.9166V18.5C32.3333 18.9167 33.5833 20.5 34.2499 22.6667ZM25.75 24.0833C25.6666 24.75 25.5833 25.5 25.5833 26.1667C25.5833 26.9167 25.6666 27.5833 25.75 28.25H29.4165V24H25.75V24.0833ZM22.4166 26.1667C22.4166 25.4167 22.4999 24.75 22.7499 24.0833H24.3333C24.0833 25.5 24.0833 26.9167 24.3333 28.3333H22.7499C22.4999 27.5833 22.4166 26.9167 22.4166 26.1667ZM30.1667 17C25.0833 17 21 21.0833 21 26.1667C21 31.25 25.0833 35.3333 30.1667 35.3333C35.25 35.3333 39.3333 31.25 39.3333 26.1667C39.3333 23.75 38.3332 21.4167 36.6665 19.6667C34.9165 18 32.5833 17 30.1667 17Z" fill="#19AAF8"/>
<defs>
<filter id="filter0_d" x="1" y="0" width="334" height="99" filterUnits="userSpaceOnUse" color-interpolation-filters="sRGB">
<feFlood flood-opacity="0" result="BackgroundImageFix"/>
<feColorMatrix in="SourceAlpha" type="matrix" values="0 0 0 0 0 0 0 0 0 0 0 0 0 0 0 0 0 0 127 0"/>
<feOffset dy="1"/>
<feGaussianBlur stdDeviation="1.5"/>
<feColorMatrix type="matrix" values="0 0 0 0 0 0 0 0 0 0 0 0 0 0 0 0 0 0 0.08 0"/>
<feBlend mode="normal" in2="BackgroundImageFix" result="effect1_dropShadow"/>
<feBlend mode="normal" in="SourceGraphic" in2="effect1_dropShadow" result="shape"/>
</filter>
<filter id="filter1_d" x="0" y="1" width="10" height="98" filterUnits="userSpaceOnUse" color-interpolation-filters="sRGB">
<feFlood flood-opacity="0" result="BackgroundImageFix"/>
<feColorMatrix in="SourceAlpha" type="matrix" values="0 0 0 0 0 0 0 0 0 0 0 0 0 0 0 0 0 0 127 0"/>
<feOffset dy="1"/>
<feGaussianBlur stdDeviation="1.5"/>
<feColorMatrix type="matrix" values="0 0 0 0 0 0 0 0 0 0 0 0 0 0 0 0 0 0 0.08 0"/>
<feBlend mode="normal" in2="BackgroundImageFix" result="effect1_dropShadow"/>
<feBlend mode="normal" in="SourceGraphic" in2="effect1_dropShadow" result="shape"/>
</filter>
</defs>
</svg>
