<svg width="334" height="99" viewBox="0 0 334 99" fill="none" xmlns="http://www.w3.org/2000/svg">
<path d="M58.6172 20.6172V21.8438H58.3516C57.2266 21.8646 56.3307 22.1979 55.6641 22.8438C54.9974 23.4896 54.612 24.3984 54.5078 25.5703C55.1068 24.8828 55.9245 24.5391 56.9609 24.5391C57.9505 24.5391 58.7396 24.888 59.3281 25.5859C59.9219 26.2839 60.2188 27.1849 60.2188 28.2891C60.2188 29.4609 59.8984 30.3984 59.2578 31.1016C58.6224 31.8047 57.7682 32.1562 56.6953 32.1562C55.6068 32.1562 54.724 31.7396 54.0469 30.9062C53.3698 30.0677 53.0312 28.9896 53.0312 27.6719V27.1172C53.0312 25.0234 53.4766 23.4245 54.3672 22.3203C55.263 21.2109 56.5938 20.6432 58.3594 20.6172H58.6172ZM56.7188 25.7422C56.224 25.7422 55.7682 25.8906 55.3516 26.1875C54.9349 26.4844 54.6458 26.8568 54.4844 27.3047V27.8359C54.4844 28.7734 54.6953 29.5286 55.1172 30.1016C55.5391 30.6745 56.0651 30.9609 56.6953 30.9609C57.3464 30.9609 57.8568 30.7214 58.2266 30.2422C58.6016 29.763 58.7891 29.1354 58.7891 28.3594C58.7891 27.5781 58.599 26.9479 58.2188 26.4688C57.8438 25.9844 57.3438 25.7422 56.7188 25.7422ZM74.6719 30.5078C74.2865 31.0599 73.7474 31.474 73.0547 31.75C72.3672 32.0208 71.5651 32.1562 70.6484 32.1562C69.7214 32.1562 68.8984 31.9401 68.1797 31.5078C67.4609 31.0703 66.9036 30.4505 66.5078 29.6484C66.1172 28.8464 65.9167 27.9167 65.9062 26.8594V25.8672C65.9062 24.1536 66.3047 22.8255 67.1016 21.8828C67.9036 20.9401 69.0286 20.4688 70.4766 20.4688C71.6641 20.4688 72.6198 20.7734 73.3438 21.3828C74.0677 21.987 74.5104 22.8464 74.6719 23.9609H73.1719C72.8906 22.4557 71.9948 21.7031 70.4844 21.7031C69.4792 21.7031 68.7161 22.0573 68.1953 22.7656C67.6797 23.4688 67.4193 24.4896 67.4141 25.8281V26.7578C67.4141 28.0339 67.7057 29.0495 68.2891 29.8047C68.8724 30.5547 69.6615 30.9297 70.6562 30.9297C71.2188 30.9297 71.7109 30.8672 72.1328 30.7422C72.5547 30.6172 72.9036 30.4062 73.1797 30.1094V27.5547H70.5469V26.3359H74.6719V30.5078ZM77.1797 32V20.625H80.8984C82.1328 20.625 83.0599 20.8802 83.6797 21.3906C84.3047 21.901 84.6172 22.6562 84.6172 23.6562C84.6172 24.1875 84.4661 24.6589 84.1641 25.0703C83.862 25.4766 83.4505 25.7917 82.9297 26.0156C83.5443 26.1875 84.0286 26.5156 84.3828 27C84.7422 27.4792 84.9219 28.0521 84.9219 28.7188C84.9219 29.7396 84.5911 30.5417 83.9297 31.125C83.2682 31.7083 82.3333 32 81.125 32H77.1797ZM78.6797 26.6797V30.7734H81.1562C81.8542 30.7734 82.4036 30.5938 82.8047 30.2344C83.2109 29.8698 83.4141 29.3698 83.4141 28.7344C83.4141 27.3646 82.6693 26.6797 81.1797 26.6797H78.6797ZM78.6797 25.4766H80.9453C81.6016 25.4766 82.125 25.3125 82.5156 24.9844C82.9115 24.6562 83.1094 24.2109 83.1094 23.6484C83.1094 23.0234 82.9271 22.5703 82.5625 22.2891C82.1979 22.0026 81.6432 21.8594 80.8984 21.8594H78.6797V25.4766Z" fill="#1A1A1A"/>
<circle cx="106" cy="54" r="3" fill="black" fill-opacity="0.24"/>
<path d="M124.253 48.7578L120.131 58H118.805L122.913 49.0859H117.526V48.0469H124.253V48.7578ZM129.489 58V48.0469H132.299C133.165 48.0469 133.93 48.2383 134.596 48.6211C135.261 49.0039 135.774 49.5485 136.134 50.2549C136.498 50.9613 136.683 51.7725 136.688 52.6885V53.3242C136.688 54.263 136.505 55.0856 136.141 55.792C135.781 56.4984 135.263 57.0407 134.589 57.4189C133.919 57.7972 133.137 57.9909 132.244 58H129.489ZM130.802 49.127V56.9268H132.183C133.194 56.9268 133.98 56.6123 134.541 55.9834C135.106 55.3545 135.389 54.459 135.389 53.2969V52.7158C135.389 51.5856 135.122 50.7083 134.589 50.084C134.06 49.4551 133.308 49.1361 132.333 49.127H130.802ZM143.045 58C142.972 57.8542 142.913 57.5944 142.867 57.2207C142.279 57.8314 141.577 58.1367 140.762 58.1367C140.033 58.1367 139.433 57.9316 138.964 57.5215C138.499 57.1068 138.267 56.5827 138.267 55.9492C138.267 55.179 138.558 54.582 139.142 54.1582C139.729 53.7298 140.554 53.5156 141.616 53.5156H142.847V52.9346C142.847 52.4925 142.715 52.1416 142.45 51.8818C142.186 51.6175 141.796 51.4854 141.281 51.4854C140.83 51.4854 140.452 51.5993 140.146 51.8271C139.841 52.055 139.688 52.3307 139.688 52.6543H138.417C138.417 52.2852 138.547 51.9297 138.807 51.5879C139.071 51.2415 139.426 50.9681 139.873 50.7676C140.324 50.5671 140.819 50.4668 141.356 50.4668C142.209 50.4668 142.876 50.681 143.359 51.1094C143.842 51.5332 144.093 52.1188 144.111 52.8662V56.2705C144.111 56.9495 144.198 57.4896 144.371 57.8906V58H143.045ZM140.946 57.0361C141.343 57.0361 141.719 56.9336 142.074 56.7285C142.43 56.5234 142.687 56.2568 142.847 55.9287V54.4111H141.855C140.306 54.4111 139.531 54.8646 139.531 55.7715C139.531 56.168 139.663 56.4779 139.928 56.7012C140.192 56.9245 140.532 57.0361 140.946 57.0361ZM148.404 56.1475L150.127 50.6035H151.48L148.507 59.1416C148.047 60.3721 147.315 60.9873 146.312 60.9873L146.073 60.9668L145.602 60.8779V59.8525L145.943 59.8799C146.372 59.8799 146.704 59.7933 146.941 59.6201C147.183 59.4469 147.381 59.1302 147.536 58.6699L147.816 57.918L145.178 50.6035H146.559L148.404 56.1475ZM156.922 56.0381C156.922 55.6963 156.792 55.432 156.532 55.2451C156.277 55.0537 155.828 54.8896 155.186 54.7529C154.548 54.6162 154.039 54.4521 153.661 54.2607C153.287 54.0693 153.009 53.8415 152.827 53.5771C152.649 53.3128 152.561 52.9984 152.561 52.6338C152.561 52.0277 152.816 51.515 153.326 51.0957C153.841 50.6764 154.497 50.4668 155.295 50.4668C156.133 50.4668 156.812 50.6833 157.332 51.1162C157.856 51.5492 158.118 52.1029 158.118 52.7773H156.847C156.847 52.431 156.699 52.1325 156.402 51.8818C156.111 51.6312 155.742 51.5059 155.295 51.5059C154.835 51.5059 154.475 51.6061 154.215 51.8066C153.955 52.0072 153.825 52.2692 153.825 52.5928C153.825 52.8981 153.946 53.1283 154.188 53.2832C154.429 53.4382 154.864 53.5863 155.493 53.7275C156.127 53.8688 156.639 54.0374 157.031 54.2334C157.423 54.4294 157.713 54.6663 157.899 54.9443C158.091 55.2178 158.187 55.5527 158.187 55.9492C158.187 56.61 157.922 57.141 157.394 57.542C156.865 57.9385 156.179 58.1367 155.336 58.1367C154.743 58.1367 154.219 58.0319 153.764 57.8223C153.308 57.6126 152.95 57.321 152.69 56.9473C152.435 56.569 152.308 56.1611 152.308 55.7236H153.572C153.595 56.1475 153.764 56.4847 154.078 56.7354C154.397 56.9814 154.816 57.1045 155.336 57.1045C155.814 57.1045 156.197 57.0088 156.484 56.8174C156.776 56.6214 156.922 56.3617 156.922 56.0381Z" fill="#1A1A1A"/>
<path d="M56.9834 58H55.7119V49.5713L53.1621 50.5078V49.3594L56.7852 47.999H56.9834V58ZM66.0273 54.6572H67.4082V55.6895H66.0273V58H64.7559V55.6895H60.2236V54.9443L64.6807 48.0469H66.0273V54.6572ZM61.6592 54.6572H64.7559V49.7764L64.6055 50.0498L61.6592 54.6572ZM69.1309 53.0098L69.6367 48.0469H74.7363V49.2158H70.71L70.4092 51.9297C70.8968 51.6426 71.4505 51.499 72.0703 51.499C72.9772 51.499 73.6973 51.7998 74.2305 52.4014C74.7637 52.9984 75.0303 53.8073 75.0303 54.8281C75.0303 55.8535 74.7523 56.6624 74.1963 57.2549C73.6449 57.8428 72.8724 58.1367 71.8789 58.1367C70.9993 58.1367 70.2816 57.8929 69.7256 57.4053C69.1696 56.9176 68.8529 56.2432 68.7754 55.3818H69.9717C70.0492 55.9515 70.252 56.3822 70.5801 56.6738C70.9082 56.9609 71.3411 57.1045 71.8789 57.1045C72.4668 57.1045 72.9271 56.904 73.2598 56.5029C73.597 56.1019 73.7656 55.5482 73.7656 54.8418C73.7656 54.1764 73.5833 53.6432 73.2188 53.2422C72.8587 52.8366 72.3779 52.6338 71.7764 52.6338C71.2249 52.6338 70.792 52.7546 70.4775 52.9961L70.1426 53.2695L69.1309 53.0098ZM86.8154 49.127H83.6162V58H82.3105V49.127H79.1182V48.0469H86.8154V49.127ZM90.1582 54.5752L89.3652 55.4023V58H88.1006V47.5H89.3652V53.8506L90.042 53.0371L92.3457 50.6035H93.8838L91.0059 53.6934L94.2188 58H92.7354L90.1582 54.5752Z" fill="#007AD0"/>
<rect x="52" y="73" width="103" height="18" rx="9" fill="#FDF192"/>
<path d="M83.8438 81.7139H80.7627V84.2334H84.3418V85H79.8252V77.8906H84.293V78.6621H80.7627V80.9473H83.8438V81.7139ZM88.6289 85C88.5768 84.8958 88.5345 84.7103 88.502 84.4434C88.082 84.8796 87.5807 85.0977 86.998 85.0977C86.4772 85.0977 86.0492 84.9512 85.7139 84.6582C85.3818 84.362 85.2158 83.9876 85.2158 83.5352C85.2158 82.985 85.4242 82.5586 85.8408 82.2559C86.2607 81.9499 86.8499 81.7969 87.6084 81.7969H88.4873V81.3818C88.4873 81.0661 88.3929 80.8154 88.2041 80.6299C88.0153 80.4411 87.737 80.3467 87.3691 80.3467C87.0469 80.3467 86.7767 80.4281 86.5586 80.5908C86.3405 80.7536 86.2314 80.9505 86.2314 81.1816H85.3232C85.3232 80.918 85.416 80.6641 85.6016 80.4199C85.7904 80.1725 86.0443 79.9772 86.3633 79.834C86.6855 79.6908 87.0387 79.6191 87.4229 79.6191C88.0316 79.6191 88.5085 79.7721 88.8535 80.0781C89.1986 80.3809 89.3776 80.7992 89.3906 81.333V83.7646C89.3906 84.2497 89.4525 84.6354 89.5762 84.9219V85H88.6289ZM87.1299 84.3115C87.4131 84.3115 87.6816 84.2383 87.9355 84.0918C88.1895 83.9453 88.3734 83.7549 88.4873 83.5205V82.4365H87.7793C86.6725 82.4365 86.1191 82.7604 86.1191 83.4082C86.1191 83.6914 86.2135 83.9128 86.4023 84.0723C86.5911 84.2318 86.8337 84.3115 87.1299 84.3115ZM93.3604 80.5273C93.2236 80.5046 93.0755 80.4932 92.916 80.4932C92.3236 80.4932 91.9215 80.7454 91.71 81.25V85H90.8066V79.7168H91.6855L91.7002 80.3271C91.9964 79.8551 92.4163 79.6191 92.96 79.6191C93.1357 79.6191 93.2692 79.6419 93.3604 79.6875V80.5273ZM95.0498 79.7168L95.0791 80.3809C95.4827 79.873 96.0101 79.6191 96.6611 79.6191C97.7777 79.6191 98.3408 80.249 98.3506 81.5088V85H97.4473V81.5039C97.444 81.123 97.3561 80.8415 97.1836 80.6592C97.0143 80.4769 96.749 80.3857 96.3877 80.3857C96.0947 80.3857 95.8376 80.4639 95.6162 80.6201C95.3949 80.7764 95.2223 80.9814 95.0986 81.2354V85H94.1953V79.7168H95.0498ZM105.069 85H104.161V78.9795L102.34 79.6484V78.8281L104.928 77.8564H105.069V85ZM112.374 85H107.716V84.3506L110.177 81.6162C110.541 81.2028 110.792 80.8675 110.929 80.6104C111.069 80.3499 111.139 80.0814 111.139 79.8047C111.139 79.4336 111.026 79.1292 110.802 78.8916C110.577 78.654 110.278 78.5352 109.903 78.5352C109.454 78.5352 109.104 78.6637 108.854 78.9209C108.606 79.1748 108.482 79.5296 108.482 79.9854H107.579C107.579 79.3311 107.789 78.8021 108.209 78.3984C108.632 77.9948 109.197 77.793 109.903 77.793C110.564 77.793 111.087 77.9671 111.471 78.3154C111.855 78.6605 112.047 79.1211 112.047 79.6973C112.047 80.3971 111.601 81.2305 110.709 82.1973L108.805 84.2627H112.374V85ZM117.921 78.3984L114.977 85H114.029L116.964 78.6328H113.116V77.8906H117.921V78.3984ZM122.599 82.2168V85H121.661V77.8906H124.283C125.061 77.8906 125.67 78.0892 126.109 78.4863C126.552 78.8835 126.773 79.4092 126.773 80.0635C126.773 80.7536 126.557 81.2858 126.124 81.6602C125.694 82.0312 125.077 82.2168 124.273 82.2168H122.599ZM122.599 81.4502H124.283C124.785 81.4502 125.169 81.333 125.436 81.0986C125.702 80.861 125.836 80.5192 125.836 80.0732C125.836 79.6501 125.702 79.3115 125.436 79.0576C125.169 78.8037 124.802 78.6719 124.337 78.6621H122.599V81.4502ZM127.521 82.3096C127.521 81.792 127.621 81.3265 127.823 80.9131C128.028 80.4997 128.312 80.1807 128.673 79.9561C129.037 79.7314 129.452 79.6191 129.918 79.6191C130.637 79.6191 131.218 79.8682 131.661 80.3662C132.107 80.8643 132.33 81.5267 132.33 82.3535V82.417C132.33 82.9313 132.231 83.3936 132.032 83.8037C131.837 84.2106 131.555 84.528 131.188 84.7559C130.823 84.9837 130.403 85.0977 129.928 85.0977C129.212 85.0977 128.631 84.8486 128.185 84.3506C127.742 83.8525 127.521 83.1934 127.521 82.373V82.3096ZM128.429 82.417C128.429 83.0029 128.564 83.4733 128.834 83.8281C129.107 84.1829 129.472 84.3604 129.928 84.3604C130.387 84.3604 130.751 84.1813 131.021 83.8232C131.292 83.4619 131.427 82.9574 131.427 82.3096C131.427 81.7301 131.288 81.2614 131.012 80.9033C130.738 80.542 130.374 80.3613 129.918 80.3613C129.472 80.3613 129.112 80.5387 128.839 80.8936C128.565 81.2484 128.429 81.7562 128.429 82.417ZM134.444 85H133.541V79.7168H134.444V85ZM133.468 78.3154C133.468 78.1689 133.512 78.0452 133.6 77.9443C133.691 77.8434 133.824 77.793 134 77.793C134.176 77.793 134.309 77.8434 134.4 77.9443C134.492 78.0452 134.537 78.1689 134.537 78.3154C134.537 78.4619 134.492 78.584 134.4 78.6816C134.309 78.7793 134.176 78.8281 134 78.8281C133.824 78.8281 133.691 78.7793 133.6 78.6816C133.512 78.584 133.468 78.4619 133.468 78.3154ZM136.749 79.7168L136.778 80.3809C137.182 79.873 137.709 79.6191 138.36 79.6191C139.477 79.6191 140.04 80.249 140.05 81.5088V85H139.146V81.5039C139.143 81.123 139.055 80.8415 138.883 80.6592C138.714 80.4769 138.448 80.3857 138.087 80.3857C137.794 80.3857 137.537 80.4639 137.315 80.6201C137.094 80.7764 136.922 80.9814 136.798 81.2354V85H135.895V79.7168H136.749ZM142.638 78.4375V79.7168H143.624V80.415H142.638V83.6914C142.638 83.903 142.682 84.0625 142.77 84.1699C142.857 84.2741 143.007 84.3262 143.219 84.3262C143.323 84.3262 143.466 84.3066 143.648 84.2676V85C143.411 85.0651 143.18 85.0977 142.955 85.0977C142.551 85.0977 142.247 84.9756 142.042 84.7314C141.837 84.4873 141.734 84.1406 141.734 83.6914V80.415H140.772V79.7168H141.734V78.4375H142.638ZM147.76 83.5986C147.76 83.3545 147.667 83.1657 147.481 83.0322C147.299 82.8955 146.979 82.7783 146.52 82.6807C146.064 82.583 145.701 82.4658 145.431 82.3291C145.164 82.1924 144.965 82.0296 144.835 81.8408C144.708 81.652 144.645 81.4274 144.645 81.167C144.645 80.734 144.827 80.3678 145.191 80.0684C145.559 79.7689 146.028 79.6191 146.598 79.6191C147.197 79.6191 147.682 79.7738 148.053 80.083C148.427 80.3923 148.614 80.7878 148.614 81.2695H147.706C147.706 81.0221 147.6 80.8089 147.389 80.6299C147.18 80.4508 146.917 80.3613 146.598 80.3613C146.269 80.3613 146.012 80.4329 145.826 80.5762C145.641 80.7194 145.548 80.9066 145.548 81.1377C145.548 81.3558 145.634 81.5202 145.807 81.6309C145.979 81.7415 146.29 81.8473 146.739 81.9482C147.192 82.0492 147.558 82.1696 147.838 82.3096C148.118 82.4495 148.325 82.6188 148.458 82.8174C148.595 83.0127 148.663 83.252 148.663 83.5352C148.663 84.0072 148.474 84.3864 148.097 84.6729C147.719 84.9561 147.229 85.0977 146.627 85.0977C146.204 85.0977 145.829 85.0228 145.504 84.873C145.178 84.7233 144.923 84.515 144.737 84.248C144.555 83.9779 144.464 83.6865 144.464 83.374H145.367C145.383 83.6768 145.504 83.9176 145.729 84.0967C145.956 84.2725 146.256 84.3604 146.627 84.3604C146.969 84.3604 147.242 84.292 147.447 84.1553C147.656 84.0153 147.76 83.8298 147.76 83.5986Z" fill="#1A1A1A"/>
<path d="M70.1186 78.5399L69.8686 77.6024C69.6811 76.8524 68.931 76.2899 67.7435 76.1024C66.7435 75.9149 65.4311 75.9774 64.2436 76.3524C61.8061 76.9774 59.6186 78.6649 60.0561 80.2899L60.7436 82.9149C61.0561 83.9774 62.3685 84.6024 64.306 84.5399C64.806 85.9774 67.1811 86.7274 69.2436 86.7274C71.7436 86.7274 74.306 85.7274 74.306 83.9774V81.2899C74.3685 79.6024 72.1811 78.7274 70.1186 78.5399ZM61.3061 79.9149C61.2436 79.6024 61.4936 79.1649 62.0561 78.7274C62.6811 78.2274 63.6186 77.7899 64.5561 77.5399C65.2436 77.3524 65.9311 77.2899 66.5561 77.2899C66.8061 77.2899 67.1186 77.2899 67.3061 77.3524C67.9936 77.4774 68.4936 77.7274 68.5561 77.9774C68.6186 78.2899 68.3686 78.7274 67.8061 79.1649C67.1811 79.6649 66.2436 80.1024 65.3061 80.3524C64.3061 80.6024 63.3686 80.7274 62.4936 80.6024C61.8686 80.4149 61.3686 80.1649 61.3061 79.9149ZM63.2436 83.1649C62.5561 83.0399 62.0561 82.7899 61.9936 82.5399L61.7436 81.7274C62.8061 82.0399 64.2436 81.9774 65.6811 81.6024C67.0561 81.2274 68.3686 80.5399 69.1186 79.7274L69.3686 80.5399C69.4936 81.1024 68.3061 82.3524 66.0561 82.9774C65.0561 83.1649 64.0561 83.2899 63.2436 83.1649ZM73.1186 83.9149C73.1186 84.4774 71.6185 85.3524 69.306 85.3524C67.556 85.3524 66.1811 84.8524 65.6811 84.2899C65.9311 84.2274 66.1186 84.1649 66.3686 84.1649C66.7436 84.0399 67.0561 83.9149 67.4936 83.7899C68.1186 83.9149 68.7435 83.9774 69.306 83.9774C70.7435 83.9774 72.1811 83.6649 73.1186 83.1024V83.9149ZM69.3686 82.6649C70.3686 81.8524 70.806 80.9774 70.556 80.1649L70.4936 79.7899C72.0561 80.0399 73.1186 80.6649 73.1186 81.1649C73.1186 81.7899 71.6186 82.6649 69.3686 82.6649Z" fill="black" fill-opacity="0.56"/>
<rect x="172" y="73" width="103" height="18" rx="9" fill="#FDF192"/>
<path d="M191.271 81.1865H193.254V82.041H191.271V84.2871H190.363V82.041H188.381V81.1865H190.363V79.1113H191.271V81.1865ZM200.29 77.8857V78.6523H200.124C199.421 78.6654 198.861 78.8737 198.444 79.2773C198.028 79.681 197.787 80.249 197.722 80.9814C198.096 80.5518 198.607 80.3369 199.255 80.3369C199.873 80.3369 200.367 80.555 200.734 80.9912C201.105 81.4274 201.291 81.9906 201.291 82.6807C201.291 83.4131 201.091 83.999 200.69 84.4385C200.293 84.8779 199.759 85.0977 199.089 85.0977C198.409 85.0977 197.857 84.8372 197.434 84.3164C197.01 83.7923 196.799 83.1185 196.799 82.2949V81.9482C196.799 80.6396 197.077 79.6403 197.634 78.9502C198.194 78.2568 199.025 77.902 200.129 77.8857H200.29ZM199.104 81.0889C198.794 81.0889 198.509 81.1816 198.249 81.3672C197.989 81.5527 197.808 81.7855 197.707 82.0654V82.3975C197.707 82.9834 197.839 83.4554 198.103 83.8135C198.366 84.1715 198.695 84.3506 199.089 84.3506C199.496 84.3506 199.815 84.2008 200.046 83.9014C200.28 83.6019 200.397 83.2096 200.397 82.7246C200.397 82.2363 200.279 81.8424 200.041 81.543C199.807 81.2402 199.494 81.0889 199.104 81.0889ZM205.329 85H204.421V78.9795L202.6 79.6484V78.8281L205.188 77.8564H205.329V85ZM208.391 81.4355L208.752 77.8906H212.395V78.7256H209.519L209.304 80.6641C209.652 80.459 210.048 80.3564 210.49 80.3564C211.138 80.3564 211.652 80.5713 212.033 81.001C212.414 81.4274 212.604 82.0052 212.604 82.7344C212.604 83.4668 212.406 84.0446 212.009 84.4678C211.615 84.8877 211.063 85.0977 210.354 85.0977C209.725 85.0977 209.213 84.9235 208.815 84.5752C208.418 84.2269 208.192 83.7451 208.137 83.1299H208.991C209.047 83.5368 209.191 83.8444 209.426 84.0527C209.66 84.2578 209.969 84.3604 210.354 84.3604C210.773 84.3604 211.102 84.2171 211.34 83.9307C211.581 83.6442 211.701 83.2487 211.701 82.7441C211.701 82.2689 211.571 81.888 211.311 81.6016C211.053 81.3118 210.71 81.167 210.28 81.167C209.886 81.167 209.577 81.2533 209.353 81.4258L209.113 81.6211L208.391 81.4355ZM217.517 77.8906L219.841 83.6914L222.165 77.8906H223.381V85H222.443V82.2314L222.531 79.2432L220.197 85H219.479L217.15 79.2578L217.243 82.2314V85H216.306V77.8906H217.517ZM225.036 85V77.8906H227.36C228.132 77.8906 228.711 78.0501 229.099 78.3691C229.489 78.6882 229.685 79.1602 229.685 79.7852C229.685 80.1172 229.59 80.4118 229.401 80.6689C229.213 80.9229 228.955 81.1198 228.63 81.2598C229.014 81.3672 229.317 81.5723 229.538 81.875C229.763 82.1745 229.875 82.5326 229.875 82.9492C229.875 83.5872 229.668 84.0885 229.255 84.4531C228.841 84.8177 228.257 85 227.502 85H225.036ZM225.974 81.6748V84.2334H227.521C227.958 84.2334 228.301 84.1211 228.552 83.8965C228.806 83.6686 228.933 83.3561 228.933 82.959C228.933 82.1029 228.467 81.6748 227.536 81.6748H225.974ZM225.974 80.9229H227.39C227.8 80.9229 228.127 80.8203 228.371 80.6152C228.618 80.4102 228.742 80.1318 228.742 79.7803C228.742 79.3896 228.628 79.1064 228.4 78.9307C228.173 78.7516 227.826 78.6621 227.36 78.6621H225.974V80.9229ZM233.747 85V77.8906H236.071C236.843 77.8906 237.422 78.0501 237.81 78.3691C238.2 78.6882 238.396 79.1602 238.396 79.7852C238.396 80.1172 238.301 80.4118 238.112 80.6689C237.924 80.9229 237.666 81.1198 237.341 81.2598C237.725 81.3672 238.028 81.5723 238.249 81.875C238.474 82.1745 238.586 82.5326 238.586 82.9492C238.586 83.5872 238.379 84.0885 237.966 84.4531C237.552 84.8177 236.968 85 236.213 85H233.747ZM234.685 81.6748V84.2334H236.232C236.669 84.2334 237.012 84.1211 237.263 83.8965C237.517 83.6686 237.644 83.3561 237.644 82.959C237.644 82.1029 237.178 81.6748 236.247 81.6748H234.685ZM234.685 80.9229H236.101C236.511 80.9229 236.838 80.8203 237.082 80.6152C237.329 80.4102 237.453 80.1318 237.453 79.7803C237.453 79.3896 237.339 79.1064 237.111 78.9307C236.883 78.7516 236.537 78.6621 236.071 78.6621H234.685V80.9229ZM239.597 82.3096C239.597 81.792 239.698 81.3265 239.899 80.9131C240.104 80.4997 240.388 80.1807 240.749 79.9561C241.114 79.7314 241.529 79.6191 241.994 79.6191C242.714 79.6191 243.295 79.8682 243.737 80.3662C244.183 80.8643 244.406 81.5267 244.406 82.3535V82.417C244.406 82.9313 244.307 83.3936 244.108 83.8037C243.913 84.2106 243.632 84.528 243.264 84.7559C242.899 84.9837 242.479 85.0977 242.004 85.0977C241.288 85.0977 240.707 84.8486 240.261 84.3506C239.818 83.8525 239.597 83.1934 239.597 82.373V82.3096ZM240.505 82.417C240.505 83.0029 240.64 83.4733 240.91 83.8281C241.184 84.1829 241.548 84.3604 242.004 84.3604C242.463 84.3604 242.827 84.1813 243.098 83.8232C243.368 83.4619 243.503 82.9574 243.503 82.3096C243.503 81.7301 243.365 81.2614 243.088 80.9033C242.814 80.542 242.45 80.3613 241.994 80.3613C241.548 80.3613 241.188 80.5387 240.915 80.8936C240.642 81.2484 240.505 81.7562 240.505 82.417ZM246.394 79.7168L246.423 80.3809C246.826 79.873 247.354 79.6191 248.005 79.6191C249.121 79.6191 249.685 80.249 249.694 81.5088V85H248.791V81.5039C248.788 81.123 248.7 80.8415 248.527 80.6592C248.358 80.4769 248.093 80.3857 247.731 80.3857C247.438 80.3857 247.181 80.4639 246.96 80.6201C246.739 80.7764 246.566 80.9814 246.442 81.2354V85H245.539V79.7168H246.394ZM254.318 84.4775C253.967 84.891 253.451 85.0977 252.771 85.0977C252.207 85.0977 251.778 84.9349 251.481 84.6094C251.188 84.2806 251.04 83.7956 251.037 83.1543V79.7168H251.94V83.1299C251.94 83.9307 252.266 84.3311 252.917 84.3311C253.607 84.3311 254.066 84.0739 254.294 83.5596V79.7168H255.197V85H254.338L254.318 84.4775ZM259.65 83.5986C259.65 83.3545 259.558 83.1657 259.372 83.0322C259.19 82.8955 258.869 82.7783 258.41 82.6807C257.954 82.583 257.591 82.4658 257.321 82.3291C257.054 82.1924 256.856 82.0296 256.726 81.8408C256.599 81.652 256.535 81.4274 256.535 81.167C256.535 80.734 256.717 80.3678 257.082 80.0684C257.45 79.7689 257.919 79.6191 258.488 79.6191C259.087 79.6191 259.572 79.7738 259.943 80.083C260.318 80.3923 260.505 80.7878 260.505 81.2695H259.597C259.597 81.0221 259.491 80.8089 259.279 80.6299C259.071 80.4508 258.807 80.3613 258.488 80.3613C258.16 80.3613 257.902 80.4329 257.717 80.5762C257.531 80.7194 257.438 80.9066 257.438 81.1377C257.438 81.3558 257.525 81.5202 257.697 81.6309C257.87 81.7415 258.181 81.8473 258.63 81.9482C259.082 82.0492 259.449 82.1696 259.729 82.3096C260.008 82.4495 260.215 82.6188 260.349 82.8174C260.485 83.0127 260.554 83.252 260.554 83.5352C260.554 84.0072 260.365 84.3864 259.987 84.6729C259.61 84.9561 259.12 85.0977 258.518 85.0977C258.094 85.0977 257.72 85.0228 257.395 84.873C257.069 84.7233 256.813 84.515 256.628 84.248C256.446 83.9779 256.354 83.6865 256.354 83.374H257.258C257.274 83.6768 257.395 83.9176 257.619 84.0967C257.847 84.2725 258.146 84.3604 258.518 84.3604C258.859 84.3604 259.133 84.292 259.338 84.1553C259.546 84.0153 259.65 83.8298 259.65 83.5986Z" fill="#1A1A1A"/>
<rect x="242" y="33" width="65" height="25" rx="3" fill="#007AD0"/>
<path d="M264.155 50V40.0469H267.409C268.489 40.0469 269.3 40.2702 269.843 40.7168C270.39 41.1634 270.663 41.8242 270.663 42.6992C270.663 43.1641 270.531 43.5765 270.267 43.9365C270.002 44.292 269.642 44.5677 269.187 44.7637C269.724 44.9141 270.148 45.2012 270.458 45.625C270.772 46.0443 270.93 46.5456 270.93 47.1289C270.93 48.0221 270.64 48.724 270.062 49.2344C269.483 49.7448 268.665 50 267.607 50H264.155ZM265.468 45.3447V48.9268H267.635C268.245 48.9268 268.726 48.7695 269.077 48.4551C269.433 48.1361 269.61 47.6986 269.61 47.1426C269.61 45.944 268.959 45.3447 267.655 45.3447H265.468ZM265.468 44.292H267.45C268.024 44.292 268.482 44.1484 268.824 43.8613C269.171 43.5742 269.344 43.1846 269.344 42.6924C269.344 42.1455 269.184 41.749 268.865 41.5029C268.546 41.2523 268.061 41.127 267.409 41.127H265.468V44.292ZM277.246 49.2686C276.754 49.8473 276.032 50.1367 275.079 50.1367C274.291 50.1367 273.689 49.9089 273.274 49.4531C272.864 48.9928 272.657 48.3138 272.652 47.416V42.6035H273.917V47.3818C273.917 48.5029 274.373 49.0635 275.284 49.0635C276.25 49.0635 276.893 48.7035 277.212 47.9834V42.6035H278.477V50H277.273L277.246 49.2686ZM282.824 48.1475L284.547 42.6035H285.9L282.927 51.1416C282.466 52.3721 281.735 52.9873 280.732 52.9873L280.493 52.9668L280.021 52.8779V51.8525L280.363 51.8799C280.792 51.8799 281.124 51.7933 281.361 51.6201C281.603 51.4469 281.801 51.1302 281.956 50.6699L282.236 49.918L279.598 42.6035H280.979L282.824 48.1475Z" fill="white"/>
<path fill-rule="evenodd" clip-rule="evenodd" d="M35.75 29.6667C35.5 30.6667 35.0833 31.6667 34.5 32.5833C35.5833 31.8333 36.4998 30.8333 37.0832 29.6667H35.75ZM23.25 29.6667H24.5832C24.8332 30.6667 25.2498 31.6667 25.8332 32.5833C24.8332 31.9167 23.9166 30.9167 23.25 29.6667ZM24.6666 22.6667C24.9166 21.6667 25.3333 20.6667 25.9166 19.75C24.8333 20.5 23.9165 21.5 23.3332 22.6667H24.6666ZM37.0832 22.6667H35.75C35.5 21.6667 35.0833 20.6667 34.5 19.75C35.5833 20.4167 36.4998 21.4167 37.0832 22.6667ZM37.6667 24.0833H36.0832C36.3332 25.5 36.3332 26.9167 36.0832 28.3333H37.6667C38.0833 26.9167 38.0833 25.4167 37.6667 24.0833ZM30.9166 24.0833H34.5832C34.6665 24.75 34.75 25.5 34.75 26.1667C34.75 26.9167 34.6665 27.5833 34.5832 28.25H30.9166V24.0833ZM30.9166 29.6667V33.8333C32.3333 33.4167 33.5833 31.8333 34.2499 29.6667H30.9166ZM29.5 29.6667V33.8333C28.0833 33.4167 26.8333 31.8333 26.1666 29.6667H29.5ZM29.5 22.6667V18.5C28.0833 18.9167 26.8333 20.5 26.1666 22.5833H29.5V22.6667ZM34.2499 22.6667H30.9166V18.5C32.3333 18.9167 33.5833 20.5 34.2499 22.6667ZM25.75 24.0833C25.6666 24.75 25.5833 25.5 25.5833 26.1667C25.5833 26.9167 25.6666 27.5833 25.75 28.25H29.4165V24H25.75V24.0833ZM22.4166 26.1667C22.4166 25.4167 22.4999 24.75 22.7499 24.0833H24.3333C24.0833 25.5 24.0833 26.9167 24.3333 28.3333H22.7499C22.4999 27.5833 22.4166 26.9167 22.4166 26.1667ZM30.1667 17C25.0833 17 21 21.0833 21 26.1667C21 31.25 25.0833 35.3333 30.1667 35.3333C35.25 35.3333 39.3333 31.25 39.3333 26.1667C39.3333 23.75 38.3332 21.4167 36.6665 19.6667C34.9165 18 32.5833 17 30.1667 17Z" fill="#5770CB"/>
<g filter="url(#filter0_d)">
<rect x="3" y="2" width="328" height="93" rx="3" fill="white"/>
<rect x="3.5" y="2.5" width="327" height="92" rx="2.5" stroke="black" stroke-opacity="0.12"/>
</g>
<path d="M56.0469 25.6094H57.1328C57.8151 25.599 58.3516 25.4193 58.7422 25.0703C59.1328 24.7214 59.3281 24.25 59.3281 23.6562C59.3281 22.3229 58.6641 21.6562 57.3359 21.6562C56.7109 21.6562 56.2109 21.8359 55.8359 22.1953C55.4661 22.5495 55.2812 23.0208 55.2812 23.6094H53.8359C53.8359 22.7083 54.1641 21.9609 54.8203 21.3672C55.4818 20.7682 56.3203 20.4688 57.3359 20.4688C58.4089 20.4688 59.25 20.7526 59.8594 21.3203C60.4688 21.888 60.7734 22.6771 60.7734 23.6875C60.7734 24.1823 60.612 24.6615 60.2891 25.125C59.9714 25.5885 59.5365 25.9349 58.9844 26.1641C59.6094 26.362 60.0911 26.6901 60.4297 27.1484C60.7734 27.6068 60.9453 28.1667 60.9453 28.8281C60.9453 29.849 60.612 30.6589 59.9453 31.2578C59.2786 31.8568 58.4115 32.1562 57.3438 32.1562C56.276 32.1562 55.4062 31.8672 54.7344 31.2891C54.0677 30.7109 53.7344 29.9479 53.7344 29H55.1875C55.1875 29.599 55.3828 30.0781 55.7734 30.4375C56.1641 30.7969 56.6875 30.9766 57.3438 30.9766C58.0417 30.9766 58.5755 30.7943 58.9453 30.4297C59.3151 30.0651 59.5 29.5417 59.5 28.8594C59.5 28.1979 59.2969 27.6901 58.8906 27.3359C58.4844 26.9818 57.8984 26.7995 57.1328 26.7891H56.0469V25.6094ZM75.6719 30.5078C75.2865 31.0599 74.7474 31.474 74.0547 31.75C73.3672 32.0208 72.5651 32.1562 71.6484 32.1562C70.7214 32.1562 69.8984 31.9401 69.1797 31.5078C68.4609 31.0703 67.9036 30.4505 67.5078 29.6484C67.1172 28.8464 66.9167 27.9167 66.9062 26.8594V25.8672C66.9062 24.1536 67.3047 22.8255 68.1016 21.8828C68.9036 20.9401 70.0286 20.4688 71.4766 20.4688C72.6641 20.4688 73.6198 20.7734 74.3438 21.3828C75.0677 21.987 75.5104 22.8464 75.6719 23.9609H74.1719C73.8906 22.4557 72.9948 21.7031 71.4844 21.7031C70.4792 21.7031 69.7161 22.0573 69.1953 22.7656C68.6797 23.4688 68.4193 24.4896 68.4141 25.8281V26.7578C68.4141 28.0339 68.7057 29.0495 69.2891 29.8047C69.8724 30.5547 70.6615 30.9297 71.6562 30.9297C72.2188 30.9297 72.7109 30.8672 73.1328 30.7422C73.5547 30.6172 73.9036 30.4062 74.1797 30.1094V27.5547H71.5469V26.3359H75.6719V30.5078ZM78.1797 32V20.625H81.8984C83.1328 20.625 84.0599 20.8802 84.6797 21.3906C85.3047 21.901 85.6172 22.6562 85.6172 23.6562C85.6172 24.1875 85.4661 24.6589 85.1641 25.0703C84.862 25.4766 84.4505 25.7917 83.9297 26.0156C84.5443 26.1875 85.0286 26.5156 85.3828 27C85.7422 27.4792 85.9219 28.0521 85.9219 28.7188C85.9219 29.7396 85.5911 30.5417 84.9297 31.125C84.2682 31.7083 83.3333 32 82.125 32H78.1797ZM79.6797 26.6797V30.7734H82.1562C82.8542 30.7734 83.4036 30.5938 83.8047 30.2344C84.2109 29.8698 84.4141 29.3698 84.4141 28.7344C84.4141 27.3646 83.6693 26.6797 82.1797 26.6797H79.6797ZM79.6797 25.4766H81.9453C82.6016 25.4766 83.125 25.3125 83.5156 24.9844C83.9115 24.6562 84.1094 24.2109 84.1094 23.6484C84.1094 23.0234 83.9271 22.5703 83.5625 22.2891C83.1979 22.0026 82.6432 21.8594 81.8984 21.8594H79.6797V25.4766Z" fill="#1A1A1A"/>
<rect x="243" y="21" width="65" height="25" rx="3" fill="#007AD0"/>
<rect x="42" y="65" width="93" height="18" rx="9" fill="#FDF192"/>
<g filter="url(#filter1_d)">
<path d="M3 6C3 4.34315 4.34315 3 6 3H7V95H6C4.34315 95 3 93.6569 3 92V6Z" fill="#5770CB"/>
</g>
<circle cx="106" cy="49" r="3" fill="black" fill-opacity="0.24"/>
<path d="M124.253 43.7578L120.131 53H118.805L122.913 44.0859H117.526V43.0469H124.253V43.7578ZM129.489 53V43.0469H132.299C133.165 43.0469 133.93 43.2383 134.596 43.6211C135.261 44.0039 135.774 44.5485 136.134 45.2549C136.498 45.9613 136.683 46.7725 136.688 47.6885V48.3242C136.688 49.263 136.505 50.0856 136.141 50.792C135.781 51.4984 135.263 52.0407 134.589 52.4189C133.919 52.7972 133.137 52.9909 132.244 53H129.489ZM130.802 44.127V51.9268H132.183C133.194 51.9268 133.98 51.6123 134.541 50.9834C135.106 50.3545 135.389 49.459 135.389 48.2969V47.7158C135.389 46.5856 135.122 45.7083 134.589 45.084C134.06 44.4551 133.308 44.1361 132.333 44.127H130.802ZM143.045 53C142.972 52.8542 142.913 52.5944 142.867 52.2207C142.279 52.8314 141.577 53.1367 140.762 53.1367C140.033 53.1367 139.433 52.9316 138.964 52.5215C138.499 52.1068 138.267 51.5827 138.267 50.9492C138.267 50.179 138.558 49.582 139.142 49.1582C139.729 48.7298 140.554 48.5156 141.616 48.5156H142.847V47.9346C142.847 47.4925 142.715 47.1416 142.45 46.8818C142.186 46.6175 141.796 46.4854 141.281 46.4854C140.83 46.4854 140.452 46.5993 140.146 46.8271C139.841 47.055 139.688 47.3307 139.688 47.6543H138.417C138.417 47.2852 138.547 46.9297 138.807 46.5879C139.071 46.2415 139.426 45.9681 139.873 45.7676C140.324 45.5671 140.819 45.4668 141.356 45.4668C142.209 45.4668 142.876 45.681 143.359 46.1094C143.842 46.5332 144.093 47.1188 144.111 47.8662V51.2705C144.111 51.9495 144.198 52.4896 144.371 52.8906V53H143.045ZM140.946 52.0361C141.343 52.0361 141.719 51.9336 142.074 51.7285C142.43 51.5234 142.687 51.2568 142.847 50.9287V49.4111H141.855C140.306 49.4111 139.531 49.8646 139.531 50.7715C139.531 51.168 139.663 51.4779 139.928 51.7012C140.192 51.9245 140.532 52.0361 140.946 52.0361ZM148.404 51.1475L150.127 45.6035H151.48L148.507 54.1416C148.047 55.3721 147.315 55.9873 146.312 55.9873L146.073 55.9668L145.602 55.8779V54.8525L145.943 54.8799C146.372 54.8799 146.704 54.7933 146.941 54.6201C147.183 54.4469 147.381 54.1302 147.536 53.6699L147.816 52.918L145.178 45.6035H146.559L148.404 51.1475ZM156.922 51.0381C156.922 50.6963 156.792 50.432 156.532 50.2451C156.277 50.0537 155.828 49.8896 155.186 49.7529C154.548 49.6162 154.039 49.4521 153.661 49.2607C153.287 49.0693 153.009 48.8415 152.827 48.5771C152.649 48.3128 152.561 47.9984 152.561 47.6338C152.561 47.0277 152.816 46.515 153.326 46.0957C153.841 45.6764 154.497 45.4668 155.295 45.4668C156.133 45.4668 156.812 45.6833 157.332 46.1162C157.856 46.5492 158.118 47.1029 158.118 47.7773H156.847C156.847 47.431 156.699 47.1325 156.402 46.8818C156.111 46.6312 155.742 46.5059 155.295 46.5059C154.835 46.5059 154.475 46.6061 154.215 46.8066C153.955 47.0072 153.825 47.2692 153.825 47.5928C153.825 47.8981 153.946 48.1283 154.188 48.2832C154.429 48.4382 154.864 48.5863 155.493 48.7275C156.127 48.8688 156.639 49.0374 157.031 49.2334C157.423 49.4294 157.713 49.6663 157.899 49.9443C158.091 50.2178 158.187 50.5527 158.187 50.9492C158.187 51.61 157.922 52.141 157.394 52.542C156.865 52.9385 156.179 53.1367 155.336 53.1367C154.743 53.1367 154.219 53.0319 153.764 52.8223C153.308 52.6126 152.95 52.321 152.69 51.9473C152.435 51.569 152.308 51.1611 152.308 50.7236H153.572C153.595 51.1475 153.764 51.4847 154.078 51.7354C154.397 51.9814 154.816 52.1045 155.336 52.1045C155.814 52.1045 156.197 52.0088 156.484 51.8174C156.776 51.6214 156.922 51.3617 156.922 51.0381Z" fill="#1A1A1A"/>
<path d="M56.9834 53H55.7119V44.5713L53.1621 45.5078V44.3594L56.7852 42.999H56.9834V53ZM66.9297 48.7549C66.9297 50.236 66.6768 51.3366 66.1709 52.0566C65.665 52.7767 64.8743 53.1367 63.7988 53.1367C62.737 53.1367 61.9508 52.7858 61.4404 52.084C60.93 51.3776 60.6657 50.3249 60.6475 48.9258V47.2373C60.6475 45.7744 60.9004 44.6875 61.4062 43.9766C61.9121 43.2656 62.7051 42.9102 63.7852 42.9102C64.8561 42.9102 65.6445 43.2542 66.1504 43.9424C66.6562 44.626 66.916 45.6833 66.9297 47.1143V48.7549ZM65.665 47.0254C65.665 45.9544 65.5146 45.1751 65.2139 44.6875C64.9131 44.1953 64.4368 43.9492 63.7852 43.9492C63.138 43.9492 62.6663 44.193 62.3701 44.6807C62.0739 45.1683 61.9212 45.918 61.9121 46.9297V48.9531C61.9121 50.0286 62.0671 50.8239 62.377 51.3389C62.6914 51.8493 63.1654 52.1045 63.7988 52.1045C64.4232 52.1045 64.8857 51.863 65.1865 51.3799C65.4919 50.8968 65.6514 50.1357 65.665 49.0967V47.0254ZM74.5859 45.6445C74.5859 46.1413 74.4538 46.5833 74.1895 46.9707C73.9297 47.3581 73.5765 47.6611 73.1299 47.8799C73.6494 48.1032 74.0596 48.429 74.3604 48.8574C74.6657 49.2858 74.8184 49.7712 74.8184 50.3135C74.8184 51.1748 74.5267 51.8607 73.9434 52.3711C73.3646 52.8815 72.6012 53.1367 71.6533 53.1367C70.6963 53.1367 69.9284 52.8815 69.3496 52.3711C68.7754 51.8561 68.4883 51.1702 68.4883 50.3135C68.4883 49.7757 68.6341 49.2904 68.9258 48.8574C69.222 48.4245 69.6299 48.0964 70.1494 47.873C69.7074 47.6543 69.3587 47.3512 69.1035 46.9639C68.8483 46.5765 68.7207 46.1367 68.7207 45.6445C68.7207 44.806 68.9896 44.1406 69.5273 43.6484C70.0651 43.1562 70.7738 42.9102 71.6533 42.9102C72.5283 42.9102 73.2347 43.1562 73.7725 43.6484C74.3148 44.1406 74.5859 44.806 74.5859 45.6445ZM73.5537 50.2861C73.5537 49.7301 73.376 49.2767 73.0205 48.9258C72.6696 48.5749 72.2093 48.3994 71.6396 48.3994C71.07 48.3994 70.612 48.5726 70.2656 48.9189C69.9238 49.2653 69.7529 49.721 69.7529 50.2861C69.7529 50.8512 69.9193 51.2956 70.252 51.6191C70.5892 51.9427 71.0563 52.1045 71.6533 52.1045C72.2458 52.1045 72.7106 51.9427 73.0479 51.6191C73.3851 51.291 73.5537 50.8467 73.5537 50.2861ZM71.6533 43.9492C71.1566 43.9492 70.7533 44.1042 70.4434 44.4141C70.138 44.7194 69.9854 45.1364 69.9854 45.665C69.9854 46.1709 70.1357 46.5811 70.4365 46.8955C70.7419 47.2054 71.1475 47.3604 71.6533 47.3604C72.1592 47.3604 72.5625 47.2054 72.8633 46.8955C73.1686 46.5811 73.3213 46.1709 73.3213 45.665C73.3213 45.1592 73.1641 44.7467 72.8496 44.4277C72.5352 44.1087 72.1364 43.9492 71.6533 43.9492ZM86.8154 44.127H83.6162V53H82.3105V44.127H79.1182V43.0469H86.8154V44.127ZM90.1582 49.5752L89.3652 50.4023V53H88.1006V42.5H89.3652V48.8506L90.042 48.0371L92.3457 45.6035H93.8838L91.0059 48.6934L94.2188 53H92.7354L90.1582 49.5752Z" fill="#007AD0"/>
<path d="M54.2715 74.1865H56.2539V75.041H54.2715V77.2871H53.3633V75.041H51.3809V74.1865H53.3633V72.1113H54.2715V74.1865ZM63.29 70.8857V71.6523H63.124C62.4209 71.6654 61.861 71.8737 61.4443 72.2773C61.0277 72.681 60.7868 73.249 60.7217 73.9814C61.096 73.5518 61.6071 73.3369 62.2549 73.3369C62.8734 73.3369 63.3665 73.555 63.7344 73.9912C64.1055 74.4274 64.291 74.9906 64.291 75.6807C64.291 76.4131 64.0908 76.999 63.6904 77.4385C63.2933 77.8779 62.7594 78.0977 62.0889 78.0977C61.4085 78.0977 60.8568 77.8372 60.4336 77.3164C60.0104 76.7923 59.7988 76.1185 59.7988 75.2949V74.9482C59.7988 73.6396 60.0771 72.6403 60.6338 71.9502C61.1937 71.2568 62.0254 70.902 63.1289 70.8857H63.29ZM62.1035 74.0889C61.7943 74.0889 61.5094 74.1816 61.249 74.3672C60.9886 74.5527 60.8079 74.7855 60.707 75.0654V75.3975C60.707 75.9834 60.8389 76.4554 61.1025 76.8135C61.3662 77.1715 61.695 77.3506 62.0889 77.3506C62.4958 77.3506 62.8148 77.2008 63.0459 76.9014C63.2803 76.6019 63.3975 76.2096 63.3975 75.7246C63.3975 75.2363 63.2786 74.8424 63.041 74.543C62.8066 74.2402 62.4941 74.0889 62.1035 74.0889ZM68.3291 78H67.4209V71.9795L65.5996 72.6484V71.8281L68.1875 70.8564H68.3291V78ZM71.3906 74.4355L71.752 70.8906H75.3945V71.7256H72.5186L72.3037 73.6641C72.652 73.459 73.0475 73.3564 73.4902 73.3564C74.138 73.3564 74.6523 73.5713 75.0332 74.001C75.4141 74.4274 75.6045 75.0052 75.6045 75.7344C75.6045 76.4668 75.4059 77.0446 75.0088 77.4678C74.6149 77.8877 74.0632 78.0977 73.3535 78.0977C72.7253 78.0977 72.2126 77.9235 71.8154 77.5752C71.4183 77.2269 71.1921 76.7451 71.1367 76.1299H71.9912C72.0465 76.5368 72.1914 76.8444 72.4258 77.0527C72.6602 77.2578 72.9694 77.3604 73.3535 77.3604C73.7734 77.3604 74.1022 77.2171 74.3398 76.9307C74.5807 76.6442 74.7012 76.2487 74.7012 75.7441C74.7012 75.2689 74.571 74.888 74.3105 74.6016C74.0534 74.3118 73.71 74.167 73.2803 74.167C72.8864 74.167 72.5771 74.2533 72.3525 74.4258L72.1133 74.6211L71.3906 74.4355ZM80.5166 70.8906L82.8408 76.6914L85.165 70.8906H86.3809V78H85.4434V75.2314L85.5312 72.2432L83.1973 78H82.4795L80.1504 72.2578L80.2432 75.2314V78H79.3057V70.8906H80.5166ZM88.0361 78V70.8906H90.3604C91.1318 70.8906 91.7113 71.0501 92.0986 71.3691C92.4893 71.6882 92.6846 72.1602 92.6846 72.7852C92.6846 73.1172 92.5902 73.4118 92.4014 73.6689C92.2126 73.9229 91.9554 74.1198 91.6299 74.2598C92.014 74.3672 92.3167 74.5723 92.5381 74.875C92.7627 75.1745 92.875 75.5326 92.875 75.9492C92.875 76.5872 92.6683 77.0885 92.2549 77.4531C91.8415 77.8177 91.2572 78 90.502 78H88.0361ZM88.9736 74.6748V77.2334H90.5215C90.9577 77.2334 91.3011 77.1211 91.5518 76.8965C91.8057 76.6686 91.9326 76.3561 91.9326 75.959C91.9326 75.1029 91.4671 74.6748 90.5361 74.6748H88.9736ZM88.9736 73.9229H90.3896C90.7998 73.9229 91.127 73.8203 91.3711 73.6152C91.6185 73.4102 91.7422 73.1318 91.7422 72.7803C91.7422 72.3896 91.6283 72.1064 91.4004 71.9307C91.1725 71.7516 90.8258 71.6621 90.3604 71.6621H88.9736V73.9229ZM96.7471 78V70.8906H99.0713C99.8428 70.8906 100.422 71.0501 100.81 71.3691C101.2 71.6882 101.396 72.1602 101.396 72.7852C101.396 73.1172 101.301 73.4118 101.112 73.6689C100.924 73.9229 100.666 74.1198 100.341 74.2598C100.725 74.3672 101.028 74.5723 101.249 74.875C101.474 75.1745 101.586 75.5326 101.586 75.9492C101.586 76.5872 101.379 77.0885 100.966 77.4531C100.552 77.8177 99.9681 78 99.2129 78H96.7471ZM97.6846 74.6748V77.2334H99.2324C99.6686 77.2334 100.012 77.1211 100.263 76.8965C100.517 76.6686 100.644 76.3561 100.644 75.959C100.644 75.1029 100.178 74.6748 99.2471 74.6748H97.6846ZM97.6846 73.9229H99.1006C99.5107 73.9229 99.8379 73.8203 100.082 73.6152C100.329 73.4102 100.453 73.1318 100.453 72.7803C100.453 72.3896 100.339 72.1064 100.111 71.9307C99.8835 71.7516 99.5368 71.6621 99.0713 71.6621H97.6846V73.9229ZM102.597 75.3096C102.597 74.792 102.698 74.3265 102.899 73.9131C103.104 73.4997 103.388 73.1807 103.749 72.9561C104.114 72.7314 104.529 72.6191 104.994 72.6191C105.714 72.6191 106.295 72.8682 106.737 73.3662C107.183 73.8643 107.406 74.5267 107.406 75.3535V75.417C107.406 75.9313 107.307 76.3936 107.108 76.8037C106.913 77.2106 106.632 77.528 106.264 77.7559C105.899 77.9837 105.479 78.0977 105.004 78.0977C104.288 78.0977 103.707 77.8486 103.261 77.3506C102.818 76.8525 102.597 76.1934 102.597 75.373V75.3096ZM103.505 75.417C103.505 76.0029 103.64 76.4733 103.91 76.8281C104.184 77.1829 104.548 77.3604 105.004 77.3604C105.463 77.3604 105.827 77.1813 106.098 76.8232C106.368 76.4619 106.503 75.9574 106.503 75.3096C106.503 74.7301 106.365 74.2614 106.088 73.9033C105.814 73.542 105.45 73.3613 104.994 73.3613C104.548 73.3613 104.188 73.5387 103.915 73.8936C103.642 74.2484 103.505 74.7562 103.505 75.417ZM109.394 72.7168L109.423 73.3809C109.826 72.873 110.354 72.6191 111.005 72.6191C112.121 72.6191 112.685 73.249 112.694 74.5088V78H111.791V74.5039C111.788 74.123 111.7 73.8415 111.527 73.6592C111.358 73.4769 111.093 73.3857 110.731 73.3857C110.438 73.3857 110.181 73.4639 109.96 73.6201C109.739 73.7764 109.566 73.9814 109.442 74.2354V78H108.539V72.7168H109.394ZM117.318 77.4775C116.967 77.891 116.451 78.0977 115.771 78.0977C115.207 78.0977 114.778 77.9349 114.481 77.6094C114.188 77.2806 114.04 76.7956 114.037 76.1543V72.7168H114.94V76.1299C114.94 76.9307 115.266 77.3311 115.917 77.3311C116.607 77.3311 117.066 77.0739 117.294 76.5596V72.7168H118.197V78H117.338L117.318 77.4775ZM122.65 76.5986C122.65 76.3545 122.558 76.1657 122.372 76.0322C122.19 75.8955 121.869 75.7783 121.41 75.6807C120.954 75.583 120.591 75.4658 120.321 75.3291C120.054 75.1924 119.856 75.0296 119.726 74.8408C119.599 74.652 119.535 74.4274 119.535 74.167C119.535 73.734 119.717 73.3678 120.082 73.0684C120.45 72.7689 120.919 72.6191 121.488 72.6191C122.087 72.6191 122.572 72.7738 122.943 73.083C123.318 73.3923 123.505 73.7878 123.505 74.2695H122.597C122.597 74.0221 122.491 73.8089 122.279 73.6299C122.071 73.4508 121.807 73.3613 121.488 73.3613C121.16 73.3613 120.902 73.4329 120.717 73.5762C120.531 73.7194 120.438 73.9066 120.438 74.1377C120.438 74.3558 120.525 74.5202 120.697 74.6309C120.87 74.7415 121.181 74.8473 121.63 74.9482C122.082 75.0492 122.449 75.1696 122.729 75.3096C123.008 75.4495 123.215 75.6188 123.349 75.8174C123.485 76.0127 123.554 76.252 123.554 76.5352C123.554 77.0072 123.365 77.3864 122.987 77.6729C122.61 77.9561 122.12 78.0977 121.518 78.0977C121.094 78.0977 120.72 78.0228 120.395 77.873C120.069 77.7233 119.813 77.515 119.628 77.248C119.446 76.9779 119.354 76.6865 119.354 76.374H120.258C120.274 76.6768 120.395 76.9176 120.619 77.0967C120.847 77.2725 121.146 77.3604 121.518 77.3604C121.859 77.3604 122.133 77.292 122.338 77.1553C122.546 77.0153 122.65 76.8298 122.65 76.5986Z" fill="#1A1A1A"/>
<path d="M265.155 38V28.0469H268.409C269.489 28.0469 270.3 28.2702 270.843 28.7168C271.39 29.1634 271.663 29.8242 271.663 30.6992C271.663 31.1641 271.531 31.5765 271.267 31.9365C271.002 32.292 270.642 32.5677 270.187 32.7637C270.724 32.9141 271.148 33.2012 271.458 33.625C271.772 34.0443 271.93 34.5456 271.93 35.1289C271.93 36.0221 271.64 36.724 271.062 37.2344C270.483 37.7448 269.665 38 268.607 38H265.155ZM266.468 33.3447V36.9268H268.635C269.245 36.9268 269.726 36.7695 270.077 36.4551C270.433 36.1361 270.61 35.6986 270.61 35.1426C270.61 33.944 269.959 33.3447 268.655 33.3447H266.468ZM266.468 32.292H268.45C269.024 32.292 269.482 32.1484 269.824 31.8613C270.171 31.5742 270.344 31.1846 270.344 30.6924C270.344 30.1455 270.184 29.749 269.865 29.5029C269.546 29.2523 269.061 29.127 268.409 29.127H266.468V32.292ZM278.246 37.2686C277.754 37.8473 277.032 38.1367 276.079 38.1367C275.291 38.1367 274.689 37.9089 274.274 37.4531C273.864 36.9928 273.657 36.3138 273.652 35.416V30.6035H274.917V35.3818C274.917 36.5029 275.373 37.0635 276.284 37.0635C277.25 37.0635 277.893 36.7035 278.212 35.9834V30.6035H279.477V38H278.273L278.246 37.2686ZM283.824 36.1475L285.547 30.6035H286.9L283.927 39.1416C283.466 40.3721 282.735 40.9873 281.732 40.9873L281.493 40.9668L281.021 40.8779V39.8525L281.363 39.8799C281.792 39.8799 282.124 39.7933 282.361 39.6201C282.603 39.4469 282.801 39.1302 282.956 38.6699L283.236 37.918L280.598 30.6035H281.979L283.824 36.1475Z" fill="white"/>
<path fill-rule="evenodd" clip-rule="evenodd" d="M35.75 30.6667C35.5 31.6667 35.0833 32.6667 34.5 33.5833C35.5833 32.8333 36.4998 31.8333 37.0832 30.6667H35.75ZM23.25 30.6667H24.5832C24.8332 31.6667 25.2498 32.6667 25.8332 33.5833C24.8332 32.9167 23.9166 31.9167 23.25 30.6667ZM24.6666 23.6667C24.9166 22.6667 25.3333 21.6667 25.9166 20.75C24.8333 21.5 23.9165 22.5 23.3332 23.6667H24.6666ZM37.0832 23.6667H35.75C35.5 22.6667 35.0833 21.6667 34.5 20.75C35.5833 21.4167 36.4998 22.4167 37.0832 23.6667ZM37.6667 25.0833H36.0832C36.3332 26.5 36.3332 27.9167 36.0832 29.3333H37.6667C38.0833 27.9167 38.0833 26.4167 37.6667 25.0833ZM30.9166 25.0833H34.5832C34.6665 25.75 34.75 26.5 34.75 27.1667C34.75 27.9167 34.6665 28.5833 34.5832 29.25H30.9166V25.0833ZM30.9166 30.6667V34.8333C32.3333 34.4167 33.5833 32.8333 34.2499 30.6667H30.9166ZM29.5 30.6667V34.8333C28.0833 34.4167 26.8333 32.8333 26.1666 30.6667H29.5ZM29.5 23.6667V19.5C28.0833 19.9167 26.8333 21.5 26.1666 23.5833H29.5V23.6667ZM34.2499 23.6667H30.9166V19.5C32.3333 19.9167 33.5833 21.5 34.2499 23.6667ZM25.75 25.0833C25.6666 25.75 25.5833 26.5 25.5833 27.1667C25.5833 27.9167 25.6666 28.5833 25.75 29.25H29.4165V25H25.75V25.0833ZM22.4166 27.1667C22.4166 26.4167 22.4999 25.75 22.7499 25.0833H24.3333C24.0833 26.5 24.0833 27.9167 24.3333 29.3333H22.7499C22.4999 28.5833 22.4166 27.9167 22.4166 27.1667ZM30.1667 18C25.0833 18 21 22.0833 21 27.1667C21 32.25 25.0833 36.3333 30.1667 36.3333C35.25 36.3333 39.3333 32.25 39.3333 27.1667C39.3333 24.75 38.3332 22.4167 36.6665 20.6667C34.9165 19 32.5833 18 30.1667 18Z" fill="#5770CB"/>
<defs>
<filter id="filter0_d" x="0" y="0" width="334" height="99" filterUnits="userSpaceOnUse" color-interpolation-filters="sRGB">
<feFlood flood-opacity="0" result="BackgroundImageFix"/>
<feColorMatrix in="SourceAlpha" type="matrix" values="0 0 0 0 0 0 0 0 0 0 0 0 0 0 0 0 0 0 127 0"/>
<feOffset dy="1"/>
<feGaussianBlur stdDeviation="1.5"/>
<feColorMatrix type="matrix" values="0 0 0 0 0 0 0 0 0 0 0 0 0 0 0 0 0 0 0.08 0"/>
<feBlend mode="normal" in2="BackgroundImageFix" result="effect1_dropShadow"/>
<feBlend mode="normal" in="SourceGraphic" in2="effect1_dropShadow" result="shape"/>
</filter>
<filter id="filter1_d" x="0" y="1" width="10" height="98" filterUnits="userSpaceOnUse" color-interpolation-filters="sRGB">
<feFlood flood-opacity="0" result="BackgroundImageFix"/>
<feColorMatrix in="SourceAlpha" type="matrix" values="0 0 0 0 0 0 0 0 0 0 0 0 0 0 0 0 0 0 127 0"/>
<feOffset dy="1"/>
<feGaussianBlur stdDeviation="1.5"/>
<feColorMatrix type="matrix" values="0 0 0 0 0 0 0 0 0 0 0 0 0 0 0 0 0 0 0.08 0"/>
<feBlend mode="normal" in2="BackgroundImageFix" result="effect1_dropShadow"/>
<feBlend mode="normal" in="SourceGraphic" in2="effect1_dropShadow" result="shape"/>
</filter>
</defs>
</svg>
