<svg width="334" height="110" viewBox="0 0 334 110" fill="none" xmlns="http://www.w3.org/2000/svg">
<g id="Group 9">
<g id="Rectangle 5.17" filter="url(#filter0_d)">
<rect x="3" y="2" width="328" height="104" rx="3" fill="white"/>
<rect x="3.5" y="2.5" width="327" height="103" rx="2.5" stroke="black" stroke-opacity="0.12"/>
</g>
<g id="badge_bonus">
<rect id="Rectangle 2.1" x="50" y="72" width="90" height="18" rx="9" fill="#EAF3F5"/>
<path id="Flexplan" d="M63.79 81.88H61.76V83.96C61.76 84.0133 61.6 84.04 61.28 84.04C60.9667 84.04 60.81 84.0133 60.81 83.96V81.88H58.81C58.7567 81.88 58.73 81.7333 58.73 81.44C58.73 81.1533 58.76 81.01 58.82 81.01H60.81V78.97C60.81 78.9167 60.9667 78.89 61.28 78.89C61.6 78.89 61.76 78.9167 61.76 78.97V81.01H63.79C63.8433 81.01 63.87 81.1567 63.87 81.45C63.87 81.7367 63.8433 81.88 63.79 81.88ZM70.1802 80.83C69.4402 81.1767 68.9469 81.49 68.7002 81.77C68.4536 82.05 68.3302 82.43 68.3302 82.91V83.1H71.9202C71.9736 83.1 72.0002 83.2533 72.0002 83.56C72.0002 83.8533 71.9736 84 71.9202 84H67.2202V83.23C67.2202 82.4367 67.3736 81.8233 67.6802 81.39C67.9936 80.95 68.5502 80.54 69.3502 80.16C70.0436 79.8267 70.4936 79.56 70.7002 79.36C70.9069 79.16 71.0102 78.8967 71.0102 78.57C71.0102 78.2367 70.8969 77.97 70.6702 77.77C70.4436 77.5633 70.1269 77.46 69.7202 77.46C69.1736 77.46 68.5802 77.6233 67.9402 77.95C67.9002 77.97 67.8402 77.9133 67.7602 77.78C67.6802 77.6467 67.6169 77.5033 67.5702 77.35C67.5236 77.19 67.5202 77.1 67.5602 77.08C68.2269 76.7133 68.9469 76.53 69.7202 76.53C70.4536 76.53 71.0269 76.7067 71.4402 77.06C71.8536 77.4133 72.0602 77.9167 72.0602 78.57C72.0602 79.13 71.9202 79.57 71.6402 79.89C71.3602 80.2033 70.8736 80.5167 70.1802 80.83ZM75.988 84.14C74.2946 84.14 73.448 83.4533 73.448 82.08V78.61C73.448 77.2233 74.2946 76.53 75.988 76.53C77.648 76.53 78.478 77.2233 78.478 78.61V82.08C78.478 83.4533 77.648 84.14 75.988 84.14ZM77.388 78.73C77.388 78.29 77.2746 77.9767 77.048 77.79C76.828 77.5967 76.4746 77.5 75.988 77.5C75.488 77.5 75.1213 77.5967 74.888 77.79C74.6546 77.9767 74.538 78.29 74.538 78.73V81.95C74.538 82.39 74.6546 82.7033 74.888 82.89C75.1213 83.0767 75.488 83.17 75.988 83.17C76.4813 83.17 76.838 83.08 77.058 82.9C77.278 82.7133 77.388 82.3967 77.388 81.95V78.73ZM88.5982 83.96C88.5982 84.0133 88.4415 84.04 88.1282 84.04C87.7949 84.04 87.6282 84.0133 87.6282 83.96V79.48C87.6282 78.8733 87.6482 78.37 87.6882 77.97H87.6682L85.9182 83.96C85.8982 84.0133 85.7315 84.04 85.4182 84.04C85.0982 84.04 84.9315 84.0133 84.9182 83.96L83.1682 77.96H83.1582C83.2049 78.5667 83.2282 79.07 83.2282 79.47V83.96C83.2282 84.0133 83.0615 84.04 82.7282 84.04C82.4015 84.04 82.2382 84.0133 82.2382 83.96V76.71C82.2382 76.6567 82.4815 76.63 82.9682 76.63C83.4149 76.63 83.6482 76.66 83.6682 76.72L84.8382 80.65C85.0782 81.4833 85.2749 82.28 85.4282 83.04C85.5615 82.3267 85.7582 81.52 86.0182 80.62L87.1582 76.71C87.1715 76.6567 87.3982 76.63 87.8382 76.63C88.3449 76.63 88.5982 76.6567 88.5982 76.71V83.96ZM95.0258 81.66V82.16C95.0258 82.72 94.8424 83.1667 94.4758 83.5C94.1091 83.8333 93.5458 84 92.7858 84H90.2558V76.65H92.8258C93.4858 76.65 93.9824 76.8033 94.3158 77.11C94.6558 77.41 94.8258 77.8367 94.8258 78.39V78.63C94.8258 79.45 94.4891 79.9533 93.8158 80.14C94.1824 80.2333 94.4758 80.4133 94.6958 80.68C94.9158 80.94 95.0258 81.2667 95.0258 81.66ZM93.7658 78.7V78.52C93.7658 77.8733 93.3658 77.55 92.5658 77.55H91.3258V79.7H92.6158C92.9891 79.7 93.2724 79.6233 93.4658 79.47C93.6658 79.3167 93.7658 79.06 93.7658 78.7ZM93.9458 82.03V81.75C93.9458 81.3967 93.8424 81.1167 93.6358 80.91C93.4358 80.7033 93.1324 80.6 92.7258 80.6H91.3258V83.1H92.6558C93.0958 83.1 93.4191 83.0167 93.6258 82.85C93.8391 82.6833 93.9458 82.41 93.9458 82.03ZM103.336 81.66V82.16C103.336 82.72 103.153 83.1667 102.786 83.5C102.42 83.8333 101.856 84 101.096 84H98.5663V76.65H101.136C101.796 76.65 102.293 76.8033 102.626 77.11C102.966 77.41 103.136 77.8367 103.136 78.39V78.63C103.136 79.45 102.8 79.9533 102.126 80.14C102.493 80.2333 102.786 80.4133 103.006 80.68C103.226 80.94 103.336 81.2667 103.336 81.66ZM102.076 78.7V78.52C102.076 77.8733 101.676 77.55 100.876 77.55H99.6363V79.7H100.926C101.3 79.7 101.583 79.6233 101.776 79.47C101.976 79.3167 102.076 79.06 102.076 78.7ZM102.256 82.03V81.75C102.256 81.3967 102.153 81.1167 101.946 80.91C101.746 80.7033 101.443 80.6 101.036 80.6H99.6363V83.1H100.966C101.406 83.1 101.73 83.0167 101.936 82.85C102.15 82.6833 102.256 82.41 102.256 82.03ZM106.798 84.15C106.065 84.15 105.495 83.9767 105.088 83.63C104.688 83.2767 104.488 82.7667 104.488 82.1V80.49C104.488 79.83 104.695 79.3233 105.108 78.97C105.522 78.6167 106.085 78.44 106.798 78.44C107.512 78.44 108.075 78.6167 108.488 78.97C108.908 79.3233 109.118 79.83 109.118 80.49V82.1C109.118 82.76 108.905 83.2667 108.478 83.62C108.052 83.9733 107.492 84.15 106.798 84.15ZM108.068 80.53C108.068 79.73 107.645 79.33 106.798 79.33C106.372 79.33 106.055 79.4267 105.848 79.62C105.642 79.8133 105.538 80.1167 105.538 80.53V82.06C105.538 82.4733 105.642 82.7767 105.848 82.97C106.055 83.1633 106.372 83.26 106.798 83.26C107.645 83.26 108.068 82.86 108.068 82.06V80.53ZM114.829 83.96C114.829 84.0133 114.656 84.04 114.309 84.04C113.956 84.04 113.779 84.0133 113.779 83.96V80.4C113.779 79.7333 113.509 79.4 112.969 79.4C112.702 79.4 112.432 79.4967 112.159 79.69C111.892 79.8767 111.676 80.1033 111.509 80.37V83.96C111.509 84.0133 111.336 84.04 110.989 84.04C110.642 84.04 110.469 84.0133 110.469 83.96V78.62C110.469 78.5667 110.642 78.54 110.989 78.54C111.322 78.54 111.489 78.5667 111.489 78.62V79.35C111.562 79.2433 111.666 79.13 111.799 79.01C111.939 78.8833 112.149 78.7567 112.429 78.63C112.709 78.5033 113.002 78.44 113.309 78.44C113.776 78.4467 114.146 78.6033 114.419 78.91C114.692 79.2167 114.829 79.6167 114.829 80.11V83.96ZM116.249 78.62C116.249 78.5667 116.422 78.54 116.769 78.54C117.122 78.54 117.299 78.5667 117.299 78.62V82.23C117.299 82.5367 117.369 82.7733 117.509 82.94C117.649 83.1067 117.849 83.19 118.109 83.19C118.416 83.19 118.712 83.07 118.999 82.83C119.292 82.59 119.482 82.3833 119.569 82.21V78.62C119.569 78.5667 119.742 78.54 120.089 78.54C120.436 78.54 120.609 78.5667 120.609 78.62V83.96C120.609 84.0133 120.436 84.04 120.089 84.04C119.756 84.04 119.589 84.0133 119.589 83.96V83.25C119.456 83.4433 119.229 83.6433 118.909 83.85C118.589 84.0567 118.209 84.1567 117.769 84.15C117.302 84.1433 116.932 83.9867 116.659 83.68C116.386 83.3733 116.249 82.9733 116.249 82.48V78.62ZM123.639 84.14C123.272 84.14 122.916 84.0867 122.569 83.98C122.222 83.8667 121.952 83.7467 121.759 83.62C121.726 83.6 121.736 83.52 121.789 83.38C121.842 83.24 121.909 83.11 121.989 82.99C122.069 82.8633 122.126 82.81 122.159 82.83C122.679 83.1367 123.156 83.29 123.589 83.29C123.896 83.29 124.129 83.2167 124.289 83.07C124.456 82.9233 124.539 82.7433 124.539 82.53C124.539 82.3167 124.449 82.1367 124.269 81.99C124.089 81.8367 123.869 81.71 123.609 81.61C123.356 81.5033 123.099 81.39 122.839 81.27C122.579 81.15 122.359 80.9767 122.179 80.75C121.999 80.5167 121.909 80.2333 121.909 79.9C121.909 79.4933 122.062 79.15 122.369 78.87C122.676 78.59 123.132 78.45 123.739 78.45C124.359 78.45 124.889 78.56 125.329 78.78C125.382 78.8067 125.366 78.9533 125.279 79.22C125.192 79.48 125.122 79.6033 125.069 79.59C124.556 79.3967 124.106 79.3 123.719 79.3C123.452 79.3 123.249 79.3567 123.109 79.47C122.969 79.5767 122.899 79.71 122.899 79.87C122.899 80.0367 122.989 80.1833 123.169 80.31C123.356 80.4367 123.579 80.55 123.839 80.65C124.099 80.75 124.359 80.8667 124.619 81C124.879 81.1333 125.099 81.3267 125.279 81.58C125.466 81.8267 125.559 82.1267 125.559 82.48C125.559 82.9533 125.386 83.35 125.039 83.67C124.699 83.9833 124.232 84.14 123.639 84.14Z" fill="#1A1A1A"/>
</g>
<g id="icon_heart_outline">
<path id="Vector" d="M277 62.25C276.75 62.25 276.583 62.1667 276.417 62L269.417 55C268.417 54 267.833 52.6667 267.833 51.1667C267.833 49.6667 268.417 48.3333 269.417 47.3333C271.5 45.25 274.917 45.25 277 47.3333C279.083 45.25 282.5 45.25 284.583 47.3333C285.583 48.3333 286.167 49.6667 286.167 51.1667C286.167 52.6667 285.583 54 284.583 55L277.583 62C277.417 62.1667 277.167 62.25 277 62.25ZM273.167 47.4167C272.25 47.4167 271.25 47.75 270.5 48.5C269.833 49.1667 269.417 50.1667 269.417 51.1667C269.417 52.1667 269.833 53.0833 270.5 53.8333L276.917 60.25L283.333 53.8333C284 53.1667 284.417 52.1667 284.417 51.1667C284.417 50.1667 284 49.25 283.333 48.5C281.917 47.0833 279.5 47.0833 278.083 48.5L277.5 49.0833C277.167 49.4167 276.667 49.4167 276.333 49.0833L275.75 48.5C275.083 47.8333 274.167 47.4167 273.167 47.4167Z" fill="black" fill-opacity="0.56"/>
</g>
<circle id="Ellipse" cx="141" cy="55" r="3" fill="black" fill-opacity="0.24"/>
<path id="72 Hours" d="M154.044 58.944L157.6 49.928H152.658C152.583 49.928 152.546 49.7273 152.546 49.326C152.546 48.934 152.583 48.738 152.658 48.738H159.028C159.103 48.738 159.14 48.8687 159.14 49.13C159.14 49.4193 159.112 49.6433 159.056 49.802L155.514 58.944C155.486 59.0187 155.239 59.056 154.772 59.056C154.669 59.056 154.585 59.056 154.52 59.056C154.464 59.056 154.389 59.0513 154.296 59.042C154.203 59.0327 154.133 59.0187 154.086 59C154.049 58.9907 154.035 58.972 154.044 58.944ZM164.417 54.52C163.353 55.0333 162.643 55.4907 162.289 55.892C161.943 56.2933 161.771 56.8487 161.771 57.558V57.838H166.839C166.923 57.838 166.965 58.034 166.965 58.426C166.965 58.8087 166.923 59 166.839 59H160.357V57.936C160.357 56.844 160.571 55.9947 161.001 55.388C161.439 54.7813 162.219 54.2027 163.339 53.652C164.319 53.1667 164.953 52.784 165.243 52.504C165.541 52.2147 165.691 51.832 165.691 51.356C165.691 50.8707 165.523 50.4833 165.187 50.194C164.86 49.8953 164.403 49.746 163.815 49.746C163.049 49.746 162.219 49.9747 161.323 50.432C161.267 50.46 161.187 50.39 161.085 50.222C160.982 50.0447 160.898 49.858 160.833 49.662C160.777 49.4567 160.777 49.34 160.833 49.312C161.747 48.7987 162.741 48.542 163.815 48.542C164.832 48.542 165.621 48.7893 166.181 49.284C166.75 49.7693 167.035 50.46 167.035 51.356C167.035 52.1307 166.839 52.742 166.447 53.19C166.055 53.6287 165.378 54.072 164.417 54.52ZM179.393 58.944C179.393 59.0187 179.159 59.056 178.693 59.056C178.226 59.056 177.993 59.0187 177.993 58.944V54.268H173.485V58.944C173.485 59.0187 173.256 59.056 172.799 59.056C172.332 59.056 172.099 59.0187 172.099 58.944V48.794C172.099 48.7193 172.332 48.682 172.799 48.682C173.256 48.682 173.485 48.7193 173.485 48.794V53.008H177.993V48.794C177.993 48.7193 178.226 48.682 178.693 48.682C179.159 48.682 179.393 48.7193 179.393 48.794V58.944ZM184.606 59.21C183.598 59.21 182.814 58.9673 182.254 58.482C181.703 57.9873 181.428 57.278 181.428 56.354V54.072C181.428 53.148 181.708 52.4433 182.268 51.958C182.837 51.4633 183.617 51.216 184.606 51.216C185.595 51.216 186.375 51.4633 186.944 51.958C187.513 52.4433 187.798 53.148 187.798 54.072V56.354C187.798 57.2687 187.504 57.9733 186.916 58.468C186.337 58.9627 185.567 59.21 184.606 59.21ZM186.454 54.142C186.454 52.966 185.838 52.378 184.606 52.378C183.99 52.378 183.528 52.518 183.22 52.798C182.921 53.078 182.772 53.526 182.772 54.142V56.284C182.772 56.9 182.921 57.348 183.22 57.628C183.528 57.908 183.99 58.048 184.606 58.048C185.838 58.048 186.454 57.46 186.454 56.284V54.142ZM189.649 51.468C189.649 51.3933 189.873 51.356 190.321 51.356C190.778 51.356 191.007 51.3933 191.007 51.468V56.55C191.007 56.998 191.109 57.348 191.315 57.6C191.529 57.8427 191.823 57.964 192.197 57.964C192.645 57.964 193.074 57.7867 193.485 57.432C193.905 57.0773 194.175 56.7833 194.297 56.55V51.468C194.297 51.3933 194.521 51.356 194.969 51.356C195.417 51.356 195.641 51.3933 195.641 51.468V58.944C195.641 59.0187 195.417 59.056 194.969 59.056C194.539 59.056 194.325 59.0187 194.325 58.944V57.894C194.119 58.1927 193.788 58.4867 193.331 58.776C192.883 59.0653 192.36 59.21 191.763 59.21C191.109 59.2007 190.591 58.9813 190.209 58.552C189.835 58.1227 189.649 57.5627 189.649 56.872V51.468ZM201.55 52.756H200.962C200.664 52.756 200.374 52.8867 200.094 53.148C199.824 53.4 199.502 53.806 199.128 54.366V58.944C199.128 59.0187 198.9 59.056 198.442 59.056C198.004 59.056 197.784 59.0187 197.784 58.944V51.468C197.784 51.3933 197.999 51.356 198.428 51.356C198.858 51.356 199.072 51.3933 199.072 51.468V53.106C199.502 52.4247 199.852 51.9673 200.122 51.734C200.402 51.4913 200.748 51.37 201.158 51.37H201.564C201.639 51.37 201.676 51.6033 201.676 52.07C201.676 52.5273 201.634 52.756 201.55 52.756ZM204.942 59.196C204.466 59.196 203.99 59.1213 203.514 58.972C203.038 58.8227 202.665 58.664 202.394 58.496C202.348 58.468 202.357 58.3653 202.422 58.188C202.497 58.0013 202.586 57.8287 202.688 57.67C202.791 57.502 202.866 57.432 202.912 57.46C203.622 57.88 204.28 58.09 204.886 58.09C205.334 58.09 205.675 57.9827 205.908 57.768C206.151 57.544 206.272 57.2733 206.272 56.956C206.272 56.6387 206.146 56.3727 205.894 56.158C205.642 55.934 205.334 55.752 204.97 55.612C204.606 55.4627 204.242 55.304 203.878 55.136C203.514 54.9587 203.206 54.7113 202.954 54.394C202.702 54.0767 202.576 53.6893 202.576 53.232C202.576 52.672 202.791 52.2007 203.22 51.818C203.65 51.426 204.275 51.23 205.096 51.23C205.908 51.23 206.632 51.3793 207.266 51.678C207.332 51.7153 207.308 51.9067 207.196 52.252C207.084 52.588 206.991 52.7467 206.916 52.728C206.254 52.4667 205.638 52.336 205.068 52.336C204.686 52.336 204.387 52.42 204.172 52.588C203.967 52.756 203.864 52.9613 203.864 53.204C203.864 53.4467 203.99 53.6613 204.242 53.848C204.504 54.0253 204.816 54.1887 205.18 54.338C205.544 54.478 205.908 54.6413 206.272 54.828C206.636 55.0147 206.944 55.2853 207.196 55.64C207.458 55.9853 207.588 56.4053 207.588 56.9C207.588 57.544 207.35 58.09 206.874 58.538C206.398 58.9767 205.754 59.196 204.942 59.196Z" fill="#1A1A1A"/>
<g id="Rectangle 5.18" filter="url(#filter1_d)">
<path d="M3 5C3 3.34314 4.34315 2 6 2H7V106H6C4.34315 106 3 104.657 3 103V5Z" fill="#6CDB6C"/>
</g>
<path id="86 MB Facebook Pack" d="M55.88 33.224C54.7067 33.224 53.7573 32.952 53.032 32.408C52.3067 31.864 51.944 31.0693 51.944 30.024V29.72C51.944 29.0587 52.0987 28.4987 52.408 28.04C52.728 27.5813 53.1333 27.2347 53.624 27C53.2613 26.8187 52.9253 26.504 52.616 26.056C52.3067 25.5973 52.152 25.0747 52.152 24.488V24.2C52.152 23.1547 52.488 22.3707 53.16 21.848C53.8427 21.3147 54.7707 21.048 55.944 21.048C57.1173 21.048 58.024 21.3093 58.664 21.832C59.304 22.3547 59.624 23.144 59.624 24.2V24.472C59.624 25.0907 59.4747 25.6187 59.176 26.056C58.888 26.4933 58.536 26.808 58.12 27C58.6107 27.2027 59.0107 27.528 59.32 27.976C59.64 28.4133 59.8 28.9627 59.8 29.624V30.008C59.8 31.0533 59.4373 31.8533 58.712 32.408C57.9867 32.952 57.0427 33.224 55.88 33.224ZM55.88 27.672C55.208 27.672 54.664 27.8267 54.248 28.136C53.8427 28.4453 53.64 28.9307 53.64 29.592V29.912C53.64 30.5413 53.848 31.016 54.264 31.336C54.6907 31.656 55.2293 31.816 55.88 31.816C56.52 31.816 57.0533 31.656 57.48 31.336C57.9067 31.0053 58.12 30.5307 58.12 29.912V29.592C58.12 28.9307 57.9173 28.4453 57.512 28.136C57.1067 27.8267 56.5627 27.672 55.88 27.672ZM53.752 24.28V24.52C53.752 25.1493 53.944 25.624 54.328 25.944C54.7227 26.2533 55.24 26.408 55.88 26.408C56.52 26.408 57.032 26.2533 57.416 25.944C57.8107 25.6347 58.008 25.16 58.008 24.52V24.296C58.008 23.6453 57.832 23.176 57.48 22.888C57.1387 22.5893 56.6107 22.44 55.896 22.44C54.4667 22.44 53.752 23.0533 53.752 24.28ZM66.4675 33.224C65.1448 33.224 64.1475 32.8667 63.4755 32.152C62.8035 31.4267 62.4675 30.472 62.4675 29.288V24.92C62.4675 23.7787 62.7982 22.8507 63.4595 22.136C64.1315 21.4107 65.1502 21.048 66.5155 21.048C67.6675 21.048 68.7395 21.2827 69.7315 21.752C69.7635 21.7733 69.7688 21.8373 69.7475 21.944C69.7368 22.0507 69.7048 22.1787 69.6515 22.328C69.5982 22.4773 69.5395 22.6213 69.4755 22.76C69.4222 22.8987 69.3582 23.0107 69.2835 23.096C69.2195 23.1813 69.1715 23.2133 69.1395 23.192C68.2968 22.7547 67.4595 22.536 66.6275 22.536C65.8062 22.536 65.1928 22.7333 64.7875 23.128C64.3928 23.512 64.1955 24.0453 64.1955 24.728V26.168C64.2382 26.0613 64.3502 25.928 64.5315 25.768C64.7235 25.608 65.0275 25.4533 65.4435 25.304C65.8595 25.144 66.3075 25.064 66.7875 25.064C67.8755 25.064 68.7555 25.3733 69.4275 25.992C70.0995 26.6107 70.4355 27.464 70.4355 28.552V29.624C70.4355 30.744 70.0675 31.624 69.3315 32.264C68.6062 32.904 67.6515 33.224 66.4675 33.224ZM68.7075 29.576V28.712C68.7075 28.0293 68.5208 27.496 68.1475 27.112C67.7742 26.7173 67.2462 26.52 66.5635 26.52C65.8168 26.52 65.2355 26.7173 64.8195 27.112C64.4035 27.5067 64.1955 28.04 64.1955 28.712V29.496C64.1955 30.2213 64.3928 30.7867 64.7875 31.192C65.1822 31.5973 65.7422 31.8 66.4675 31.8C67.1502 31.8 67.6942 31.6133 68.0995 31.24C68.5048 30.856 68.7075 30.3013 68.7075 29.576ZM86.6134 32.936C86.6134 33.0213 86.3627 33.064 85.8614 33.064C85.328 33.064 85.0614 33.0213 85.0614 32.936V25.768C85.0614 24.7973 85.0934 23.992 85.1574 23.352H85.1254L82.3254 32.936C82.2934 33.0213 82.0267 33.064 81.5254 33.064C81.0134 33.064 80.7467 33.0213 80.7254 32.936L77.9254 23.336H77.9094C77.984 24.3067 78.0214 25.112 78.0214 25.752V32.936C78.0214 33.0213 77.7547 33.064 77.2214 33.064C76.6987 33.064 76.4374 33.0213 76.4374 32.936V21.336C76.4374 21.2507 76.8267 21.208 77.6054 21.208C78.32 21.208 78.6934 21.256 78.7254 21.352L80.5974 27.64C80.9814 28.9733 81.296 30.248 81.5414 31.464C81.7547 30.3227 82.0694 29.032 82.4854 27.592L84.3094 21.336C84.3307 21.2507 84.6934 21.208 85.3974 21.208C86.208 21.208 86.6134 21.2507 86.6134 21.336V32.936ZM96.8975 29.256V30.056C96.8975 30.952 96.6042 31.6667 96.0175 32.2C95.4308 32.7333 94.5295 33 93.3135 33H89.2655V21.24H93.3775C94.4335 21.24 95.2282 21.4853 95.7615 21.976C96.3055 22.456 96.5775 23.1387 96.5775 24.024V24.408C96.5775 25.72 96.0388 26.5253 94.9615 26.824C95.5482 26.9733 96.0175 27.2613 96.3695 27.688C96.7215 28.104 96.8975 28.6267 96.8975 29.256ZM94.8815 24.52V24.232C94.8815 23.1973 94.2415 22.68 92.9615 22.68H90.9775V26.12H93.0415C93.6388 26.12 94.0922 25.9973 94.4015 25.752C94.7215 25.5067 94.8815 25.096 94.8815 24.52ZM95.1695 29.848V29.4C95.1695 28.8347 95.0042 28.3867 94.6735 28.056C94.3535 27.7253 93.8682 27.56 93.2175 27.56H90.9775V31.56H93.1055C93.8095 31.56 94.3268 31.4267 94.6575 31.16C94.9988 30.8933 95.1695 30.456 95.1695 29.848ZM108.706 22.008C108.706 22.5093 108.658 22.76 108.562 22.76H104.29V26.488H108.178C108.264 26.488 108.306 26.7333 108.306 27.224C108.306 27.7573 108.264 28.024 108.178 28.024H104.29V32.936C104.29 33.0213 104.002 33.064 103.426 33.064C102.85 33.064 102.562 33.0213 102.562 32.936V21.272H108.578C108.664 21.272 108.706 21.5173 108.706 22.008ZM116.727 32.936C116.727 33.0213 116.476 33.064 115.975 33.064C115.431 33.064 115.159 33.0213 115.159 32.936V32.12C114.316 32.8347 113.436 33.192 112.519 33.192C111.676 33.192 111.01 32.952 110.519 32.472C110.028 31.992 109.783 31.352 109.783 30.552V30.168C109.783 29.2187 110.21 28.5253 111.063 28.088C111.927 27.64 113.287 27.5547 115.143 27.832V27.288C115.143 26.68 115.01 26.2533 114.743 26.008C114.476 25.752 114.023 25.624 113.383 25.624C112.476 25.624 111.655 25.8 110.919 26.152C110.876 26.184 110.812 26.12 110.727 25.96C110.514 25.5653 110.412 25.2133 110.423 24.904C110.423 24.808 110.444 24.7493 110.487 24.728C111.34 24.3547 112.327 24.168 113.447 24.168C115.634 24.168 116.727 25.2187 116.727 27.32V32.936ZM115.143 30.872V28.984C113.991 28.7813 113.068 28.776 112.375 28.968C111.692 29.16 111.351 29.5387 111.351 30.104V30.472C111.351 30.8987 111.49 31.2293 111.767 31.464C112.055 31.688 112.444 31.8 112.935 31.8C113.735 31.8 114.471 31.4907 115.143 30.872ZM122.18 33.24C121.124 33.24 120.292 32.9573 119.684 32.392C119.076 31.8267 118.772 31.016 118.772 29.96V27.4C118.772 26.3547 119.076 25.5493 119.684 24.984C120.303 24.408 121.135 24.12 122.18 24.12C123.375 24.12 124.345 24.4133 125.092 25C125.156 25.0427 125.151 25.1813 125.076 25.416C125.001 25.6507 124.895 25.864 124.756 26.056C124.617 26.248 124.5 26.3173 124.404 26.264C124.383 26.2533 124.297 26.2053 124.148 26.12C123.999 26.0347 123.876 25.9707 123.78 25.928C123.684 25.8747 123.551 25.816 123.38 25.752C123.22 25.6773 123.055 25.624 122.884 25.592C122.713 25.56 122.543 25.544 122.372 25.544C121.092 25.544 120.452 26.2213 120.452 27.576V29.896C120.452 31.1867 121.092 31.832 122.372 31.832C123.012 31.832 123.7 31.576 124.436 31.064C124.521 31 124.639 31.064 124.788 31.256C124.937 31.4373 125.049 31.6453 125.124 31.88C125.209 32.104 125.215 32.2427 125.14 32.296C124.831 32.5413 124.404 32.76 123.86 32.952C123.327 33.144 122.767 33.24 122.18 33.24ZM133.531 29.336H128.155V29.992C128.155 30.5893 128.32 31.0533 128.651 31.384C128.992 31.7147 129.493 31.88 130.155 31.88C130.944 31.88 131.819 31.6453 132.779 31.176C132.821 31.144 132.907 31.224 133.035 31.416C133.163 31.608 133.269 31.8107 133.355 32.024C133.44 32.2373 133.456 32.36 133.403 32.392C132.411 32.9573 131.296 33.24 130.059 33.24C128.971 33.24 128.112 32.9467 127.483 32.36C126.853 31.7627 126.539 30.952 126.539 29.928V27.576C126.539 26.4987 126.853 25.6507 127.483 25.032C128.112 24.4133 128.944 24.104 129.979 24.104C131.131 24.104 132.011 24.4133 132.619 25.032C133.227 25.6507 133.531 26.5307 133.531 27.672V29.336ZM131.899 28.088V27.448C131.899 26.808 131.728 26.3173 131.387 25.976C131.045 25.624 130.587 25.448 130.011 25.448C129.435 25.448 128.976 25.624 128.635 25.976C128.304 26.3173 128.139 26.8027 128.139 27.432V28.088H131.899ZM143.014 27.336V29.976C143.014 31.032 142.667 31.8427 141.974 32.408C141.291 32.9627 140.395 33.24 139.286 33.24C138.112 33.24 137.2 32.9627 136.549 32.408C135.899 31.8427 135.574 31.032 135.574 29.976V21.144C135.574 21.0587 135.851 21.016 136.406 21.016C136.971 21.016 137.254 21.0587 137.254 21.144V25.336C137.755 24.5253 138.64 24.12 139.91 24.12C140.774 24.12 141.504 24.3973 142.102 24.952C142.71 25.5067 143.014 26.3013 143.014 27.336ZM141.334 29.88V27.608C141.334 26.9147 141.163 26.408 140.822 26.088C140.491 25.7573 140.048 25.592 139.494 25.592C138.822 25.592 138.278 25.8107 137.862 26.248C137.456 26.6853 137.254 27.2347 137.254 27.896V29.88C137.254 31.1707 137.931 31.816 139.286 31.816C140.651 31.816 141.334 31.1707 141.334 29.88ZM148.624 33.24C147.451 33.24 146.539 32.9627 145.888 32.408C145.248 31.8427 144.928 31.0267 144.928 29.96V27.384C144.928 26.328 145.259 25.5173 145.92 24.952C146.582 24.3867 147.483 24.104 148.624 24.104C149.766 24.104 150.667 24.3867 151.328 24.952C152 25.5173 152.336 26.328 152.336 27.384V29.96C152.336 31.016 151.995 31.8267 151.312 32.392C150.63 32.9573 149.734 33.24 148.624 33.24ZM150.656 27.448C150.656 26.168 149.979 25.528 148.624 25.528C147.942 25.528 147.435 25.6827 147.104 25.992C146.774 26.3013 146.608 26.7867 146.608 27.448V29.896C146.608 30.5573 146.774 31.0427 147.104 31.352C147.435 31.6613 147.942 31.816 148.624 31.816C149.979 31.816 150.656 31.176 150.656 29.896V27.448ZM157.921 33.24C156.748 33.24 155.836 32.9627 155.185 32.408C154.545 31.8427 154.225 31.0267 154.225 29.96V27.384C154.225 26.328 154.556 25.5173 155.217 24.952C155.879 24.3867 156.78 24.104 157.921 24.104C159.063 24.104 159.964 24.3867 160.625 24.952C161.297 25.5173 161.633 26.328 161.633 27.384V29.96C161.633 31.016 161.292 31.8267 160.609 32.392C159.927 32.9573 159.031 33.24 157.921 33.24ZM159.953 27.448C159.953 26.168 159.276 25.528 157.921 25.528C157.239 25.528 156.732 25.6827 156.401 25.992C156.071 26.3013 155.905 26.7867 155.905 27.448V29.896C155.905 30.5573 156.071 31.0427 156.401 31.352C156.732 31.6613 157.239 31.816 157.921 31.816C159.276 31.816 159.953 31.176 159.953 29.896V27.448ZM170.658 24.408L167.394 28.136L170.85 32.936C170.871 32.968 170.855 32.9893 170.802 33C170.759 33.0213 170.669 33.0373 170.53 33.048C170.402 33.0587 170.29 33.064 170.194 33.064C170.109 33.064 169.986 33.064 169.826 33.064C169.207 33.064 168.861 33.0213 168.786 32.936L166.13 29.24L165.49 29.912V32.936C165.49 33.0213 165.207 33.064 164.642 33.064C164.087 33.064 163.81 33.0213 163.81 32.936V21.144C163.81 21.0587 164.087 21.016 164.642 21.016C165.207 21.016 165.49 21.0587 165.49 21.144V27.88L168.53 24.424C168.626 24.328 169.01 24.28 169.682 24.28C169.842 24.28 169.965 24.28 170.05 24.28C170.146 24.28 170.253 24.2853 170.37 24.296C170.498 24.3067 170.583 24.3227 170.626 24.344C170.679 24.3547 170.69 24.376 170.658 24.408ZM182.953 24.584V25.544C182.953 26.536 182.654 27.3413 182.057 27.96C181.459 28.568 180.547 28.872 179.321 28.872H177.369V32.936C177.369 33.0213 177.081 33.064 176.505 33.064C175.918 33.064 175.625 33.0213 175.625 32.936V21.272H179.369C180.574 21.272 181.47 21.5653 182.057 22.152C182.654 22.7387 182.953 23.5493 182.953 24.584ZM181.209 25.416V24.696C181.209 24.0133 181.054 23.512 180.745 23.192C180.435 22.872 179.897 22.712 179.129 22.712H177.369V27.432H179.129C179.897 27.432 180.435 27.2667 180.745 26.936C181.054 26.5947 181.209 26.088 181.209 25.416ZM191.008 32.936C191.008 33.0213 190.757 33.064 190.256 33.064C189.712 33.064 189.44 33.0213 189.44 32.936V32.12C188.597 32.8347 187.717 33.192 186.8 33.192C185.957 33.192 185.291 32.952 184.8 32.472C184.309 31.992 184.064 31.352 184.064 30.552V30.168C184.064 29.2187 184.491 28.5253 185.344 28.088C186.208 27.64 187.568 27.5547 189.424 27.832V27.288C189.424 26.68 189.291 26.2533 189.024 26.008C188.757 25.752 188.304 25.624 187.664 25.624C186.757 25.624 185.936 25.8 185.2 26.152C185.157 26.184 185.093 26.12 185.008 25.96C184.795 25.5653 184.693 25.2133 184.704 24.904C184.704 24.808 184.725 24.7493 184.768 24.728C185.621 24.3547 186.608 24.168 187.728 24.168C189.915 24.168 191.008 25.2187 191.008 27.32V32.936ZM189.424 30.872V28.984C188.272 28.7813 187.349 28.776 186.656 28.968C185.973 29.16 185.632 29.5387 185.632 30.104V30.472C185.632 30.8987 185.771 31.2293 186.048 31.464C186.336 31.688 186.725 31.8 187.216 31.8C188.016 31.8 188.752 31.4907 189.424 30.872ZM196.461 33.24C195.405 33.24 194.573 32.9573 193.965 32.392C193.357 31.8267 193.053 31.016 193.053 29.96V27.4C193.053 26.3547 193.357 25.5493 193.965 24.984C194.584 24.408 195.416 24.12 196.461 24.12C197.656 24.12 198.627 24.4133 199.373 25C199.437 25.0427 199.432 25.1813 199.357 25.416C199.283 25.6507 199.176 25.864 199.037 26.056C198.899 26.248 198.781 26.3173 198.685 26.264C198.664 26.2533 198.579 26.2053 198.429 26.12C198.28 26.0347 198.157 25.9707 198.061 25.928C197.965 25.8747 197.832 25.816 197.661 25.752C197.501 25.6773 197.336 25.624 197.165 25.592C196.995 25.56 196.824 25.544 196.653 25.544C195.373 25.544 194.733 26.2213 194.733 27.576V29.896C194.733 31.1867 195.373 31.832 196.653 31.832C197.293 31.832 197.981 31.576 198.717 31.064C198.803 31 198.92 31.064 199.069 31.256C199.219 31.4373 199.331 31.6453 199.405 31.88C199.491 32.104 199.496 32.2427 199.421 32.296C199.112 32.5413 198.685 32.76 198.141 32.952C197.608 33.144 197.048 33.24 196.461 33.24ZM208.08 24.408L204.816 28.136L208.272 32.936C208.293 32.968 208.277 32.9893 208.224 33C208.181 33.0213 208.091 33.0373 207.952 33.048C207.824 33.0587 207.712 33.064 207.616 33.064C207.531 33.064 207.408 33.064 207.248 33.064C206.629 33.064 206.283 33.0213 206.208 32.936L203.552 29.24L202.912 29.912V32.936C202.912 33.0213 202.629 33.064 202.064 33.064C201.509 33.064 201.232 33.0213 201.232 32.936V21.144C201.232 21.0587 201.509 21.016 202.064 21.016C202.629 21.016 202.912 21.0587 202.912 21.144V27.88L205.952 24.424C206.048 24.328 206.432 24.28 207.104 24.28C207.264 24.28 207.387 24.28 207.472 24.28C207.568 24.28 207.675 24.2853 207.792 24.296C207.92 24.3067 208.005 24.3227 208.048 24.344C208.101 24.3547 208.112 24.376 208.08 24.408Z" fill="#1A1A1A"/>
<path id="Flexplan_2" d="M58.728 56.9H57.426V58.944C57.426 59.0187 57.2113 59.056 56.782 59.056C56.3247 59.056 56.096 59.0187 56.096 58.944V56.9H51.686C51.63 56.9 51.602 56.76 51.602 56.48C51.602 56.2373 51.6253 56.0787 51.672 56.004L56.25 48.78C56.2967 48.7147 56.502 48.682 56.866 48.682C57.2393 48.682 57.426 48.7147 57.426 48.78V55.724H58.728C58.8027 55.724 58.84 55.92 58.84 56.312C58.84 56.704 58.8027 56.9 58.728 56.9ZM53.198 55.724H56.096V51.118L53.198 55.724ZM66.1826 58.468C65.5572 58.9533 64.7406 59.196 63.7326 59.196C62.7246 59.196 61.9079 58.958 61.2826 58.482C60.6572 57.9967 60.3446 57.306 60.3446 56.41V56.144C60.3446 55.5467 60.4892 55.0473 60.7786 54.646C61.0679 54.2447 61.4272 53.946 61.8566 53.75C61.5392 53.5913 61.2406 53.316 60.9606 52.924C60.6806 52.5227 60.5406 52.056 60.5406 51.524V51.3C60.5406 50.3947 60.8252 49.7087 61.3946 49.242C61.9639 48.7753 62.7572 48.542 63.7746 48.542C64.7919 48.542 65.5759 48.7753 66.1266 49.242C66.6772 49.6993 66.9526 50.3853 66.9526 51.3V51.51C66.9526 52.07 66.8219 52.5413 66.5606 52.924C66.2992 53.3067 65.9819 53.582 65.6086 53.75C66.0472 53.9273 66.4066 54.2073 66.6866 54.59C66.9759 54.9727 67.1206 55.4673 67.1206 56.074V56.396C67.1206 57.292 66.8079 57.9827 66.1826 58.468ZM63.7326 54.296C63.1166 54.296 62.6219 54.436 62.2486 54.716C61.8846 54.996 61.7026 55.4393 61.7026 56.046V56.326C61.7026 56.8953 61.8939 57.3293 62.2766 57.628C62.6592 57.9173 63.1446 58.062 63.7326 58.062C64.3112 58.062 64.7919 57.9127 65.1746 57.614C65.5666 57.3153 65.7626 56.886 65.7626 56.326V56.046C65.7626 54.8793 65.0859 54.296 63.7326 54.296ZM61.8146 51.342V51.552C61.8146 52.1307 61.9919 52.5647 62.3466 52.854C62.7012 53.134 63.1632 53.274 63.7326 53.274C64.3206 53.274 64.7872 53.134 65.1326 52.854C65.4779 52.5647 65.6506 52.1307 65.6506 51.552V51.356C65.6506 50.7587 65.4919 50.3293 65.1746 50.068C64.8572 49.7973 64.3812 49.662 63.7466 49.662C62.4586 49.662 61.8146 50.222 61.8146 51.342ZM78.7084 49.312C78.7084 49.704 78.6711 49.9 78.5964 49.9H75.7684V58.944C75.7684 59.0187 75.5351 59.056 75.0684 59.056C74.6017 59.056 74.3684 59.0187 74.3684 58.944V49.9H71.4984C71.4237 49.9 71.3864 49.704 71.3864 49.312C71.3864 48.9293 71.4237 48.738 71.4984 48.738H78.5964C78.6711 48.738 78.7084 48.9293 78.7084 49.312ZM85.6833 51.482L82.7853 54.772L85.8512 58.944C85.8699 58.972 85.8559 58.9907 85.8093 59C85.7719 59.0187 85.6973 59.0327 85.5853 59.042C85.4826 59.0513 85.3939 59.056 85.3193 59.056C85.2446 59.056 85.1466 59.056 85.0253 59.056C84.5306 59.056 84.2506 59.0187 84.1853 58.944L81.7773 55.654L81.2313 56.228V58.944C81.2313 59.0187 81.0026 59.056 80.5453 59.056C80.1066 59.056 79.8873 59.0187 79.8873 58.944V48.626C79.8873 48.5513 80.1113 48.514 80.5593 48.514C81.0073 48.514 81.2313 48.5513 81.2313 48.626V54.59L83.9753 51.482C84.0499 51.4073 84.3533 51.37 84.8853 51.37C85.0159 51.37 85.1139 51.37 85.1793 51.37C85.2539 51.37 85.3426 51.3747 85.4453 51.384C85.5479 51.3933 85.6179 51.4073 85.6553 51.426C85.6926 51.4353 85.7019 51.454 85.6833 51.482Z" fill="#007AD0"/>
<path id="Flexplan_3" d="M95.204 57.166C96.0907 57.6887 96.912 57.95 97.668 57.95C98.2 57.95 98.6293 57.824 98.956 57.572C99.2827 57.3107 99.446 56.942 99.446 56.466V55.934C99.446 55.402 99.2967 55.0147 98.998 54.772C98.6993 54.5293 98.2467 54.408 97.64 54.408H96.842C96.758 54.408 96.716 54.2027 96.716 53.792C96.716 53.3813 96.758 53.176 96.842 53.176H97.724C98.8533 53.176 99.418 52.672 99.418 51.664V51.202C99.418 50.7633 99.264 50.418 98.956 50.166C98.6573 49.9047 98.2513 49.774 97.738 49.774C96.9727 49.774 96.198 50.012 95.414 50.488C95.3673 50.516 95.2833 50.446 95.162 50.278C95.0407 50.1007 94.9427 49.914 94.868 49.718C94.7933 49.522 94.784 49.4053 94.84 49.368C95.176 49.144 95.61 48.948 96.142 48.78C96.674 48.612 97.2293 48.528 97.808 48.528C98.648 48.528 99.3527 48.752 99.922 49.2C100.491 49.648 100.776 50.2873 100.776 51.118V51.748C100.776 52.2893 100.617 52.7373 100.3 53.092C99.992 53.4467 99.6047 53.6753 99.138 53.778C99.6047 53.8713 100.006 54.1093 100.342 54.492C100.678 54.8653 100.846 55.3227 100.846 55.864V56.466C100.846 57.2967 100.552 57.964 99.964 58.468C99.3853 58.9627 98.6247 59.21 97.682 59.21C96.6273 59.21 95.624 58.9253 94.672 58.356C94.6067 58.3187 94.6067 58.1973 94.672 57.992C94.7373 57.7773 94.826 57.5813 94.938 57.404C95.0593 57.2173 95.148 57.138 95.204 57.166ZM108.554 58.468C107.928 58.9533 107.112 59.196 106.104 59.196C105.096 59.196 104.279 58.958 103.654 58.482C103.028 57.9967 102.716 57.306 102.716 56.41V56.144C102.716 55.5467 102.86 55.0473 103.15 54.646C103.439 54.2447 103.798 53.946 104.228 53.75C103.91 53.5913 103.612 53.316 103.332 52.924C103.052 52.5227 102.912 52.056 102.912 51.524V51.3C102.912 50.3947 103.196 49.7087 103.766 49.242C104.335 48.7753 105.128 48.542 106.146 48.542C107.163 48.542 107.947 48.7753 108.498 49.242C109.048 49.6993 109.324 50.3853 109.324 51.3V51.51C109.324 52.07 109.193 52.5413 108.932 52.924C108.67 53.3067 108.353 53.582 107.98 53.75C108.418 53.9273 108.778 54.2073 109.058 54.59C109.347 54.9727 109.492 55.4673 109.492 56.074V56.396C109.492 57.292 109.179 57.9827 108.554 58.468ZM106.104 54.296C105.488 54.296 104.993 54.436 104.62 54.716C104.256 54.996 104.074 55.4393 104.074 56.046V56.326C104.074 56.8953 104.265 57.3293 104.648 57.628C105.03 57.9173 105.516 58.062 106.104 58.062C106.682 58.062 107.163 57.9127 107.546 57.614C107.938 57.3153 108.134 56.886 108.134 56.326V56.046C108.134 54.8793 107.457 54.296 106.104 54.296ZM104.186 51.342V51.552C104.186 52.1307 104.363 52.5647 104.718 52.854C105.072 53.134 105.534 53.274 106.104 53.274C106.692 53.274 107.158 53.134 107.504 52.854C107.849 52.5647 108.022 52.1307 108.022 51.552V51.356C108.022 50.7587 107.863 50.3293 107.546 50.068C107.228 49.7973 106.752 49.662 106.118 49.662C104.83 49.662 104.186 50.222 104.186 51.342ZM121.079 49.312C121.079 49.704 121.042 49.9 120.968 49.9H118.14V58.944C118.14 59.0187 117.906 59.056 117.44 59.056C116.973 59.056 116.74 59.0187 116.74 58.944V49.9H113.87C113.795 49.9 113.758 49.704 113.758 49.312C113.758 48.9293 113.795 48.738 113.87 48.738H120.968C121.042 48.738 121.079 48.9293 121.079 49.312ZM123.742 55.304V58.944C123.742 59.0187 123.509 59.056 123.042 59.056C122.585 59.056 122.356 59.0187 122.356 58.944V48.794C122.356 48.7193 122.59 48.682 123.056 48.682C123.514 48.682 123.742 48.7193 123.742 48.794V53.568L127.522 48.808C127.597 48.724 127.854 48.682 128.292 48.682C128.432 48.682 128.54 48.682 128.614 48.682C128.689 48.682 128.782 48.6867 128.894 48.696C129.006 48.7053 129.081 48.7193 129.118 48.738C129.156 48.7473 129.165 48.766 129.146 48.794L125.548 53.33L129.216 58.944C129.291 59.0187 129.016 59.056 128.39 59.056C127.905 59.056 127.634 59.0187 127.578 58.944L124.582 54.282L123.742 55.304Z" fill="#767676"/>
<line id="Line" x1="92" y1="54.5" x2="130" y2="54.5" stroke="black" stroke-opacity="0.38"/>
<g id="icon_chevron-right">
<path id="Vector_2" d="M311.083 48.4167C310.75 48.0833 310.25 48.0833 309.917 48.4167C309.583 48.75 309.583 49.25 309.917 49.5833L314.333 54L309.917 58.4167C309.75 58.5833 309.667 58.75 309.667 59C309.667 59.25 309.75 59.4167 309.917 59.5833C310.083 59.75 310.25 59.8333 310.5 59.8333C310.75 59.8333 310.917 59.75 311.083 59.5833L316.083 54.5833C316.25 54.4167 316.333 54.25 316.333 54C316.333 53.75 316.25 53.5833 316.083 53.4167L311.083 48.4167Z" fill="#007AD0"/>
</g>
<g id="icon_social">
<path id="Vector_3" d="M31.6667 33.0832C30.8334 33.4999 29.9167 33.7499 29.0001 33.7499C28.0834 33.7499 27.1667 33.4999 26.4167 33.0832C26.0833 33.5832 25.6666 33.9999 25.0833 34.2499C26.2499 34.9999 27.5834 35.4166 29.0001 35.4166C30.5001 35.4166 31.8333 34.9999 32.9999 34.2499C32.4166 33.9999 32 33.5832 31.6667 33.0832Z" fill="#6CDB6C"/>
<path id="Vector_4" d="M34.5 27.1666C34.5833 27.1666 34.7501 27.1666 34.8334 27.1666C35.3334 27.1666 35.75 27.25 36.25 27.4166C36 25.0833 34.6667 23.0833 32.7501 21.9166C32.6667 22.5 32.5 23.0833 32.25 23.5833C33.4167 24.4166 34.25 25.6666 34.5 27.1666Z" fill="#6CDB6C"/>
<path id="Vector_5" d="M23.4164 27.1666C23.6664 25.6666 24.4999 24.4166 25.6665 23.5833C25.3332 23.0833 25.1665 22.5 25.1665 21.9166C23.2498 23.0833 21.9165 25.0833 21.6665 27.5C22.1665 27.3333 22.6665 27.1666 23.1665 27.1666C23.2499 27.1666 23.333 27.1666 23.4164 27.1666Z" fill="#6CDB6C"/>
<path id="Vector_6" d="M28.9166 24.5833C30.5833 24.5833 31.9167 23.25 31.9167 21.5833C31.9167 19.9166 30.5833 18.5833 28.9166 18.5833C27.2499 18.5833 25.9165 19.9166 25.9165 21.5833C25.9165 23.25 27.3333 24.5833 28.9166 24.5833ZM28.9166 20.25C29.6666 20.25 30.25 20.8333 30.25 21.5833C30.25 22.3333 29.6666 22.9166 28.9166 22.9166C28.1666 22.9166 27.5832 22.3333 27.5832 21.5833C27.5832 20.8333 28.2499 20.25 28.9166 20.25Z" fill="#6CDB6C"/>
<path id="Vector_7" d="M26.1665 30.9166C26.1665 29.2499 24.8333 27.9166 23.1666 27.9166C21.4999 27.9166 20.1665 29.2499 20.1665 30.9166C20.1665 32.5833 21.4999 33.9166 23.1666 33.9166C24.8333 33.9166 26.1665 32.5833 26.1665 30.9166ZM23.1666 32.2499C22.4166 32.2499 21.8332 31.6666 21.8332 30.9166C21.8332 30.1666 22.4166 29.5833 23.1666 29.5833C23.9166 29.5833 24.4998 30.1666 24.4998 30.9166C24.4998 31.6666 23.9166 32.2499 23.1666 32.2499Z" fill="#6CDB6C"/>
<path id="Vector_8" d="M34.8333 27.9999C33.1667 27.9999 31.8333 29.3332 31.8333 30.9999C31.8333 32.6666 33.1667 33.9999 34.8333 33.9999C36.5 33.9999 37.8332 32.6666 37.8332 30.9999C37.8332 29.3332 36.5 27.9999 34.8333 27.9999ZM36.1665 30.9166C36.1665 31.6666 35.5833 32.2499 34.8333 32.2499C34.0833 32.2499 33.4999 31.6666 33.4999 30.9166C33.4999 30.1666 34.0833 29.5832 34.8333 29.5832C35.5833 29.5832 36.1665 30.2499 36.1665 30.9166Z" fill="#6CDB6C"/>
</g>
</g>
<defs>
<filter id="filter0_d" x="0" y="0" width="334" height="110" filterUnits="userSpaceOnUse" color-interpolation-filters="sRGB">
<feFlood flood-opacity="0" result="BackgroundImageFix"/>
<feColorMatrix in="SourceAlpha" type="matrix" values="0 0 0 0 0 0 0 0 0 0 0 0 0 0 0 0 0 0 127 0"/>
<feOffset dy="1"/>
<feGaussianBlur stdDeviation="1.5"/>
<feColorMatrix type="matrix" values="0 0 0 0 0 0 0 0 0 0 0 0 0 0 0 0 0 0 0.08 0"/>
<feBlend mode="normal" in2="BackgroundImageFix" result="effect1_dropShadow"/>
<feBlend mode="normal" in="SourceGraphic" in2="effect1_dropShadow" result="shape"/>
</filter>
<filter id="filter1_d" x="0" y="0" width="10" height="110" filterUnits="userSpaceOnUse" color-interpolation-filters="sRGB">
<feFlood flood-opacity="0" result="BackgroundImageFix"/>
<feColorMatrix in="SourceAlpha" type="matrix" values="0 0 0 0 0 0 0 0 0 0 0 0 0 0 0 0 0 0 127 0"/>
<feOffset dy="1"/>
<feGaussianBlur stdDeviation="1.5"/>
<feColorMatrix type="matrix" values="0 0 0 0 0 0 0 0 0 0 0 0 0 0 0 0 0 0 0.08 0"/>
<feBlend mode="normal" in2="BackgroundImageFix" result="effect1_dropShadow"/>
<feBlend mode="normal" in="SourceGraphic" in2="effect1_dropShadow" result="shape"/>
</filter>
</defs>
</svg>