<svg width="360" height="72" viewBox="0 0 360 72" fill="none" xmlns="http://www.w3.org/2000/svg">
<rect width="360" height="72" fill="#EAF3F5"/>
<path d="M82.016 23.544C81.2907 23.544 80.5973 23.3733 79.936 23.032C79.2747 22.6907 78.6507 22.1147 78.064 21.304C77.488 20.4827 76.9547 19.3573 76.464 17.928L77.632 17.544C78.1973 19.2187 78.8213 20.4347 79.504 21.192C80.1973 21.9493 81.0453 22.328 82.048 22.328C82.9333 22.328 83.5573 22.1253 83.92 21.72C84.2933 21.3147 84.48 20.808 84.48 20.2C84.48 19.5813 84.3093 19.08 83.968 18.696C83.6373 18.312 83.2213 18.12 82.72 18.12C82.0053 18.12 81.648 18.4293 81.648 19.048C81.648 19.1227 81.6587 19.224 81.68 19.352C81.7013 19.48 81.7333 19.5973 81.776 19.704L80.56 19.944C80.4853 19.72 80.4267 19.5173 80.384 19.336C80.352 19.144 80.336 18.9627 80.336 18.792C80.336 18.4187 80.4373 18.104 80.64 17.848C80.8427 17.5813 81.104 17.3787 81.424 17.24C81.328 17.0053 81.1787 16.7973 80.976 16.616C80.784 16.4347 80.5227 16.2907 80.192 16.184H75.84V15.048H90.368C90.656 15.048 90.928 15.1333 91.184 15.304C91.4507 15.4747 91.6693 15.7253 91.84 16.056C91.8293 16.0027 91.8133 15.88 91.792 15.688C91.7813 15.496 91.776 15.3307 91.776 15.192V13.992H92.624L92.992 15.048H94.688V16.184H93.008V25H91.776V17.336C91.5947 16.92 91.3867 16.6267 91.152 16.456C90.928 16.2747 90.6613 16.184 90.352 16.184H88.768V25H87.536C87.2373 24.4027 86.8747 23.88 86.448 23.432C86.0213 22.9733 85.568 22.5733 85.088 22.232C84.7893 22.6267 84.384 22.9467 83.872 23.192C83.36 23.4267 82.7413 23.544 82.016 23.544ZM85.696 20.296C85.696 20.616 85.6533 20.9253 85.568 21.224C85.952 21.4693 86.3307 21.7787 86.704 22.152C87.088 22.5147 87.3813 22.8827 87.584 23.256C87.5733 23.0213 87.5627 22.8027 87.552 22.6C87.5413 22.3867 87.536 22.152 87.536 21.896V16.184H82.096C82.3627 16.408 82.5493 16.68 82.656 17C83.2747 17.0107 83.808 17.16 84.256 17.448C84.7147 17.7253 85.0667 18.1093 85.312 18.6C85.568 19.0907 85.696 19.656 85.696 20.296ZM106.147 15.048V16.184H104.467V25H103.235V19.192C103.065 18.9573 102.905 18.7387 102.755 18.536C102.606 18.3227 102.457 18.1307 102.307 17.96L98.1473 21.88L97.2033 21L97.6673 20.568C97.7739 20.4187 97.8593 20.2587 97.9233 20.088C97.9979 19.9173 98.0353 19.7253 98.0353 19.512C98.0353 19.2453 97.9553 19.032 97.7953 18.872C97.6353 18.712 97.4006 18.632 97.0913 18.632C96.9206 18.632 96.7553 18.6533 96.5953 18.696C96.4353 18.7387 96.2699 18.8133 96.0993 18.92L94.8833 17.768C95.5233 16.9253 96.1899 16.2427 96.8832 15.72C97.5766 15.1973 98.3446 14.936 99.1873 14.936C100.009 14.936 100.729 15.1547 101.347 15.592C101.966 16.0187 102.611 16.6587 103.283 17.512C103.262 17.2987 103.246 17.0747 103.235 16.84C103.235 16.5947 103.235 16.3387 103.235 16.072V13.992H104.083L104.451 15.048H106.147ZM99.1073 19.304C99.1073 19.3573 99.1073 19.4 99.1073 19.432C99.2353 19.2933 99.3633 19.16 99.4913 19.032C99.6299 18.8933 99.7739 18.7493 99.9233 18.6L101.523 17.096C100.83 16.4347 100.089 16.104 99.2993 16.104C98.6806 16.104 98.1419 16.2693 97.6833 16.6C97.2246 16.9307 96.8139 17.32 96.4513 17.768C96.7286 17.6293 97.0166 17.56 97.3153 17.56C97.9339 17.56 98.3873 17.7307 98.6753 18.072C98.9633 18.4027 99.1073 18.8133 99.1073 19.304ZM115.808 15.048V16.184H114.128V25H112.896V21.672C112.384 21.0213 111.824 20.4773 111.216 20.04C110.608 19.6027 110.016 19.384 109.44 19.384C109.046 19.384 108.71 19.4907 108.432 19.704C108.166 19.9067 108.032 20.2107 108.032 20.616C108.032 21.2133 108.491 21.6933 109.408 22.056L108.8 23.192C108.15 22.9253 107.638 22.568 107.264 22.12C106.902 21.6613 106.72 21.144 106.72 20.568C106.72 20.0453 106.843 19.6133 107.088 19.272C107.344 18.92 107.664 18.6587 108.048 18.488C108.443 18.3173 108.843 18.232 109.248 18.232C110.006 18.232 110.678 18.4133 111.264 18.776C111.862 19.128 112.422 19.5867 112.944 20.152C112.923 19.9707 112.907 19.7893 112.896 19.608C112.896 19.4267 112.896 19.2453 112.896 19.064V16.184H105.824V15.048H115.808ZM120.057 15.048V16.184H118.377V25H117.145V17.496C117.017 17.1333 116.825 16.824 116.569 16.568C116.323 16.312 116.003 16.184 115.609 16.184H115.481V15.048H115.721C115.977 15.048 116.243 15.1333 116.521 15.304C116.798 15.464 117.022 15.7147 117.193 16.056C117.182 16.0027 117.171 15.88 117.161 15.688C117.15 15.496 117.145 15.3307 117.145 15.192V13.992H118.009L118.361 15.048H120.057ZM129.587 15.048V16.184H127.907V25H126.675C126.355 24.36 125.912 23.7733 125.347 23.24C124.792 22.696 124.152 22.2373 123.427 21.864C122.701 21.4907 121.928 21.24 121.107 21.112L120.483 19.576C121.453 18.9893 122.451 18.456 123.475 17.976C124.509 17.496 125.576 17.08 126.675 16.728V16.184H119.731V15.048H129.587ZM121.971 20.136C122.515 20.2533 123.091 20.456 123.699 20.744C124.307 21.0213 124.877 21.3733 125.411 21.8C125.955 22.2267 126.392 22.7173 126.723 23.272C126.712 23.08 126.701 22.8827 126.691 22.68C126.68 22.4773 126.675 22.2427 126.675 21.976V17.976C125.907 18.2427 125.107 18.5627 124.275 18.936C123.443 19.2987 122.675 19.6987 121.971 20.136ZM122.851 25.096C122.584 25.096 122.355 25.0107 122.163 24.84C121.981 24.6693 121.891 24.4453 121.891 24.168C121.891 23.8907 121.981 23.6613 122.163 23.48C122.355 23.2987 122.584 23.208 122.851 23.208C123.117 23.208 123.341 23.2987 123.523 23.48C123.715 23.6613 123.811 23.8907 123.811 24.168C123.811 24.4453 123.715 24.6693 123.523 24.84C123.341 25.0107 123.117 25.096 122.851 25.096ZM143.087 15.048V16.184H141.407V25H140.175C139.855 24.36 139.412 23.7733 138.847 23.24C138.292 22.696 137.652 22.2373 136.927 21.864C136.201 21.4907 135.428 21.24 134.607 21.112L133.983 19.576C134.953 18.9893 135.951 18.456 136.975 17.976C138.009 17.496 139.076 17.08 140.175 16.728V16.184H133.231V15.048H143.087ZM135.471 20.136C136.015 20.2533 136.591 20.456 137.199 20.744C137.807 21.0213 138.377 21.3733 138.911 21.8C139.455 22.2267 139.892 22.7173 140.223 23.272C140.212 23.08 140.201 22.8827 140.191 22.68C140.18 22.4773 140.175 22.2427 140.175 21.976V17.976C139.407 18.2427 138.607 18.5627 137.775 18.936C136.943 19.2987 136.175 19.6987 135.471 20.136ZM154.394 15.048V16.184H142.762V15.048H154.394ZM149.434 24.2C148.559 24.2 147.743 23.9867 146.986 23.56C146.229 23.1227 145.546 22.4187 144.938 21.448C144.341 20.4773 143.823 19.176 143.386 17.544L144.602 17.224C144.975 18.5467 145.381 19.6347 145.818 20.488C146.266 21.3413 146.778 21.9707 147.354 22.376C147.941 22.7813 148.623 22.984 149.402 22.984C150.063 22.984 150.591 22.8773 150.986 22.664C151.381 22.44 151.663 22.1467 151.834 21.784C152.005 21.4107 152.09 21 152.09 20.552C152.09 20.104 152.005 19.6987 151.834 19.336C151.663 18.9627 151.423 18.6693 151.114 18.456C150.805 18.2427 150.442 18.136 150.026 18.136C149.599 18.136 149.29 18.2267 149.098 18.408C148.917 18.5893 148.826 18.8293 148.826 19.128C148.826 19.2347 148.837 19.3467 148.858 19.464C148.879 19.5813 148.917 19.7147 148.97 19.864L147.738 20.104C147.674 19.9013 147.621 19.704 147.578 19.512C147.546 19.32 147.53 19.1227 147.53 18.92C147.53 18.3013 147.754 17.8267 148.202 17.496C148.661 17.1653 149.247 17 149.962 17C150.623 17 151.205 17.1547 151.706 17.464C152.207 17.7627 152.602 18.184 152.89 18.728C153.178 19.272 153.322 19.9013 153.322 20.616C153.322 21.288 153.178 21.896 152.89 22.44C152.613 22.9733 152.186 23.4 151.61 23.72C151.034 24.04 150.309 24.2 149.434 24.2ZM147.655 13.688L152.871 10.328L153.479 11.24L148.375 14.696L147.655 13.688ZM164.346 15.048V16.184H162.666V25H161.434V22.424C160.922 21.7733 160.362 21.2293 159.754 20.792C159.146 20.3547 158.554 20.136 157.978 20.136C157.584 20.136 157.248 20.2373 156.97 20.44C156.704 20.6427 156.57 20.9467 156.57 21.352C156.57 21.9493 157.029 22.4293 157.946 22.792L157.338 23.944C156.688 23.6667 156.176 23.304 155.802 22.856C155.44 22.3973 155.258 21.88 155.258 21.304C155.258 20.7813 155.381 20.3493 155.626 20.008C155.882 19.6667 156.202 19.4107 156.586 19.24C156.981 19.0693 157.381 18.984 157.786 18.984C157.872 18.984 157.957 18.984 158.042 18.984C157.936 18.6 157.77 18.2907 157.546 18.056C157.322 17.8107 156.986 17.6133 156.538 17.464C156.101 17.3147 155.504 17.192 154.746 17.096L154.89 16.184H154.074V15.048H164.346ZM159.21 19.064C159.21 19.128 159.21 19.1867 159.21 19.24C159.637 19.4 160.032 19.624 160.394 19.912C160.768 20.2 161.125 20.5253 161.466 20.888C161.456 20.7067 161.445 20.52 161.434 20.328C161.434 20.1253 161.434 19.9227 161.434 19.72V16.184H155.946C157.013 16.3333 157.824 16.6693 158.378 17.192C158.933 17.704 159.21 18.328 159.21 19.064ZM168.604 15.048V16.184H166.924V25H165.692V17.496C165.564 17.1333 165.372 16.824 165.116 16.568C164.87 16.312 164.55 16.184 164.155 16.184H164.027V15.048H164.268C164.524 15.048 164.79 15.1333 165.068 15.304C165.345 15.464 165.569 15.7147 165.74 16.056C165.729 16.0027 165.718 15.88 165.708 15.688C165.697 15.496 165.692 15.3307 165.692 15.192V13.992H166.556L166.908 15.048H168.604ZM178.262 15.048V16.184H176.582V25H175.35V21.672C174.838 21.0213 174.278 20.4773 173.67 20.04C173.062 19.6027 172.47 19.384 171.894 19.384C171.499 19.384 171.163 19.4907 170.886 19.704C170.619 19.9067 170.486 20.2107 170.486 20.616C170.486 21.2133 170.944 21.6933 171.862 22.056L171.254 23.192C170.603 22.9253 170.091 22.568 169.718 22.12C169.355 21.6613 169.174 21.144 169.174 20.568C169.174 20.0453 169.296 19.6133 169.542 19.272C169.798 18.92 170.118 18.6587 170.502 18.488C170.896 18.3173 171.296 18.232 171.702 18.232C172.459 18.232 173.131 18.4133 173.718 18.776C174.315 19.128 174.875 19.5867 175.398 20.152C175.376 19.9707 175.36 19.7893 175.35 19.608C175.35 19.4267 175.35 19.2453 175.35 19.064V16.184H168.277V15.048H178.262ZM193.615 15.048V16.184H187.759V19.048C187.759 19.6453 187.956 19.944 188.351 19.944C188.66 19.944 188.985 19.8 189.327 19.512C189.668 19.2133 190.068 18.7333 190.527 18.072L191.487 17.928C191.828 18.4293 192.089 18.9467 192.271 19.48C192.463 20.0133 192.559 20.5467 192.559 21.08C192.559 21.752 192.409 22.3547 192.111 22.888C191.823 23.4213 191.391 23.8427 190.815 24.152C190.249 24.4613 189.556 24.616 188.735 24.616C187.796 24.616 186.943 24.392 186.174 23.944C185.407 23.496 184.719 22.7547 184.111 21.72C183.513 20.6853 182.985 19.2987 182.527 17.56L183.743 17.24C184.127 18.7227 184.548 19.9173 185.007 20.824C185.476 21.72 186.009 22.376 186.607 22.792C187.204 23.1973 187.892 23.4 188.671 23.4C189.524 23.4 190.18 23.1867 190.639 22.76C191.108 22.3333 191.343 21.784 191.343 21.112C191.343 20.7493 191.305 20.4293 191.231 20.152C191.156 19.864 191.049 19.6187 190.911 19.416C190.495 19.992 190.068 20.424 189.631 20.712C189.204 20.9893 188.783 21.128 188.367 21.128C187.855 21.128 187.444 20.9893 187.135 20.712C186.964 20.5627 186.82 20.3547 186.703 20.088C186.585 19.8107 186.527 19.352 186.527 18.712V16.184H181.902V15.048H193.615ZM197.869 15.048V16.184H196.189V25H194.957V17.496C194.829 17.1333 194.637 16.824 194.381 16.568C194.136 16.312 193.816 16.184 193.421 16.184H193.293V15.048H193.533C193.789 15.048 194.056 15.1333 194.333 15.304C194.61 15.464 194.834 15.7147 195.005 16.056C194.994 16.0027 194.984 15.88 194.973 15.688C194.962 15.496 194.957 15.3307 194.957 15.192V13.992H195.821L196.173 15.048H197.869ZM204.023 15.048C204.012 14.6107 203.906 14.296 203.703 14.104C203.511 13.912 203.191 13.816 202.743 13.816H201.239C200.546 13.816 200.007 13.768 199.623 13.672C199.25 13.576 198.93 13.4267 198.663 13.224C198.087 12.7867 197.799 12.1307 197.799 11.256C197.799 11.1173 197.804 10.984 197.815 10.856C197.836 10.7173 197.858 10.568 197.879 10.408L199.063 10.488C199.02 10.7013 198.999 10.904 198.999 11.096C198.999 11.3307 199.02 11.5387 199.063 11.72C199.116 11.9013 199.196 12.0507 199.303 12.168C199.452 12.3387 199.666 12.4667 199.943 12.552C200.231 12.6267 200.636 12.664 201.159 12.664H202.407C202.972 12.664 203.42 12.7067 203.751 12.792C204.082 12.8773 204.364 13.032 204.599 13.256C204.951 13.5973 205.143 14.1947 205.175 15.048H206.935V16.184H200.455V21.72C200.455 22.1893 200.482 22.52 200.535 22.712C200.588 22.904 200.652 23.0427 200.727 23.128C200.919 23.352 201.212 23.464 201.607 23.464C202.023 23.464 202.418 23.3627 202.791 23.16C203.164 22.9573 203.49 22.7067 203.767 22.408C204.076 22.0773 204.311 21.7253 204.471 21.352C204.642 20.9787 204.727 20.6 204.727 20.216C204.727 19.8747 204.642 19.6187 204.471 19.448C204.3 19.2667 204.018 19.176 203.623 19.176C203.495 19.176 203.356 19.1867 203.207 19.208C203.058 19.2293 202.914 19.256 202.775 19.288L202.599 18.152C202.802 18.0987 203.01 18.056 203.223 18.024C203.447 17.992 203.682 17.976 203.927 17.976C204.524 17.976 205.015 18.152 205.399 18.504C205.783 18.8453 205.975 19.3947 205.975 20.152C205.975 20.7813 205.82 21.3947 205.511 21.992C205.202 22.5787 204.812 23.0747 204.343 23.48C203.948 23.8213 203.516 24.0987 203.047 24.312C202.588 24.5147 202.082 24.616 201.527 24.616C201.132 24.616 200.791 24.5573 200.503 24.44C200.226 24.3227 199.996 24.1733 199.815 23.992C199.644 23.7893 199.5 23.544 199.383 23.256C199.276 22.968 199.223 22.5307 199.223 21.944V16.184H197.543V15.048H204.023ZM211.197 15.048V16.184H209.517V25H208.285V17.496C208.157 17.1333 207.965 16.824 207.709 16.568C207.464 16.312 207.144 16.184 206.749 16.184H206.621V15.048H206.861C207.117 15.048 207.384 15.1333 207.661 15.304C207.939 15.464 208.163 15.7147 208.333 16.056C208.323 16.0027 208.312 15.88 208.301 15.688C208.291 15.496 208.285 15.3307 208.285 15.192V13.992H209.149L209.501 15.048H211.197ZM226.616 15.048V16.184H224.936V25H223.704V19.192C223.533 18.9573 223.373 18.7387 223.224 18.536C223.075 18.3227 222.925 18.1307 222.776 17.96L218.616 21.88L217.672 21L218.136 20.568C218.243 20.4187 218.328 20.2587 218.392 20.088C218.467 19.9173 218.504 19.7253 218.504 19.512C218.504 19.2453 218.424 19.032 218.264 18.872C218.104 18.712 217.869 18.632 217.56 18.632C217.389 18.632 217.224 18.6533 217.064 18.696C216.904 18.7387 216.739 18.8133 216.568 18.92L215.352 17.768C215.992 16.9253 216.659 16.2427 217.352 15.72C218.045 15.1973 218.813 14.936 219.656 14.936C220.477 14.936 221.197 15.1547 221.816 15.592C222.435 16.0187 223.08 16.6587 223.752 17.512C223.731 17.2987 223.715 17.0747 223.704 16.84C223.704 16.5947 223.704 16.3387 223.704 16.072V13.992H224.552L224.92 15.048H226.616ZM219.576 19.304C219.576 19.3573 219.576 19.4 219.576 19.432C219.704 19.2933 219.832 19.16 219.96 19.032C220.099 18.8933 220.243 18.7493 220.392 18.6L221.992 17.096C221.299 16.4347 220.557 16.104 219.768 16.104C219.149 16.104 218.611 16.2693 218.152 16.6C217.693 16.9307 217.283 17.32 216.92 17.768C217.197 17.6293 217.485 17.56 217.784 17.56C218.403 17.56 218.856 17.7307 219.144 18.072C219.432 18.4027 219.576 18.8133 219.576 19.304ZM230.693 15.048V16.184H230.117C229.797 16.472 229.552 16.7387 229.381 16.984C229.221 17.2293 229.114 17.4853 229.061 17.752C229.008 18.0187 228.981 18.328 228.981 18.68C228.981 19.032 229.024 19.4053 229.109 19.8C229.194 20.1947 229.28 20.6053 229.365 21.032C229.461 21.448 229.509 21.8853 229.509 22.344C229.509 22.856 229.424 23.3413 229.253 23.8C229.093 24.2587 228.784 24.664 228.325 25.016C227.866 25.368 227.189 25.64 226.293 25.832L225.957 24.728C226.64 24.568 227.141 24.3707 227.461 24.136C227.792 23.8907 228.005 23.6133 228.101 23.304C228.208 22.9947 228.261 22.664 228.261 22.312C228.261 21.8853 228.218 21.4693 228.133 21.064C228.048 20.6587 227.957 20.2587 227.861 19.864C227.776 19.4693 227.733 19.0853 227.733 18.712C227.733 18.1787 227.797 17.7253 227.925 17.352C228.064 16.9787 228.309 16.5893 228.661 16.184H226.293V15.048H230.693ZM234.947 15.048V16.184H233.267V25H232.035V17.496C231.907 17.1333 231.715 16.824 231.459 16.568C231.214 16.312 230.894 16.184 230.499 16.184H230.371V15.048H230.611C230.867 15.048 231.134 15.1333 231.411 15.304C231.689 15.464 231.913 15.7147 232.083 16.056C232.073 16.0027 232.062 15.88 232.051 15.688C232.041 15.496 232.035 15.3307 232.035 15.192V13.992H232.899L233.251 15.048H234.947ZM246.957 20.392C246.957 20.744 246.888 21.08 246.749 21.4C246.611 21.7093 246.381 21.9653 246.061 22.168C245.741 22.3707 245.315 22.472 244.781 22.472C244.611 22.472 244.445 22.4667 244.285 22.456C244.136 22.4453 243.987 22.424 243.837 22.392L243.933 21.24C243.997 21.2507 244.072 21.2613 244.157 21.272C244.253 21.272 244.36 21.272 244.477 21.272C244.989 21.272 245.32 21.176 245.469 20.984C245.629 20.7813 245.709 20.5413 245.709 20.264C245.709 19.72 245.453 19.2507 244.941 18.856C244.429 18.4613 243.667 18.184 242.653 18.024V25H241.421C241.112 24.3707 240.68 23.7787 240.125 23.224C239.571 22.6693 238.936 22.2053 238.221 21.832C237.517 21.448 236.776 21.208 235.997 21.112L235.373 19.576C236.355 19.0107 237.336 18.504 238.317 18.056C239.299 17.5973 240.333 17.192 241.421 16.84V16.184H234.621V15.048H247.853V16.184H242.653V16.808C243.443 16.9147 244.163 17.1333 244.813 17.464C245.464 17.784 245.981 18.1947 246.365 18.696C246.76 19.1867 246.957 19.752 246.957 20.392ZM236.861 20.136C237.427 20.2427 238.008 20.4453 238.605 20.744C239.203 21.0427 239.752 21.4107 240.253 21.848C240.765 22.2747 241.171 22.744 241.469 23.256C241.459 23.0747 241.448 22.8827 241.437 22.68C241.427 22.4773 241.421 22.2427 241.421 21.976V18.088C240.643 18.3333 239.848 18.648 239.037 19.032C238.227 19.416 237.501 19.784 236.861 20.136ZM257.352 15.048V16.184H257.032C256.702 16.2587 256.344 16.424 255.96 16.68C255.576 16.9253 255.214 17.2507 254.872 17.656C254.531 18.0507 254.248 18.5147 254.024 19.048C253.811 19.5813 253.704 20.168 253.704 20.808C253.704 21.576 253.816 22.1893 254.04 22.648C254.275 23.096 254.563 23.416 254.904 23.608C255.246 23.8 255.587 23.896 255.928 23.896C256.195 23.896 256.419 23.8693 256.6 23.816C256.782 23.7627 256.99 23.6667 257.224 23.528L257.784 24.504C257.507 24.7173 257.203 24.8667 256.872 24.952C256.542 25.0373 256.206 25.08 255.864 25.08C255.192 25.08 254.6 24.904 254.088 24.552C253.576 24.2 253.171 23.7093 252.872 23.08C252.584 22.44 252.44 21.6933 252.44 20.84C252.44 20.0187 252.568 19.288 252.824 18.648C253.091 17.9973 253.432 17.432 253.848 16.952C254.275 16.472 254.734 16.0773 255.224 15.768C255.715 15.448 256.19 15.208 256.648 15.048H257.352ZM258.42 14.936C258.91 14.936 259.374 15.048 259.812 15.272C260.26 15.496 260.59 15.8533 260.804 16.344C260.996 15.864 261.289 15.512 261.684 15.288C262.078 15.0533 262.505 14.936 262.964 14.936C263.444 14.936 263.881 15.0427 264.276 15.256C264.681 15.4693 265.022 15.7627 265.3 16.136C265.289 16.008 265.278 15.8747 265.267 15.736C265.267 15.5973 265.267 15.448 265.267 15.288V13.992H266.116L266.5 15.048H268.18V16.184H266.5V25H265.267V17.736C264.958 17.2133 264.612 16.8133 264.228 16.536C263.854 16.248 263.444 16.104 262.996 16.104C262.58 16.104 262.244 16.2213 261.988 16.456C261.732 16.68 261.604 17.016 261.604 17.464C261.604 17.8907 261.774 18.2427 262.116 18.52C262.468 18.7867 263.028 18.936 263.796 18.968L263.684 20.2C262.926 20.1573 262.313 19.9973 261.844 19.72C261.385 19.4427 261.06 19.08 260.868 18.632C260.676 19.08 260.35 19.4533 259.892 19.752C259.433 20.0507 258.82 20.2 258.052 20.2L257.956 18.968C258.5 18.9573 258.926 18.8827 259.236 18.744C259.545 18.5947 259.764 18.408 259.892 18.184C260.02 17.96 260.084 17.736 260.084 17.512C260.084 17.0747 259.945 16.7333 259.668 16.488C259.39 16.232 258.969 16.104 258.404 16.104C258.052 16.104 257.641 16.1627 257.171 16.28L257.043 15.08C257.31 15.0267 257.545 14.9893 257.748 14.968C257.95 14.9467 258.174 14.936 258.42 14.936ZM278.304 15.048V16.184H276.624V25H275.392C274.869 24.3813 274.33 23.848 273.776 23.4C273.221 22.9413 272.592 22.5627 271.888 22.264C271.184 21.9653 270.341 21.7467 269.36 21.608L268.784 20.152C269.285 19.832 269.829 19.5173 270.416 19.208C271.002 18.888 271.616 18.5893 272.256 18.312C271.68 17.992 271.093 17.72 270.496 17.496C269.909 17.2613 269.338 17.0853 268.784 16.968L269.12 16.184H267.856V15.048H278.304ZM275.392 16.184H270.128C270.746 16.376 271.376 16.632 272.016 16.952C272.656 17.2613 273.269 17.6133 273.856 18.008C274.442 18.4027 274.965 18.8187 275.424 19.256C275.413 19.0533 275.402 18.8507 275.392 18.648C275.392 18.4453 275.392 18.248 275.392 18.056V16.184ZM270.288 20.6C271.461 20.824 272.448 21.1867 273.248 21.688C274.058 22.1787 274.784 22.7547 275.424 23.416C275.424 23.2347 275.418 23.048 275.408 22.856C275.397 22.664 275.392 22.4667 275.392 22.264V20.68C275.114 20.3813 274.805 20.0933 274.464 19.816C274.133 19.528 273.781 19.2613 273.408 19.016C272.885 19.2507 272.341 19.5067 271.776 19.784C271.21 20.0507 270.714 20.3227 270.288 20.6ZM290.749 15.048V16.184H285.485C285.763 16.408 285.955 16.68 286.061 17C286.883 17.0107 287.544 17.16 288.045 17.448C288.557 17.736 288.931 18.0933 289.165 18.52C289.411 18.936 289.533 19.3627 289.533 19.8C289.533 20.6 289.272 21.2507 288.749 21.752C288.227 22.2533 287.459 22.568 286.445 22.696C287.117 22.9307 287.827 23.2667 288.573 23.704C289.331 24.1307 290.056 24.616 290.749 25.16L290.013 26.008C289.352 25.5173 288.744 25.096 288.189 24.744C287.645 24.3813 287.107 24.0667 286.573 23.8C286.04 23.5333 285.475 23.2987 284.877 23.096C284.28 22.8933 283.603 22.7067 282.845 22.536L283.085 21.432C283.459 21.5387 283.816 21.6187 284.157 21.672C284.509 21.7147 284.931 21.736 285.421 21.736C286.179 21.736 286.76 21.6453 287.165 21.464C287.581 21.2827 287.869 21.048 288.029 20.76C288.189 20.472 288.269 20.1787 288.269 19.88C288.269 19.3147 288.061 18.8827 287.645 18.584C287.229 18.2747 286.701 18.12 286.061 18.12C285.475 18.12 285.064 18.2053 284.829 18.376C284.595 18.536 284.477 18.7707 284.477 19.08C284.477 19.1653 284.488 19.256 284.509 19.352C284.531 19.4373 284.552 19.5173 284.573 19.592L283.405 19.832C283.288 19.5013 283.229 19.176 283.229 18.856C283.229 18.4187 283.368 18.056 283.645 17.768C283.923 17.48 284.301 17.272 284.781 17.144C284.685 16.9307 284.536 16.744 284.333 16.584C284.141 16.4133 283.891 16.28 283.581 16.184H281.949V15.048H290.749ZM300.29 15.048V16.184H298.61V25H297.378C297.058 24.36 296.615 23.7733 296.05 23.24C295.495 22.696 294.855 22.2373 294.13 21.864C293.404 21.4907 292.631 21.24 291.81 21.112L291.186 19.576C292.156 18.9893 293.154 18.456 294.178 17.976C295.212 17.496 296.279 17.08 297.378 16.728V16.184H290.434V15.048H300.29ZM292.674 20.136C293.218 20.2533 293.794 20.456 294.402 20.744C295.01 21.0213 295.58 21.3733 296.114 21.8C296.658 22.2267 297.095 22.7173 297.426 23.272C297.415 23.08 297.404 22.8827 297.394 22.68C297.383 22.4773 297.378 22.2427 297.378 21.976V17.976C296.61 18.2427 295.81 18.5627 294.978 18.936C294.146 19.2987 293.378 19.6987 292.674 20.136ZM304.541 15.048V16.184H302.861V25H301.629V17.496C301.501 17.1333 301.309 16.824 301.053 16.568C300.808 16.312 300.488 16.184 300.093 16.184H299.965V15.048H300.205C300.461 15.048 300.728 15.1333 301.005 15.304C301.282 15.464 301.506 15.7147 301.677 16.056C301.666 16.0027 301.656 15.88 301.645 15.688C301.634 15.496 301.629 15.3307 301.629 15.192V13.992H302.493L302.845 15.048H304.541ZM314.071 15.048V16.184H312.391V25H311.159C310.839 24.36 310.396 23.7733 309.831 23.24C309.276 22.696 308.636 22.2373 307.911 21.864C307.186 21.4907 306.412 21.24 305.591 21.112L304.967 19.576C305.938 18.9893 306.935 18.456 307.959 17.976C308.994 17.496 310.06 17.08 311.159 16.728V16.184H304.215V15.048H314.071ZM306.455 20.136C306.999 20.2533 307.575 20.456 308.183 20.744C308.791 21.0213 309.362 21.3733 309.895 21.8C310.439 22.2267 310.876 22.7173 311.207 23.272C311.196 23.08 311.186 22.8827 311.175 22.68C311.164 22.4773 311.159 22.2427 311.159 21.976V17.976C310.391 18.2427 309.591 18.5627 308.759 18.936C307.927 19.2987 307.159 19.6987 306.455 20.136ZM307.335 25.096C307.068 25.096 306.839 25.0107 306.647 24.84C306.466 24.6693 306.375 24.4453 306.375 24.168C306.375 23.8907 306.466 23.6613 306.647 23.48C306.839 23.2987 307.068 23.208 307.335 23.208C307.602 23.208 307.826 23.2987 308.007 23.48C308.199 23.6613 308.295 23.8907 308.295 24.168C308.295 24.4453 308.199 24.6693 308.007 24.84C307.826 25.0107 307.602 25.096 307.335 25.096ZM329.491 15.048V16.184H327.811V25H326.579V19.192C326.408 18.9573 326.248 18.7387 326.099 18.536C325.95 18.3227 325.8 18.1307 325.651 17.96L321.491 21.88L320.547 21L321.011 20.568C321.118 20.4187 321.203 20.2587 321.267 20.088C321.342 19.9173 321.379 19.7253 321.379 19.512C321.379 19.2453 321.299 19.032 321.139 18.872C320.979 18.712 320.744 18.632 320.435 18.632C320.264 18.632 320.099 18.6533 319.939 18.696C319.779 18.7387 319.614 18.8133 319.443 18.92L318.227 17.768C318.867 16.9253 319.534 16.2427 320.227 15.72C320.92 15.1973 321.688 14.936 322.531 14.936C323.352 14.936 324.072 15.1547 324.691 15.592C325.31 16.0187 325.955 16.6587 326.627 17.512C326.606 17.2987 326.59 17.0747 326.579 16.84C326.579 16.5947 326.579 16.3387 326.579 16.072V13.992H327.427L327.795 15.048H329.491ZM322.451 19.304C322.451 19.3573 322.451 19.4 322.451 19.432C322.579 19.2933 322.707 19.16 322.835 19.032C322.974 18.8933 323.118 18.7493 323.267 18.6L324.867 17.096C324.174 16.4347 323.432 16.104 322.643 16.104C322.024 16.104 321.486 16.2693 321.027 16.6C320.568 16.9307 320.158 17.32 319.795 17.768C320.072 17.6293 320.36 17.56 320.659 17.56C321.278 17.56 321.731 17.7307 322.019 18.072C322.307 18.4027 322.451 18.8133 322.451 19.304ZM326.496 28.856C326.176 28.856 325.856 28.7973 325.536 28.68C325.205 28.5733 324.933 28.3973 324.72 28.152C324.507 27.9067 324.4 27.5867 324.4 27.192C324.4 26.6587 324.613 26.2587 325.04 25.992C325.467 25.7253 325.979 25.5867 326.576 25.576V24.872H327.808V25.896L327.28 26.632C327.205 26.6213 327.12 26.6107 327.024 26.6C326.917 26.6 326.805 26.6 326.688 26.6C325.941 26.6 325.568 26.8133 325.568 27.24C325.568 27.4427 325.653 27.5973 325.824 27.704C325.995 27.8107 326.208 27.864 326.464 27.864C326.912 27.864 327.317 27.7573 327.68 27.544C328.043 27.3307 328.389 27.0267 328.72 26.632C329.2 26.8453 329.733 27.1227 330.32 27.464C330.917 27.8053 331.456 28.1467 331.936 28.488L331.264 29.336C330.869 29.0373 330.469 28.7653 330.064 28.52C329.659 28.2747 329.296 28.0773 328.976 27.928C328.645 28.2267 328.277 28.456 327.872 28.616C327.456 28.776 326.997 28.856 326.496 28.856ZM335.024 15.048V16.184H334.704C334.373 16.2587 334.016 16.424 333.632 16.68C333.248 16.9253 332.885 17.2507 332.544 17.656C332.203 18.0507 331.92 18.5147 331.696 19.048C331.483 19.5813 331.376 20.168 331.376 20.808C331.376 21.576 331.488 22.1893 331.712 22.648C331.947 23.096 332.235 23.416 332.576 23.608C332.917 23.8 333.259 23.896 333.6 23.896C333.867 23.896 334.091 23.8693 334.272 23.816C334.453 23.7627 334.661 23.6667 334.896 23.528L335.456 24.504C335.179 24.7173 334.875 24.8667 334.544 24.952C334.213 25.0373 333.883 25.08 333.552 25.08C332.88 25.08 332.283 24.904 331.76 24.552C331.248 24.2 330.843 23.7093 330.544 23.08C330.256 22.44 330.112 21.6933 330.112 20.84C330.112 19.784 330.347 18.8507 330.816 18.04C331.296 17.2293 331.909 16.5947 332.656 16.136C332.475 16.1573 332.283 16.1733 332.08 16.184C331.877 16.184 331.653 16.184 331.408 16.184H329.168V15.048H335.024ZM344.555 15.048V16.184H342.875V25H341.643C341.323 24.36 340.881 23.7733 340.315 23.24C339.761 22.696 339.121 22.2373 338.395 21.864C337.67 21.4907 336.897 21.24 336.075 21.112L335.451 19.576C336.422 18.9893 337.419 18.456 338.443 17.976C339.478 17.496 340.545 17.08 341.643 16.728V16.184H334.699V15.048H344.555ZM336.939 20.136C337.483 20.2533 338.059 20.456 338.667 20.744C339.275 21.0213 339.846 21.3733 340.379 21.8C340.923 22.2267 341.361 22.7173 341.691 23.272C341.681 23.08 341.67 22.8827 341.659 22.68C341.649 22.4773 341.643 22.2427 341.643 21.976V17.976C340.875 18.2427 340.075 18.5627 339.243 18.936C338.411 19.2987 337.643 19.6987 336.939 20.136ZM340.327 13.688L345.543 10.328L346.151 11.24L341.047 14.696L340.327 13.688ZM80.416 33.048V34.184H78.736V43H77.504V34.184H75.84V33.048H77.312C77.1413 32.8453 76.9653 32.632 76.784 32.408C76.6133 32.184 76.4587 31.96 76.32 31.736C76.6827 31.1067 77.072 30.536 77.488 30.024C77.904 29.5013 78.3947 29.0907 78.96 28.792C79.5253 28.4827 80.208 28.328 81.008 28.328C81.7653 28.328 82.48 28.4507 83.152 28.696C83.824 28.9413 84.496 29.288 85.168 29.736C85.84 30.1733 86.544 30.696 87.28 31.304L86.608 32.168C85.872 31.5707 85.2053 31.0747 84.608 30.68C84.0213 30.2853 83.456 29.992 82.912 29.8C82.3787 29.5973 81.808 29.496 81.2 29.496C80.3147 29.496 79.6053 29.72 79.072 30.168C78.5387 30.616 78.08 31.1973 77.696 31.912C77.7813 32.072 77.8987 32.248 78.048 32.44C78.1973 32.632 78.368 32.8347 78.56 33.048H80.416ZM90.074 33.048V34.184H88.394V43H87.162V39.672C86.65 39.0213 86.09 38.4773 85.482 38.04C84.874 37.6027 84.282 37.384 83.706 37.384C83.3113 37.384 82.9753 37.4907 82.698 37.704C82.4313 37.9067 82.298 38.2107 82.298 38.616C82.298 39.2133 82.7567 39.6933 83.674 40.056L83.066 41.192C82.4153 40.9253 81.9033 40.568 81.53 40.12C81.1673 39.6613 80.986 39.144 80.986 38.568C80.986 38.0453 81.1087 37.6133 81.354 37.272C81.61 36.92 81.93 36.6587 82.314 36.488C82.7087 36.3173 83.1087 36.232 83.514 36.232C84.2713 36.232 84.9433 36.4133 85.53 36.776C86.1273 37.128 86.6873 37.5867 87.21 38.152C87.1887 37.9707 87.1727 37.7893 87.162 37.608C87.162 37.4267 87.162 37.2453 87.162 37.064V34.184H80.09V33.048H90.074ZM95.6023 33.048V34.184H95.2823C94.9516 34.2587 94.5943 34.424 94.2103 34.68C93.8263 34.9253 93.4636 35.2507 93.1223 35.656C92.7809 36.0507 92.4983 36.5147 92.2743 37.048C92.0609 37.5813 91.9543 38.168 91.9543 38.808C91.9543 39.576 92.0663 40.1893 92.2903 40.648C92.5249 41.096 92.8129 41.416 93.1543 41.608C93.4956 41.8 93.8369 41.896 94.1783 41.896C94.4449 41.896 94.6689 41.8693 94.8503 41.816C95.0316 41.7627 95.2396 41.6667 95.4743 41.528L96.0343 42.504C95.7569 42.7173 95.4529 42.8667 95.1223 42.952C94.7916 43.0373 94.4609 43.08 94.1302 43.08C93.4583 43.08 92.8609 42.904 92.3383 42.552C91.8263 42.2 91.4209 41.7093 91.1223 41.08C90.8343 40.44 90.6903 39.6933 90.6903 38.84C90.6903 37.784 90.9249 36.8507 91.3943 36.04C91.8743 35.2293 92.4876 34.5947 93.2343 34.136C93.0529 34.1573 92.8609 34.1733 92.6583 34.184C92.4556 34.184 92.2316 34.184 91.9863 34.184H89.7462V33.048H95.6023ZM104.67 33.048V34.184H98.1895V34.488C98.4028 34.8613 98.6322 35.1813 98.8775 35.448C99.1335 35.704 99.4428 35.9013 99.8055 36.04C100.168 36.168 100.638 36.232 101.214 36.232H101.47C101.875 36.232 102.184 36.2587 102.398 36.312C102.622 36.3653 102.819 36.4453 102.99 36.552C103.47 36.8507 103.71 37.368 103.71 38.104C103.71 38.7547 103.555 39.3787 103.246 39.976C102.936 40.5733 102.547 41.0747 102.078 41.48C101.672 41.832 101.24 42.1093 100.782 42.312C100.323 42.5147 99.8108 42.616 99.2455 42.616C98.8508 42.616 98.5148 42.5573 98.2375 42.44C97.9602 42.3227 97.7308 42.1733 97.5495 41.992C97.3788 41.7893 97.2348 41.544 97.1175 41.256C97.0108 40.968 96.9575 40.5307 96.9575 39.944V34.184H95.2775V33.048H104.67ZM98.4615 41.128C98.6535 41.352 98.9468 41.464 99.3415 41.464C99.7682 41.464 100.163 41.3627 100.526 41.16C100.888 40.9573 101.214 40.7067 101.502 40.408C101.8 40.088 102.03 39.752 102.19 39.4C102.36 39.0373 102.446 38.6587 102.446 38.264C102.446 37.912 102.344 37.6827 102.142 37.576C101.95 37.4693 101.678 37.416 101.326 37.416H101.246C100.755 37.416 100.36 37.3787 100.062 37.304C99.7628 37.2187 99.4748 37.1067 99.1975 36.968C98.9948 36.8507 98.8028 36.7173 98.6215 36.568C98.4402 36.4187 98.2855 36.2533 98.1575 36.072C98.1682 36.2107 98.1735 36.36 98.1735 36.52C98.1842 36.6693 98.1895 36.8133 98.1895 36.952V39.72C98.1895 40.1893 98.2162 40.52 98.2695 40.712C98.3228 40.904 98.3868 41.0427 98.4615 41.128ZM114.212 33.048V34.184H112.532V43H111.3C110.98 42.36 110.537 41.7733 109.972 41.24C109.417 40.696 108.777 40.2373 108.052 39.864C107.326 39.4907 106.553 39.24 105.732 39.112L105.108 37.576C106.078 36.9893 107.076 36.456 108.1 35.976C109.134 35.496 110.201 35.08 111.3 34.728V34.184H104.356V33.048H114.212ZM106.596 38.136C107.14 38.2533 107.716 38.456 108.324 38.744C108.932 39.0213 109.502 39.3733 110.036 39.8C110.58 40.2267 111.017 40.7173 111.348 41.272C111.337 41.08 111.326 40.8827 111.316 40.68C111.305 40.4773 111.3 40.2427 111.3 39.976V35.976C110.532 36.2427 109.732 36.5627 108.9 36.936C108.068 37.2987 107.3 37.6987 106.596 38.136ZM107.476 43.096C107.209 43.096 106.98 43.0107 106.788 42.84C106.606 42.6693 106.516 42.4453 106.516 42.168C106.516 41.8907 106.606 41.6613 106.788 41.48C106.98 41.2987 107.209 41.208 107.476 41.208C107.742 41.208 107.966 41.2987 108.148 41.48C108.34 41.6613 108.436 41.8907 108.436 42.168C108.436 42.4453 108.34 42.6693 108.148 42.84C107.966 43.0107 107.742 43.096 107.476 43.096ZM123.712 33.048V34.184H123.392C123.061 34.2587 122.704 34.424 122.32 34.68C121.936 34.9253 121.573 35.2507 121.232 35.656C120.89 36.0507 120.608 36.5147 120.384 37.048C120.17 37.5813 120.064 38.168 120.064 38.808C120.064 39.576 120.176 40.1893 120.4 40.648C120.634 41.096 120.922 41.416 121.264 41.608C121.605 41.8 121.946 41.896 122.288 41.896C122.554 41.896 122.778 41.8693 122.96 41.816C123.141 41.7627 123.349 41.6667 123.584 41.528L124.144 42.504C123.866 42.7173 123.562 42.8667 123.232 42.952C122.901 43.0373 122.565 43.08 122.224 43.08C121.552 43.08 120.96 42.904 120.448 42.552C119.936 42.2 119.53 41.7093 119.232 41.08C118.944 40.44 118.8 39.6933 118.8 38.84C118.8 38.0187 118.928 37.288 119.184 36.648C119.45 35.9973 119.792 35.432 120.208 34.952C120.634 34.472 121.093 34.0773 121.584 33.768C122.074 33.448 122.549 33.208 123.008 33.048H123.712ZM133.723 33.048V34.184H132.043V43H130.811C130.363 42.4027 129.867 41.88 129.323 41.432C128.779 40.9733 128.15 40.5893 127.435 40.28C126.72 39.9707 125.872 39.7467 124.891 39.608L124.315 38.152C124.806 37.8213 125.334 37.5067 125.899 37.208C126.464 36.9093 127.024 36.632 127.579 36.376C127.174 36.0667 126.704 35.7947 126.171 35.56C125.648 35.3147 125.03 35.1173 124.315 34.968L124.667 34.184H123.387V33.048H133.723ZM130.811 34.184H125.851C126.246 34.3227 126.64 34.4987 127.035 34.712C127.43 34.9253 127.792 35.1547 128.123 35.4C128.454 35.6453 128.72 35.8747 128.923 36.088L129.003 36.984C128.47 37.2187 127.915 37.48 127.339 37.768C126.763 38.0453 126.251 38.3227 125.803 38.6C126.966 38.8133 127.942 39.1653 128.731 39.656C129.52 40.1467 130.224 40.7333 130.843 41.416C130.822 41.0427 130.811 40.6587 130.811 40.264V34.184ZM139.259 33.048V34.184H138.939C138.608 34.2587 138.251 34.424 137.867 34.68C137.483 34.9253 137.12 35.2507 136.779 35.656C136.437 36.0507 136.155 36.5147 135.931 37.048C135.717 37.5813 135.611 38.168 135.611 38.808C135.611 39.576 135.723 40.1893 135.947 40.648C136.181 41.096 136.469 41.416 136.811 41.608C137.152 41.8 137.493 41.896 137.835 41.896C138.101 41.896 138.325 41.8693 138.507 41.816C138.688 41.7627 138.896 41.6667 139.131 41.528L139.691 42.504C139.413 42.7173 139.109 42.8667 138.779 42.952C138.448 43.0373 138.117 43.08 137.786 43.08C137.115 43.08 136.517 42.904 135.995 42.552C135.483 42.2 135.077 41.7093 134.779 41.08C134.491 40.44 134.347 39.6933 134.347 38.84C134.347 37.784 134.581 36.8507 135.051 36.04C135.531 35.2293 136.144 34.5947 136.891 34.136C136.709 34.1573 136.517 34.1733 136.315 34.184C136.112 34.184 135.888 34.184 135.643 34.184H133.402V33.048H139.259ZM151.27 38.392C151.27 38.744 151.2 39.08 151.062 39.4C150.923 39.7093 150.694 39.9653 150.374 40.168C150.054 40.3707 149.627 40.472 149.094 40.472C148.923 40.472 148.758 40.4667 148.598 40.456C148.448 40.4453 148.299 40.424 148.15 40.392L148.246 39.24C148.31 39.2507 148.384 39.2613 148.47 39.272C148.566 39.272 148.672 39.272 148.79 39.272C149.302 39.272 149.632 39.176 149.782 38.984C149.942 38.7813 150.022 38.5413 150.022 38.264C150.022 37.72 149.766 37.2507 149.254 36.856C148.742 36.4613 147.979 36.184 146.966 36.024V43H145.734C145.424 42.3707 144.992 41.7787 144.438 41.224C143.883 40.6693 143.248 40.2053 142.534 39.832C141.83 39.448 141.088 39.208 140.31 39.112L139.686 37.576C140.667 37.0107 141.648 36.504 142.63 36.056C143.611 35.5973 144.646 35.192 145.734 34.84V34.184H138.934V33.048H152.166V34.184H146.966V34.808C147.755 34.9147 148.475 35.1333 149.126 35.464C149.776 35.784 150.294 36.1947 150.678 36.696C151.072 37.1867 151.27 37.752 151.27 38.392ZM141.174 38.136C141.739 38.2427 142.32 38.4453 142.918 38.744C143.515 39.0427 144.064 39.4107 144.566 39.848C145.078 40.2747 145.483 40.744 145.782 41.256C145.771 41.0747 145.76 40.8827 145.75 40.68C145.739 40.4773 145.734 40.2427 145.734 39.976V36.088C144.955 36.3333 144.16 36.648 143.35 37.032C142.539 37.416 141.814 37.784 141.174 38.136ZM156.416 33.048V34.184H154.736V43H153.504V35.496C153.376 35.1333 153.184 34.824 152.928 34.568C152.683 34.312 152.363 34.184 151.968 34.184H151.84V33.048H152.08C152.336 33.048 152.603 33.1333 152.88 33.304C153.157 33.464 153.381 33.7147 153.552 34.056C153.541 34.0027 153.531 33.88 153.52 33.688C153.509 33.496 153.504 33.3307 153.504 33.192V31.992H154.368L154.72 33.048H156.416ZM161.946 33.048V34.184H161.626C161.295 34.2587 160.938 34.424 160.554 34.68C160.17 34.9253 159.807 35.2507 159.466 35.656C159.125 36.0507 158.842 36.5147 158.618 37.048C158.405 37.5813 158.298 38.168 158.298 38.808C158.298 39.576 158.41 40.1893 158.634 40.648C158.869 41.096 159.157 41.416 159.498 41.608C159.839 41.8 160.181 41.896 160.522 41.896C160.789 41.896 161.013 41.8693 161.194 41.816C161.375 41.7627 161.583 41.6667 161.818 41.528L162.378 42.504C162.101 42.7173 161.797 42.8667 161.466 42.952C161.135 43.0373 160.805 43.08 160.474 43.08C159.802 43.08 159.205 42.904 158.682 42.552C158.17 42.2 157.765 41.7093 157.466 41.08C157.178 40.44 157.034 39.6933 157.034 38.84C157.034 37.784 157.269 36.8507 157.738 36.04C158.218 35.2293 158.831 34.5947 159.578 34.136C159.397 34.1573 159.205 34.1733 159.002 34.184C158.799 34.184 158.575 34.184 158.33 34.184H156.09V33.048H161.946ZM171.605 33.048V34.184H169.925V43H168.693V39.672C168.181 39.0213 167.621 38.4773 167.013 38.04C166.405 37.6027 165.813 37.384 165.237 37.384C164.843 37.384 164.507 37.4907 164.229 37.704C163.963 37.9067 163.829 38.2107 163.829 38.616C163.829 39.2133 164.288 39.6933 165.205 40.056L164.597 41.192C163.947 40.9253 163.435 40.568 163.061 40.12C162.699 39.6613 162.517 39.144 162.517 38.568C162.517 38.0453 162.64 37.6133 162.885 37.272C163.141 36.92 163.461 36.6587 163.845 36.488C164.24 36.3173 164.64 36.232 165.045 36.232C165.803 36.232 166.475 36.4133 167.061 36.776C167.659 37.128 168.219 37.5867 168.741 38.152C168.72 37.9707 168.704 37.7893 168.693 37.608C168.693 37.4267 168.693 37.2453 168.693 37.064V34.184H161.621V33.048H171.605ZM175.854 33.048V34.184H174.174V43H172.942V35.496C172.814 35.1333 172.622 34.824 172.366 34.568C172.12 34.312 171.8 34.184 171.405 34.184H171.277V33.048H171.518C171.774 33.048 172.04 33.1333 172.318 33.304C172.595 33.464 172.819 33.7147 172.99 34.056C172.979 34.0027 172.968 33.88 172.958 33.688C172.947 33.496 172.942 33.3307 172.942 33.192V31.992H173.806L174.158 33.048H175.854ZM191.272 33.048V34.184H189.592V43H188.36V37.192C188.19 36.9573 188.03 36.7387 187.88 36.536C187.731 36.3227 187.582 36.1307 187.432 35.96L183.272 39.88L182.328 39L182.792 38.568C182.899 38.4187 182.984 38.2587 183.048 38.088C183.123 37.9173 183.16 37.7253 183.16 37.512C183.16 37.2453 183.08 37.032 182.92 36.872C182.76 36.712 182.526 36.632 182.216 36.632C182.046 36.632 181.88 36.6533 181.72 36.696C181.56 36.7387 181.395 36.8133 181.224 36.92L180.008 35.768C180.648 34.9253 181.315 34.2427 182.008 33.72C182.702 33.1973 183.47 32.936 184.312 32.936C185.134 32.936 185.854 33.1547 186.472 33.592C187.091 34.0187 187.736 34.6587 188.408 35.512C188.387 35.2987 188.371 35.0747 188.36 34.84C188.36 34.5947 188.36 34.3387 188.36 34.072V31.992H189.208L189.576 33.048H191.272ZM184.232 37.304C184.232 37.3573 184.232 37.4 184.232 37.432C184.36 37.2933 184.488 37.16 184.616 37.032C184.755 36.8933 184.899 36.7493 185.048 36.6L186.648 35.096C185.955 34.4347 185.214 34.104 184.424 34.104C183.806 34.104 183.267 34.2693 182.808 34.6C182.35 34.9307 181.939 35.32 181.576 35.768C181.854 35.6293 182.142 35.56 182.44 35.56C183.059 35.56 183.512 35.7307 183.8 36.072C184.088 36.4027 184.232 36.8133 184.232 37.304ZM195.349 33.048V34.184H194.773C194.453 34.472 194.208 34.7387 194.037 34.984C193.877 35.2293 193.771 35.4853 193.717 35.752C193.664 36.0187 193.637 36.328 193.637 36.68C193.637 37.032 193.68 37.4053 193.765 37.8C193.851 38.1947 193.936 38.6053 194.021 39.032C194.117 39.448 194.165 39.8853 194.165 40.344C194.165 40.856 194.08 41.3413 193.909 41.8C193.749 42.2587 193.44 42.664 192.981 43.016C192.523 43.368 191.845 43.64 190.949 43.832L190.613 42.728C191.296 42.568 191.797 42.3707 192.117 42.136C192.448 41.8907 192.661 41.6133 192.757 41.304C192.864 40.9947 192.917 40.664 192.917 40.312C192.917 39.8853 192.875 39.4693 192.789 39.064C192.704 38.6587 192.613 38.2587 192.517 37.864C192.432 37.4693 192.389 37.0853 192.389 36.712C192.389 36.1787 192.453 35.7253 192.581 35.352C192.72 34.9787 192.965 34.5893 193.317 34.184H190.949V33.048H195.349ZM199.604 33.048V34.184H197.924V43H196.692V35.496C196.564 35.1333 196.372 34.824 196.116 34.568C195.87 34.312 195.55 34.184 195.155 34.184H195.027V33.048H195.268C195.524 33.048 195.79 33.1333 196.068 33.304C196.345 33.464 196.569 33.7147 196.74 34.056C196.729 34.0027 196.718 33.88 196.708 33.688C196.697 33.496 196.692 33.3307 196.692 33.192V31.992H197.556L197.908 33.048H199.604ZM211.614 38.392C211.614 38.744 211.544 39.08 211.406 39.4C211.267 39.7093 211.038 39.9653 210.718 40.168C210.398 40.3707 209.971 40.472 209.438 40.472C209.267 40.472 209.102 40.4667 208.942 40.456C208.792 40.4453 208.643 40.424 208.494 40.392L208.59 39.24C208.654 39.2507 208.728 39.2613 208.814 39.272C208.91 39.272 209.016 39.272 209.134 39.272C209.646 39.272 209.976 39.176 210.126 38.984C210.286 38.7813 210.366 38.5413 210.366 38.264C210.366 37.72 210.11 37.2507 209.598 36.856C209.086 36.4613 208.323 36.184 207.31 36.024V43H206.078C205.768 42.3707 205.336 41.7787 204.782 41.224C204.227 40.6693 203.592 40.2053 202.878 39.832C202.174 39.448 201.432 39.208 200.654 39.112L200.03 37.576C201.011 37.0107 201.992 36.504 202.974 36.056C203.955 35.5973 204.99 35.192 206.078 34.84V34.184H199.277V33.048H212.51V34.184H207.31V34.808C208.099 34.9147 208.819 35.1333 209.47 35.464C210.12 35.784 210.638 36.1947 211.022 36.696C211.416 37.1867 211.614 37.752 211.614 38.392ZM201.518 38.136C202.083 38.2427 202.664 38.4453 203.262 38.744C203.859 39.0427 204.408 39.4107 204.91 39.848C205.422 40.2747 205.827 40.744 206.126 41.256C206.115 41.0747 206.104 40.8827 206.094 40.68C206.083 40.4773 206.078 40.2427 206.078 39.976V36.088C205.299 36.3333 204.504 36.648 203.694 37.032C202.883 37.416 202.158 37.784 201.518 38.136ZM220.729 33.048V34.184H219.049V43H217.817V34.184H216.152V33.048H217.625C217.454 32.8453 217.278 32.632 217.097 32.408C216.926 32.184 216.771 31.96 216.633 31.736C216.995 31.1067 217.385 30.536 217.801 30.024C218.217 29.5013 218.707 29.0907 219.273 28.792C219.838 28.4827 220.521 28.328 221.321 28.328C222.078 28.328 222.793 28.4507 223.465 28.696C224.137 28.9413 224.809 29.288 225.481 29.736C226.153 30.1733 226.857 30.696 227.593 31.304L226.921 32.168C226.185 31.5707 225.518 31.0747 224.921 30.68C224.334 30.2853 223.769 29.992 223.225 29.8C222.691 29.5973 222.121 29.496 221.513 29.496C220.627 29.496 219.918 29.72 219.385 30.168C218.851 30.616 218.393 31.1973 218.009 31.912C218.094 32.072 218.211 32.248 218.361 32.44C218.51 32.632 218.681 32.8347 218.873 33.048H220.729ZM232.739 38.392C232.739 38.744 232.669 39.08 232.531 39.4C232.392 39.7093 232.163 39.9653 231.843 40.168C231.523 40.3707 231.096 40.472 230.562 40.472C230.392 40.472 230.227 40.4667 230.067 40.456C229.917 40.4453 229.768 40.424 229.619 40.392L229.715 39.24C229.779 39.2507 229.853 39.2613 229.939 39.272C230.035 39.272 230.141 39.272 230.259 39.272C230.771 39.272 231.101 39.176 231.251 38.984C231.411 38.7813 231.491 38.5413 231.491 38.264C231.491 37.72 231.235 37.2507 230.723 36.856C230.211 36.4613 229.448 36.184 228.435 36.024V43H227.203C226.893 42.3707 226.461 41.7787 225.907 41.224C225.352 40.6693 224.717 40.2053 224.003 39.832C223.299 39.448 222.557 39.208 221.779 39.112L221.155 37.576C222.136 37.0107 223.117 36.504 224.099 36.056C225.08 35.5973 226.115 35.192 227.203 34.84V34.184H220.402V33.048H233.635V34.184H228.435V34.808C229.224 34.9147 229.944 35.1333 230.595 35.464C231.245 35.784 231.763 36.1947 232.147 36.696C232.541 37.1867 232.739 37.752 232.739 38.392ZM222.643 38.136C223.208 38.2427 223.789 38.4453 224.387 38.744C224.984 39.0427 225.533 39.4107 226.035 39.848C226.547 40.2747 226.952 40.744 227.251 41.256C227.24 41.0747 227.229 40.8827 227.219 40.68C227.208 40.4773 227.203 40.2427 227.203 39.976V36.088C226.424 36.3333 225.629 36.648 224.819 37.032C224.008 37.416 223.283 37.784 222.643 38.136ZM239.165 33.048V34.184H238.845C238.514 34.2587 238.157 34.424 237.773 34.68C237.389 34.9253 237.026 35.2507 236.685 35.656C236.343 36.0507 236.061 36.5147 235.837 37.048C235.623 37.5813 235.517 38.168 235.517 38.808C235.517 39.576 235.629 40.1893 235.853 40.648C236.087 41.096 236.375 41.416 236.717 41.608C237.058 41.8 237.399 41.896 237.741 41.896C238.007 41.896 238.231 41.8693 238.413 41.816C238.594 41.7627 238.802 41.6667 239.037 41.528L239.597 42.504C239.319 42.7173 239.015 42.8667 238.685 42.952C238.354 43.0373 238.023 43.08 237.693 43.08C237.021 43.08 236.423 42.904 235.901 42.552C235.389 42.2 234.983 41.7093 234.685 41.08C234.397 40.44 234.253 39.6933 234.253 38.84C234.253 37.784 234.487 36.8507 234.957 36.04C235.437 35.2293 236.05 34.5947 236.797 34.136C236.615 34.1573 236.423 34.1733 236.221 34.184C236.018 34.184 235.794 34.184 235.549 34.184H233.309V33.048H239.165ZM248.824 33.048V34.184H247.144V43H245.912V39.672C245.4 39.0213 244.84 38.4773 244.232 38.04C243.624 37.6027 243.032 37.384 242.456 37.384C242.061 37.384 241.725 37.4907 241.448 37.704C241.181 37.9067 241.048 38.2107 241.048 38.616C241.048 39.2133 241.507 39.6933 242.424 40.056L241.816 41.192C241.165 40.9253 240.653 40.568 240.28 40.12C239.917 39.6613 239.736 39.144 239.736 38.568C239.736 38.0453 239.859 37.6133 240.104 37.272C240.36 36.92 240.68 36.6587 241.064 36.488C241.459 36.3173 241.859 36.232 242.264 36.232C243.021 36.232 243.693 36.4133 244.28 36.776C244.877 37.128 245.437 37.5867 245.96 38.152C245.939 37.9707 245.923 37.7893 245.912 37.608C245.912 37.4267 245.912 37.2453 245.912 37.064V34.184H238.84V33.048H248.824ZM262.321 33.048V34.184H260.641V43H259.409C259.089 42.36 258.646 41.7733 258.081 41.24C257.526 40.696 256.886 40.2373 256.161 39.864C255.436 39.4907 254.662 39.24 253.841 39.112L253.217 37.576C254.188 36.9893 255.185 36.456 256.209 35.976C257.244 35.496 258.31 35.08 259.409 34.728V34.184H252.465V33.048H262.321ZM254.705 38.136C255.249 38.2533 255.825 38.456 256.433 38.744C257.041 39.0213 257.612 39.3733 258.145 39.8C258.689 40.2267 259.126 40.7173 259.457 41.272C259.446 41.08 259.436 40.8827 259.425 40.68C259.414 40.4773 259.409 40.2427 259.409 39.976V35.976C258.641 36.2427 257.841 36.5627 257.009 36.936C256.177 37.2987 255.409 37.6987 254.705 38.136ZM266.572 33.048V34.184H264.892V43H263.66V35.496C263.532 35.1333 263.34 34.824 263.084 34.568C262.839 34.312 262.519 34.184 262.124 34.184H261.996V33.048H262.236C262.492 33.048 262.759 33.1333 263.036 33.304C263.314 33.464 263.538 33.7147 263.708 34.056C263.698 34.0027 263.687 33.88 263.676 33.688C263.666 33.496 263.66 33.3307 263.66 33.192V31.992H264.524L264.876 33.048H266.572ZM270.822 33.048V34.184H269.142V43H267.91V34.184H266.246V33.048H267.718C267.548 32.8453 267.372 32.632 267.19 32.408C267.02 32.184 266.865 31.96 266.726 31.736C267.089 31.1067 267.478 30.536 267.894 30.024C268.31 29.5013 268.801 29.0907 269.366 28.792C269.932 28.4827 270.614 28.328 271.414 28.328C272.172 28.328 272.886 28.4507 273.558 28.696C274.23 28.9413 274.902 29.288 275.574 29.736C276.246 30.1733 276.95 30.696 277.686 31.304L277.014 32.168C276.278 31.5707 275.612 31.0747 275.014 30.68C274.428 30.2853 273.862 29.992 273.318 29.8C272.785 29.5973 272.214 29.496 271.606 29.496C270.721 29.496 270.012 29.72 269.478 30.168C268.945 30.616 268.486 31.1973 268.102 31.912C268.188 32.072 268.305 32.248 268.454 32.44C268.604 32.632 268.774 32.8347 268.966 33.048H270.822ZM282.208 33.048V34.184H276.352V37.048C276.352 37.6453 276.55 37.944 276.944 37.944C277.254 37.944 277.579 37.8 277.92 37.512C278.262 37.2133 278.662 36.7333 279.12 36.072L280.08 35.928C280.422 36.4293 280.683 36.9467 280.864 37.48C281.056 38.0133 281.152 38.5467 281.152 39.08C281.152 39.752 281.003 40.3547 280.704 40.888C280.416 41.4213 279.984 41.8427 279.408 42.152C278.843 42.4613 278.15 42.616 277.328 42.616C276.39 42.616 275.536 42.392 274.768 41.944C274 41.496 273.312 40.7547 272.704 39.72C272.107 38.6853 271.579 37.2987 271.12 35.56L272.336 35.24C272.72 36.7227 273.142 37.9173 273.6 38.824C274.07 39.72 274.603 40.376 275.2 40.792C275.798 41.1973 276.486 41.4 277.264 41.4C278.118 41.4 278.774 41.1867 279.232 40.76C279.702 40.3333 279.936 39.784 279.936 39.112C279.936 38.7493 279.899 38.4293 279.824 38.152C279.75 37.864 279.643 37.6187 279.504 37.416C279.088 37.992 278.662 38.424 278.224 38.712C277.798 38.9893 277.376 39.128 276.96 39.128C276.448 39.128 276.038 38.9893 275.728 38.712C275.558 38.5627 275.414 38.3547 275.296 38.088C275.179 37.8107 275.12 37.352 275.12 36.712V34.184H270.496V33.048H282.208ZM276.464 45.384C276.198 45.384 275.968 45.2987 275.776 45.128C275.595 44.9573 275.504 44.7333 275.504 44.456C275.504 44.1787 275.595 43.9493 275.776 43.768C275.968 43.5867 276.198 43.496 276.464 43.496C276.731 43.496 276.955 43.5867 277.136 43.768C277.328 43.9493 277.424 44.1787 277.424 44.456C277.424 44.7333 277.328 44.9573 277.136 45.128C276.955 45.2987 276.731 45.384 276.464 45.384ZM287.743 33.048V34.184H287.423C287.092 34.2587 286.735 34.424 286.351 34.68C285.967 34.9253 285.604 35.2507 285.263 35.656C284.922 36.0507 284.639 36.5147 284.415 37.048C284.202 37.5813 284.095 38.168 284.095 38.808C284.095 39.576 284.207 40.1893 284.431 40.648C284.666 41.096 284.954 41.416 285.295 41.608C285.636 41.8 285.978 41.896 286.319 41.896C286.586 41.896 286.81 41.8693 286.991 41.816C287.172 41.7627 287.38 41.6667 287.615 41.528L288.175 42.504C287.898 42.7173 287.594 42.8667 287.263 42.952C286.932 43.0373 286.602 43.08 286.271 43.08C285.599 43.08 285.002 42.904 284.479 42.552C283.967 42.2 283.562 41.7093 283.263 41.08C282.975 40.44 282.831 39.6933 282.831 38.84C282.831 37.784 283.066 36.8507 283.535 36.04C284.015 35.2293 284.628 34.5947 285.375 34.136C285.194 34.1573 285.002 34.1733 284.799 34.184C284.596 34.184 284.372 34.184 284.127 34.184H281.887V33.048H287.743ZM297.754 33.048V34.184H296.074V43H294.842C294.394 42.4027 293.898 41.88 293.354 41.432C292.81 40.9733 292.181 40.5893 291.466 40.28C290.751 39.9707 289.903 39.7467 288.922 39.608L288.346 38.152C288.837 37.8213 289.365 37.5067 289.93 37.208C290.495 36.9093 291.055 36.632 291.61 36.376C291.205 36.0667 290.735 35.7947 290.202 35.56C289.679 35.3147 289.061 35.1173 288.346 34.968L288.698 34.184H287.418V33.048H297.754ZM294.842 34.184H289.882C290.277 34.3227 290.671 34.4987 291.066 34.712C291.461 34.9253 291.823 35.1547 292.154 35.4C292.485 35.6453 292.751 35.8747 292.954 36.088L293.034 36.984C292.501 37.2187 291.946 37.48 291.37 37.768C290.794 38.0453 290.282 38.3227 289.834 38.6C290.997 38.8133 291.973 39.1653 292.762 39.656C293.551 40.1467 294.255 40.7333 294.874 41.416C294.853 41.0427 294.842 40.6587 294.842 40.264V34.184ZM290.458 43.096C290.191 43.096 289.962 43.0107 289.77 42.84C289.589 42.6693 289.498 42.4453 289.498 42.168C289.498 41.8907 289.589 41.6613 289.77 41.48C289.962 41.2987 290.191 41.208 290.458 41.208C290.725 41.208 290.949 41.2987 291.13 41.48C291.322 41.6613 291.418 41.8907 291.418 42.168C291.418 42.4453 291.322 42.6693 291.13 42.84C290.949 43.0107 290.725 43.096 290.458 43.096ZM309.947 33.048V34.184H308.267V43H307.035V34.184H305.371V33.048H306.843C306.673 32.8453 306.497 32.632 306.315 32.408C306.145 32.184 305.99 31.96 305.851 31.736C306.214 31.1067 306.603 30.536 307.019 30.024C307.435 29.5013 307.926 29.0907 308.491 28.792C309.057 28.4827 309.739 28.328 310.539 28.328C311.297 28.328 312.011 28.4507 312.683 28.696C313.355 28.9413 314.027 29.288 314.699 29.736C315.371 30.1733 316.075 30.696 316.811 31.304L316.139 32.168C315.403 31.5707 314.737 31.0747 314.139 30.68C313.553 30.2853 312.987 29.992 312.443 29.8C311.91 29.5973 311.339 29.496 310.731 29.496C309.846 29.496 309.137 29.72 308.603 30.168C308.07 30.616 307.611 31.1973 307.227 31.912C307.313 32.072 307.43 32.248 307.579 32.44C307.729 32.632 307.899 32.8347 308.091 33.048H309.947ZM319.605 33.048V34.184H317.925V43H316.693V39.672C316.181 39.0213 315.621 38.4773 315.013 38.04C314.405 37.6027 313.813 37.384 313.237 37.384C312.843 37.384 312.507 37.4907 312.229 37.704C311.963 37.9067 311.829 38.2107 311.829 38.616C311.829 39.2133 312.288 39.6933 313.205 40.056L312.597 41.192C311.947 40.9253 311.435 40.568 311.061 40.12C310.699 39.6613 310.517 39.144 310.517 38.568C310.517 38.0453 310.64 37.6133 310.885 37.272C311.141 36.92 311.461 36.6587 311.845 36.488C312.24 36.3173 312.64 36.232 313.045 36.232C313.803 36.232 314.475 36.4133 315.061 36.776C315.659 37.128 316.219 37.5867 316.741 38.152C316.72 37.9707 316.704 37.7893 316.693 37.608C316.693 37.4267 316.693 37.2453 316.693 37.064V34.184H309.621V33.048H319.605ZM329.262 33.048V34.184H327.582V43H326.35V39.672C325.838 39.0213 325.278 38.4773 324.67 38.04C324.062 37.6027 323.47 37.384 322.894 37.384C322.499 37.384 322.163 37.4907 321.886 37.704C321.619 37.9067 321.486 38.2107 321.486 38.616C321.486 39.2133 321.944 39.6933 322.862 40.056L322.254 41.192C321.603 40.9253 321.091 40.568 320.718 40.12C320.355 39.6613 320.174 39.144 320.174 38.568C320.174 38.0453 320.296 37.6133 320.542 37.272C320.798 36.92 321.118 36.6587 321.502 36.488C321.896 36.3173 322.296 36.232 322.702 36.232C323.459 36.232 324.131 36.4133 324.718 36.776C325.315 37.128 325.875 37.5867 326.398 38.152C326.376 37.9707 326.36 37.7893 326.35 37.608C326.35 37.4267 326.35 37.2453 326.35 37.064V34.184H319.277V33.048H329.262ZM85.696 51.048V52.184H84.016V61H82.784C82.464 60.36 82.0213 59.7733 81.456 59.24C80.9013 58.696 80.2613 58.2373 79.536 57.864C78.8107 57.4907 78.0373 57.24 77.216 57.112L76.592 55.576C77.5627 54.9893 78.56 54.456 79.584 53.976C80.6187 53.496 81.6853 53.08 82.784 52.728V52.184H75.84V51.048H85.696ZM78.08 56.136C78.624 56.2533 79.2 56.456 79.808 56.744C80.416 57.0213 80.9867 57.3733 81.52 57.8C82.064 58.2267 82.5013 58.7173 82.832 59.272C82.8213 59.08 82.8107 58.8827 82.8 58.68C82.7893 58.4773 82.784 58.2427 82.784 57.976V53.976C82.016 54.2427 81.216 54.5627 80.384 54.936C79.552 55.2987 78.784 55.6987 78.08 56.136ZM97.0033 51.048V52.184H85.3712V51.048H97.0033ZM92.0433 60.2C91.1686 60.2 90.3526 59.9867 89.5953 59.56C88.8379 59.1227 88.1553 58.4187 87.5473 57.448C86.9499 56.4773 86.4326 55.176 85.9953 53.544L87.2113 53.224C87.5846 54.5467 87.9899 55.6347 88.4273 56.488C88.8753 57.3413 89.3873 57.9707 89.9633 58.376C90.5499 58.7813 91.2326 58.984 92.0113 58.984C92.6726 58.984 93.2006 58.8773 93.5953 58.664C93.9899 58.44 94.2726 58.1467 94.4433 57.784C94.6139 57.4107 94.6993 57 94.6993 56.552C94.6993 56.104 94.6139 55.6987 94.4433 55.336C94.2726 54.9627 94.0326 54.6693 93.7233 54.456C93.4139 54.2427 93.0513 54.136 92.6353 54.136C92.2086 54.136 91.8993 54.2267 91.7073 54.408C91.5259 54.5893 91.4353 54.8293 91.4353 55.128C91.4353 55.2347 91.4459 55.3467 91.4673 55.464C91.4886 55.5813 91.5259 55.7147 91.5793 55.864L90.3473 56.104C90.2833 55.9013 90.2299 55.704 90.1873 55.512C90.1553 55.32 90.1393 55.1227 90.1393 54.92C90.1393 54.3013 90.3633 53.8267 90.8113 53.496C91.2699 53.1653 91.8566 53 92.5713 53C93.2326 53 93.8139 53.1547 94.3153 53.464C94.8166 53.7627 95.2113 54.184 95.4993 54.728C95.7873 55.272 95.9313 55.9013 95.9313 56.616C95.9313 57.288 95.7873 57.896 95.4993 58.44C95.2219 58.9733 94.7953 59.4 94.2193 59.72C93.6433 60.04 92.9179 60.2 92.0433 60.2ZM90.2641 49.688L95.4801 46.328L96.0881 47.24L90.9841 50.696L90.2641 49.688ZM106.956 51.048V52.184H105.276V61H104.044V58.424C103.532 57.7733 102.972 57.2293 102.364 56.792C101.756 56.3547 101.164 56.136 100.588 56.136C100.193 56.136 99.8571 56.2373 99.5798 56.44C99.3131 56.6427 99.1798 56.9467 99.1798 57.352C99.1798 57.9493 99.6384 58.4293 100.556 58.792L99.9478 59.944C99.2971 59.6667 98.7851 59.304 98.4118 58.856C98.0491 58.3973 97.8678 57.88 97.8678 57.304C97.8678 56.7813 97.9904 56.3493 98.2358 56.008C98.4918 55.6667 98.8118 55.4107 99.1957 55.24C99.5904 55.0693 99.9904 54.984 100.396 54.984C100.481 54.984 100.566 54.984 100.652 54.984C100.545 54.6 100.38 54.2907 100.156 54.056C99.9318 53.8107 99.5958 53.6133 99.1478 53.464C98.7104 53.3147 98.1131 53.192 97.3558 53.096L97.4998 52.184H96.6837V51.048H106.956ZM101.82 55.064C101.82 55.128 101.82 55.1867 101.82 55.24C102.246 55.4 102.641 55.624 103.004 55.912C103.377 56.2 103.734 56.5253 104.076 56.888C104.065 56.7067 104.054 56.52 104.044 56.328C104.044 56.1253 104.044 55.9227 104.044 55.72V52.184H98.5558C99.6224 52.3333 100.433 52.6693 100.988 53.192C101.542 53.704 101.82 54.328 101.82 55.064ZM111.213 51.048V52.184H109.533V61H108.301V53.496C108.173 53.1333 107.981 52.824 107.725 52.568C107.48 52.312 107.16 52.184 106.765 52.184H106.637V51.048H106.877C107.133 51.048 107.4 51.1333 107.677 51.304C107.954 51.464 108.178 51.7147 108.349 52.056C108.338 52.0027 108.328 51.88 108.317 51.688C108.306 51.496 108.301 51.3307 108.301 51.192V49.992H109.165L109.517 51.048H111.213ZM120.871 51.048V52.184H119.191V61H117.959V57.672C117.447 57.0213 116.887 56.4773 116.279 56.04C115.671 55.6027 115.079 55.384 114.503 55.384C114.108 55.384 113.772 55.4907 113.495 55.704C113.228 55.9067 113.095 56.2107 113.095 56.616C113.095 57.2133 113.554 57.6933 114.471 58.056L113.863 59.192C113.212 58.9253 112.7 58.568 112.327 58.12C111.964 57.6613 111.783 57.144 111.783 56.568C111.783 56.0453 111.906 55.6133 112.151 55.272C112.407 54.92 112.727 54.6587 113.111 54.488C113.506 54.3173 113.906 54.232 114.311 54.232C115.068 54.232 115.74 54.4133 116.327 54.776C116.924 55.128 117.484 55.5867 118.007 56.152C117.986 55.9707 117.97 55.7893 117.959 55.608C117.959 55.4267 117.959 55.2453 117.959 55.064V52.184H110.887V51.048H120.871ZM136.288 51.048V52.184H134.608V61H133.376V55.192C133.205 54.9573 133.045 54.7387 132.896 54.536C132.747 54.3227 132.597 54.1307 132.448 53.96L128.288 57.88L127.344 57L127.808 56.568C127.915 56.4187 128 56.2587 128.064 56.088C128.139 55.9173 128.176 55.7253 128.176 55.512C128.176 55.2453 128.096 55.032 127.936 54.872C127.776 54.712 127.541 54.632 127.232 54.632C127.061 54.632 126.896 54.6533 126.736 54.696C126.576 54.7387 126.411 54.8133 126.24 54.92L125.024 53.768C125.664 52.9253 126.331 52.2427 127.024 51.72C127.717 51.1973 128.485 50.936 129.328 50.936C130.149 50.936 130.869 51.1547 131.488 51.592C132.107 52.0187 132.752 52.6587 133.424 53.512C133.403 53.2987 133.387 53.0747 133.376 52.84C133.376 52.5947 133.376 52.3387 133.376 52.072V49.992H134.224L134.592 51.048H136.288ZM129.248 55.304C129.248 55.3573 129.248 55.4 129.248 55.432C129.376 55.2933 129.504 55.16 129.632 55.032C129.771 54.8933 129.915 54.7493 130.064 54.6L131.664 53.096C130.971 52.4347 130.229 52.104 129.44 52.104C128.821 52.104 128.283 52.2693 127.824 52.6C127.365 52.9307 126.955 53.32 126.592 53.768C126.869 53.6293 127.157 53.56 127.456 53.56C128.075 53.56 128.528 53.7307 128.816 54.072C129.104 54.4027 129.248 54.8133 129.248 55.304ZM140.365 51.048V52.184H139.789C139.469 52.472 139.224 52.7387 139.053 52.984C138.893 53.2293 138.786 53.4853 138.733 53.752C138.68 54.0187 138.653 54.328 138.653 54.68C138.653 55.032 138.696 55.4053 138.781 55.8C138.866 56.1947 138.952 56.6053 139.037 57.032C139.133 57.448 139.181 57.8853 139.181 58.344C139.181 58.856 139.096 59.3413 138.925 59.8C138.765 60.2587 138.456 60.664 137.997 61.016C137.538 61.368 136.861 61.64 135.965 61.832L135.629 60.728C136.312 60.568 136.813 60.3707 137.133 60.136C137.464 59.8907 137.677 59.6133 137.773 59.304C137.88 58.9947 137.933 58.664 137.933 58.312C137.933 57.8853 137.89 57.4693 137.805 57.064C137.72 56.6587 137.629 56.2587 137.533 55.864C137.448 55.4693 137.405 55.0853 137.405 54.712C137.405 54.1787 137.469 53.7253 137.597 53.352C137.736 52.9787 137.981 52.5893 138.333 52.184H135.965V51.048H140.365ZM144.619 51.048V52.184H142.939V61H141.707V53.496C141.579 53.1333 141.387 52.824 141.131 52.568C140.886 52.312 140.566 52.184 140.171 52.184H140.043V51.048H140.283C140.539 51.048 140.806 51.1333 141.083 51.304C141.36 51.464 141.584 51.7147 141.755 52.056C141.744 52.0027 141.734 51.88 141.723 51.688C141.712 51.496 141.707 51.3307 141.707 51.192V49.992H142.571L142.923 51.048H144.619ZM150.149 51.048V52.184H149.829C149.498 52.2587 149.141 52.424 148.757 52.68C148.373 52.9253 148.01 53.2507 147.669 53.656C147.328 54.0507 147.045 54.5147 146.821 55.048C146.608 55.5813 146.501 56.168 146.501 56.808C146.501 57.576 146.613 58.1893 146.837 58.648C147.072 59.096 147.36 59.416 147.701 59.608C148.042 59.8 148.384 59.896 148.725 59.896C148.992 59.896 149.216 59.8693 149.397 59.816C149.578 59.7627 149.786 59.6667 150.021 59.528L150.581 60.504C150.304 60.7173 150 60.8667 149.669 60.952C149.338 61.0373 149.008 61.08 148.677 61.08C148.005 61.08 147.408 60.904 146.885 60.552C146.373 60.2 145.968 59.7093 145.669 59.08C145.381 58.44 145.237 57.6933 145.237 56.84C145.237 55.784 145.472 54.8507 145.941 54.04C146.421 53.2293 147.034 52.5947 147.781 52.136C147.6 52.1573 147.408 52.1733 147.205 52.184C147.002 52.184 146.778 52.184 146.533 52.184H144.293V51.048H150.149ZM162.16 56.392C162.16 56.744 162.091 57.08 161.952 57.4C161.814 57.7093 161.584 57.9653 161.264 58.168C160.944 58.3707 160.518 58.472 159.984 58.472C159.814 58.472 159.648 58.4667 159.488 58.456C159.339 58.4453 159.19 58.424 159.04 58.392L159.136 57.24C159.2 57.2507 159.275 57.2613 159.36 57.272C159.456 57.272 159.563 57.272 159.68 57.272C160.192 57.272 160.523 57.176 160.672 56.984C160.832 56.7813 160.912 56.5413 160.912 56.264C160.912 55.72 160.656 55.2507 160.144 54.856C159.632 54.4613 158.87 54.184 157.856 54.024V61H156.624C156.315 60.3707 155.883 59.7787 155.328 59.224C154.774 58.6693 154.139 58.2053 153.424 57.832C152.72 57.448 151.979 57.208 151.2 57.112L150.576 55.576C151.558 55.0107 152.539 54.504 153.52 54.056C154.502 53.5973 155.536 53.192 156.624 52.84V52.184H149.824V51.048H163.056V52.184H157.856V52.808C158.646 52.9147 159.366 53.1333 160.016 53.464C160.667 53.784 161.184 54.1947 161.568 54.696C161.963 55.1867 162.16 55.752 162.16 56.392ZM152.064 56.136C152.63 56.2427 153.211 56.4453 153.808 56.744C154.406 57.0427 154.955 57.4107 155.456 57.848C155.968 58.2747 156.374 58.744 156.672 59.256C156.662 59.0747 156.651 58.8827 156.64 58.68C156.63 58.4773 156.624 58.2427 156.624 57.976V54.088C155.846 54.3333 155.051 54.648 154.24 55.032C153.43 55.416 152.704 55.784 152.064 56.136ZM172.587 51.048V52.184H170.907V61H169.675C169.355 60.36 168.912 59.7733 168.347 59.24C167.792 58.696 167.152 58.2373 166.427 57.864C165.701 57.4907 164.928 57.24 164.107 57.112L163.483 55.576C164.453 54.9893 165.451 54.456 166.475 53.976C167.509 53.496 168.576 53.08 169.675 52.728V52.184H162.731V51.048H172.587ZM164.971 56.136C165.515 56.2533 166.091 56.456 166.699 56.744C167.307 57.0213 167.877 57.3733 168.411 57.8C168.955 58.2267 169.392 58.7173 169.723 59.272C169.712 59.08 169.701 58.8827 169.691 58.68C169.68 58.4773 169.675 58.2427 169.675 57.976V53.976C168.907 54.2427 168.107 54.5627 167.275 54.936C166.443 55.2987 165.675 55.6987 164.971 56.136ZM165.851 61.096C165.584 61.096 165.355 61.0107 165.163 60.84C164.981 60.6693 164.891 60.4453 164.891 60.168C164.891 59.8907 164.981 59.6613 165.163 59.48C165.355 59.2987 165.584 59.208 165.851 59.208C166.117 59.208 166.341 59.2987 166.523 59.48C166.715 59.6613 166.811 59.8907 166.811 60.168C166.811 60.4453 166.715 60.6693 166.523 60.84C166.341 61.0107 166.117 61.096 165.851 61.096ZM182.087 51.048V52.184H181.767C181.436 52.2587 181.079 52.424 180.695 52.68C180.311 52.9253 179.948 53.2507 179.607 53.656C179.265 54.0507 178.983 54.5147 178.759 55.048C178.545 55.5813 178.439 56.168 178.439 56.808C178.439 57.576 178.551 58.1893 178.775 58.648C179.009 59.096 179.297 59.416 179.639 59.608C179.98 59.8 180.321 59.896 180.663 59.896C180.929 59.896 181.153 59.8693 181.335 59.816C181.516 59.7627 181.724 59.6667 181.959 59.528L182.519 60.504C182.241 60.7173 181.937 60.8667 181.607 60.952C181.276 61.0373 180.94 61.08 180.599 61.08C179.927 61.08 179.335 60.904 178.823 60.552C178.311 60.2 177.905 59.7093 177.607 59.08C177.319 58.44 177.175 57.6933 177.175 56.84C177.175 56.0187 177.303 55.288 177.559 54.648C177.825 53.9973 178.167 53.432 178.583 52.952C179.009 52.472 179.468 52.0773 179.959 51.768C180.449 51.448 180.924 51.208 181.383 51.048H182.087ZM192.034 51.048V52.184H190.354V61H189.122V58.424C188.61 57.7733 188.05 57.2293 187.442 56.792C186.834 56.3547 186.242 56.136 185.666 56.136C185.271 56.136 184.935 56.2373 184.658 56.44C184.391 56.6427 184.258 56.9467 184.258 57.352C184.258 57.9493 184.717 58.4293 185.634 58.792L185.026 59.944C184.375 59.6667 183.863 59.304 183.49 58.856C183.127 58.3973 182.946 57.88 182.946 57.304C182.946 56.7813 183.069 56.3493 183.314 56.008C183.57 55.6667 183.89 55.4107 184.274 55.24C184.669 55.0693 185.069 54.984 185.474 54.984C185.559 54.984 185.645 54.984 185.73 54.984C185.623 54.6 185.458 54.2907 185.234 54.056C185.01 53.8107 184.674 53.6133 184.226 53.464C183.789 53.3147 183.191 53.192 182.434 53.096L182.578 52.184H181.762V51.048H192.034ZM186.898 55.064C186.898 55.128 186.898 55.1867 186.898 55.24C187.325 55.4 187.719 55.624 188.082 55.912C188.455 56.2 188.813 56.5253 189.154 56.888C189.143 56.7067 189.133 56.52 189.122 56.328C189.122 56.1253 189.122 55.9227 189.122 55.72V52.184H183.634C184.701 52.3333 185.511 52.6693 186.066 53.192C186.621 53.704 186.898 54.328 186.898 55.064ZM202.051 51.048V52.184H200.371V61H199.139C198.691 60.4027 198.195 59.88 197.651 59.432C197.107 58.9733 196.478 58.5893 195.763 58.28C195.048 57.9707 194.2 57.7467 193.219 57.608L192.643 56.152C193.134 55.8213 193.662 55.5067 194.227 55.208C194.792 54.9093 195.352 54.632 195.907 54.376C195.502 54.0667 195.032 53.7947 194.499 53.56C193.976 53.3147 193.358 53.1173 192.643 52.968L192.995 52.184H191.715V51.048H202.051ZM199.139 52.184H194.179C194.574 52.3227 194.968 52.4987 195.363 52.712C195.758 52.9253 196.12 53.1547 196.451 53.4C196.782 53.6453 197.048 53.8747 197.251 54.088L197.331 54.984C196.798 55.2187 196.243 55.48 195.667 55.768C195.091 56.0453 194.579 56.3227 194.131 56.6C195.294 56.8133 196.27 57.1653 197.059 57.656C197.848 58.1467 198.552 58.7333 199.171 59.416C199.15 59.0427 199.139 58.6587 199.139 58.264V52.184ZM194.755 61.096C194.488 61.096 194.259 61.0107 194.067 60.84C193.886 60.6693 193.795 60.4453 193.795 60.168C193.795 59.8907 193.886 59.6613 194.067 59.48C194.259 59.2987 194.488 59.208 194.755 59.208C195.022 59.208 195.246 59.2987 195.427 59.48C195.619 59.6613 195.715 59.8907 195.715 60.168C195.715 60.4453 195.619 60.6693 195.427 60.84C195.246 61.0107 195.022 61.096 194.755 61.096ZM206.307 51.048V52.184H204.627V61H203.395V53.496C203.267 53.1333 203.075 52.824 202.819 52.568C202.573 52.312 202.253 52.184 201.859 52.184H201.731V51.048H201.971C202.227 51.048 202.493 51.1333 202.771 51.304C203.048 51.464 203.272 51.7147 203.443 52.056C203.432 52.0027 203.421 51.88 203.411 51.688C203.4 51.496 203.395 51.3307 203.395 51.192V49.992H204.259L204.611 51.048H206.307ZM215.949 51.048V52.184H208.685V56.392C209.975 55.048 211.661 53.992 213.741 53.224L214.781 54.248C214.482 54.8027 214.263 55.3467 214.125 55.88C213.997 56.4133 213.933 57.0267 213.933 57.72C213.933 58.2427 213.975 58.744 214.061 59.224C214.146 59.704 214.29 60.2427 214.493 60.84L213.293 61.112C213.101 60.4933 212.951 59.8907 212.845 59.304C212.738 58.7067 212.685 58.088 212.685 57.448C212.685 56.872 212.743 56.3387 212.861 55.848C212.978 55.3573 213.111 54.9573 213.261 54.648C212.407 55.032 211.586 55.5173 210.797 56.104C210.018 56.68 209.218 57.3787 208.397 58.2L207.453 57.56V52.184H205.981V51.048H215.949ZM216.828 60.2422C216.828 59.9922 216.901 59.7839 217.047 59.6172C217.198 59.4505 217.422 59.3672 217.719 59.3672C218.016 59.3672 218.24 59.4505 218.391 59.6172C218.547 59.7839 218.625 59.9922 218.625 60.2422C218.625 60.4818 218.547 60.6823 218.391 60.8438C218.24 61.0052 218.016 61.0859 217.719 61.0859C217.422 61.0859 217.198 61.0052 217.047 60.8438C216.901 60.6823 216.828 60.4818 216.828 60.2422ZM216.836 53.3438C216.836 53.0938 216.909 52.8854 217.055 52.7188C217.206 52.5521 217.43 52.4688 217.727 52.4688C218.023 52.4688 218.247 52.5521 218.398 52.7188C218.555 52.8854 218.633 53.0938 218.633 53.3438C218.633 53.5833 218.555 53.7839 218.398 53.9453C218.247 54.1068 218.023 54.1875 217.727 54.1875C217.43 54.1875 217.206 54.1068 217.055 53.9453C216.909 53.7839 216.836 53.5833 216.836 53.3438Z" fill="#1A1A1A"/>
<g clip-path="url(#clip0)">
<path d="M24.6984 53.8659C24.6984 53.8659 21.8669 60.4338 36.7986 62.1788V68.8194H54.0536V51.2484L24.4564 50.4486L24.6984 53.8659Z" fill="#FCC6AE"/>
<path d="M32.8055 26.1399C31.9343 27.5213 30.1193 27.9334 28.7399 27.0609L20.1245 21.3897C18.745 20.5172 18.3336 18.6995 19.2049 17.3181C20.0761 15.9366 21.8911 15.5246 23.2705 16.3971L31.8859 22.0925C33.2412 22.9408 33.6526 24.7585 32.8055 26.1399Z" fill="#FCC6AE"/>
<path d="M50.7624 58.6887C54.3444 58.6887 57.2481 55.7807 57.2481 52.1935C57.2481 48.6063 54.3444 45.6983 50.7624 45.6983C47.1804 45.6983 44.2767 48.6063 44.2767 52.1935C44.2767 55.7807 47.1804 58.6887 50.7624 58.6887Z" fill="#FCC6AE"/>
<path d="M49.8428 31.181C51.44 30.8174 53.013 31.8111 53.376 33.3864L57.1755 50.9574C57.5385 52.557 56.5463 54.1323 54.9733 54.4958L55.1669 54.1565C53.5696 54.5201 51.9966 53.5264 51.6336 51.9511L47.6647 34.7194C47.2533 33.1441 48.2455 31.5687 49.8428 31.181Z" fill="#FCC6AE"/>
<path d="M56.5463 67.3167H33.217V71.8246H56.5463V67.3167Z" fill="#19AAF8"/>
<path d="M27.8444 52.048C26.9732 53.4295 25.1581 53.8415 23.7787 52.969L20.197 50.3515C18.8176 49.479 18.4062 47.6613 19.2774 46.2799C20.1486 44.8984 21.9637 44.4864 23.3431 45.3589L26.9248 47.9764C28.3042 48.8489 28.7156 50.6666 27.8444 52.048Z" fill="#FCC6AE"/>
<path d="M25.6179 10.0474H49.4796C50.1088 10.0474 50.617 10.5564 50.617 11.1865V56.1683C50.617 56.7984 50.1088 57.3073 49.4796 57.3073H25.6179C24.9887 57.3073 24.4805 56.7984 24.4805 56.1683V11.1865C24.4805 10.5564 24.9887 10.0474 25.6179 10.0474Z" fill="#19456F"/>
<path d="M48.0759 13.0043H27.0457C26.5375 13.0043 26.1261 13.4163 26.1261 13.9252V53.4054C26.1261 53.9144 26.5375 54.3264 27.0457 54.3264H48.0759C48.5841 54.3264 48.9955 53.9144 48.9955 53.4054V13.9252C48.9955 13.4163 48.5841 13.0043 48.0759 13.0043Z" fill="white"/>
<path d="M34.0881 11.4531H39.5816C39.6784 11.4531 39.751 11.5258 39.751 11.6227V11.647C39.751 11.7439 39.6784 11.8166 39.5816 11.8166H34.0881C33.9913 11.8166 33.9187 11.7439 33.9187 11.647V11.6227C33.9187 11.5258 33.9913 11.4531 34.0881 11.4531Z" fill="white"/>
<path d="M40.9852 11.8167C41.1055 11.8167 41.203 11.719 41.203 11.5985C41.203 11.4781 41.1055 11.3804 40.9852 11.3804C40.8649 11.3804 40.7674 11.4781 40.7674 11.5985C40.7674 11.719 40.8649 11.8167 40.9852 11.8167Z" fill="white"/>
<path d="M31.3776 35.3982V39.5668C31.3776 40.1242 31.8374 40.5605 32.3698 40.5605H36.9679V34.3803H32.3698C31.8132 34.3803 31.3776 34.8408 31.3776 35.3982ZM32.636 35.6648H35.6853V39.276H32.636V35.6648Z" fill="black"/>
<path d="M44.3007 27.5701H42.3888C42.4372 27.4731 42.4856 27.3762 42.5098 27.2792C42.6792 26.6249 42.6066 25.9705 42.292 25.4373C41.7596 24.5648 40.7674 24.274 39.9688 24.2982C39.025 24.3224 38.1295 24.9283 37.5487 25.7281C36.9679 24.9041 36.0725 24.3224 35.1287 24.2982C34.3543 24.274 33.3378 24.5648 32.8054 25.4373C32.4908 25.9947 32.394 26.6491 32.5876 27.2792C32.6118 27.3762 32.6602 27.4731 32.7086 27.5943H30.7968C30.2402 27.5943 29.8046 28.0548 29.8046 28.588V32.2718C29.8046 32.8292 30.2644 33.2655 30.7968 33.2655H36.8711V27.5701H34.2333C34.0397 27.4004 33.8945 27.1823 33.8219 26.9157C33.7735 26.746 33.7251 26.4067 33.9187 26.0674C34.1607 25.6797 34.7173 25.5342 35.1045 25.5585C35.9757 25.5827 36.8953 26.6006 36.9195 27.5701L37.5487 27.5458L38.1779 27.5701C38.2021 26.6006 39.1218 25.5827 39.993 25.5585C40.3802 25.5342 40.9368 25.6797 41.1788 26.0674C41.324 26.3098 41.3482 26.6006 41.2756 26.9157C41.203 27.1823 41.0578 27.4004 40.8642 27.5701H38.2264V33.2655H44.3007C44.8573 33.2655 45.2929 32.805 45.2929 32.2718V28.5637C45.2929 28.0305 44.8573 27.5701 44.3007 27.5701ZM35.6127 31.981H31.0872V28.8303H35.6127V31.981V31.981ZM44.0345 31.981H39.509V28.8303H44.0345V31.981Z" fill="black"/>
<path d="M42.8244 34.3803H38.2263V40.5605H42.8244C43.381 40.5605 43.8166 40.1 43.8166 39.5668V35.3982C43.8408 34.8408 43.381 34.3803 42.8244 34.3803ZM42.5582 39.276H39.5089V35.6648H42.5582V39.276Z" fill="black"/>
<path d="M30.9179 34.9618C30.0466 36.3432 28.2316 36.7552 26.8522 35.8827L19.471 31.084C18.0916 30.2115 17.6802 28.3938 18.5514 27.0124C19.4226 25.631 21.2377 25.2189 22.6171 26.0914L29.9982 30.8901C31.3535 31.7626 31.7649 33.5803 30.9179 34.9618Z" fill="#FCC6AE"/>
<path d="M29.3691 43.517C28.4979 44.8985 26.6829 45.3105 25.3034 44.438L19.4469 40.6572C18.0675 39.7847 17.6561 37.967 18.5273 36.5856C19.3985 35.2041 21.2135 34.7921 22.593 35.6646L28.4495 39.4454C29.8289 40.2936 30.2403 42.1113 29.3691 43.517Z" fill="#FCC6AE"/>
<path d="M63.8306 11.5501C60.3699 9.65971 60.3699 9.65971 58.4581 6.16975C58.3855 6.04857 58.3129 5.97586 58.2161 5.97586C58.1193 5.97586 58.0225 6.04857 57.9741 6.16975C56.0864 9.63547 56.0864 9.63547 52.6016 11.5501C52.4806 11.6228 52.408 11.6955 52.408 11.7925C52.408 11.8894 52.4806 11.9864 52.6016 12.0348C56.0622 13.9252 56.0622 13.9252 57.9741 17.4152C58.0467 17.5364 58.1193 17.6091 58.2161 17.6091C58.3129 17.6091 58.4097 17.5364 58.4581 17.4152C60.3457 13.9495 60.3457 13.9495 63.8306 12.0348C63.9516 11.9621 64.0242 11.8894 64.0242 11.7925C64.0242 11.6955 63.9274 11.6228 63.8306 11.5501Z" fill="#FDD020"/>
<path d="M13.7113 34.5498C11.9689 33.6046 11.9689 33.6046 11.0251 31.8596C11.0009 31.8111 10.9525 31.7627 10.9041 31.7627C10.8557 31.7627 10.8073 31.8111 10.7831 31.8596C9.83924 33.6046 9.83924 33.6046 8.0968 34.5498C8.0484 34.574 8 34.6225 8 34.671C8 34.7194 8.0484 34.7679 8.0968 34.7921C9.83924 35.7373 9.83924 35.7373 10.7831 37.4823C10.8073 37.5308 10.8557 37.5793 10.9041 37.5793C10.9525 37.5793 11.0009 37.5308 11.0251 37.4823C11.9689 35.7373 11.9689 35.7373 13.7113 34.7921C13.7597 34.7679 13.8081 34.7194 13.8081 34.671C13.8081 34.6225 13.7597 34.574 13.7113 34.5498Z" fill="#FDD020"/>
<path d="M63.9033 25.3887C62.1608 24.4435 62.1608 24.4435 61.217 22.6985C61.1928 22.65 61.1444 22.6016 61.096 22.6016C61.0476 22.6016 60.9992 22.65 60.975 22.6985C60.0312 24.4435 60.0312 24.4435 58.2888 25.3887C58.2404 25.4129 58.192 25.4614 58.192 25.5099C58.192 25.5583 58.2404 25.6068 58.2888 25.631C60.0312 26.6005 60.0312 26.6005 60.975 28.3212C60.9992 28.3697 61.0476 28.4182 61.096 28.4182C61.1444 28.4182 61.1928 28.3697 61.217 28.3212C62.185 26.6005 62.1851 26.6005 63.9033 25.631C63.9517 25.6068 64.0001 25.5583 64.0001 25.5099C64.0001 25.4614 63.9759 25.4129 63.9033 25.3887Z" fill="#FDD020"/>
</g>
<defs>
<clipPath id="clip0">
<rect width="56" height="65.8246" fill="white" transform="translate(8 6)"/>
</clipPath>
</defs>
</svg>
